<?xml version="1.0" standalone="no"?> <!DOCTYPE svg PUBLIC "-//W3C//DTD SVG 1.0//EN" "http://www.w3.org/TR/2001/REC-SVG-20010904/DTD/svg10.dtd" > <svg xmlns="http://www.w3.org/2000/svg" width="100%" height="100%">
<defs >
<font horiz-adv-x="495" ><font-face
    font-family=""
    units-per-em="1000"
    panose-1="2 4 5 2 6 5 4 6 2 3"
    ascent="803"
    descent="-197"
    alphabetic="0" />
<missing-glyph horiz-adv-x="498" />
<glyph unicode=" " glyph-name="space" horiz-adv-x="193" />
<glyph unicode="!" glyph-name="exclam" horiz-adv-x="239" d="M55 611Q47 656 65 679T119 702Q155 702 173 679T184 611L127 193H113L55 611ZM58 57Q58 83 75 100T119 118Q145 118 163 101T181 57Q181 31 163 13T119 -5Q93 -5 76 13T58 57Z" />
<glyph unicode="&quot;" glyph-name="quotedbl" horiz-adv-x="283" d="M30 629Q19 667 34 686T77 705Q103 705 118 686T123 629L83 479H72L30 629ZM160 629Q149 667 164 686T206 705Q233 705 248 686T253 629L212 479H201L160 629Z" />
<glyph unicode="#" glyph-name="numbersign" horiz-adv-x="478" d="M268 203H143L98 0H72L117 203H23L40 279H135L166 421H72L90 497H183L228 693H254L209 497H335L380 693H405L361 497H455L437 421H344L312 279H406L388 203H295L250 0H223L268 203ZM161 279H286L318
421H192L161 279Z" />
<glyph unicode="$" glyph-name="dollar" horiz-adv-x="485" d="M18 98Q18 121 31 134T70 148Q95 148 109 135T128 84Q130 63 135 50T151 28T179 16T225 12V301Q171 324 134 347T74 395T41 448T31 512Q31 546 44 578T83 636T144 678T226 699V760H251V700Q301 700
336 692T394 669T427 638T438 601Q438 578 424 566T388 553Q361 553 348 567T331 615Q329 630 325 641T313 661T290 673T251 678V413Q305 389 344 367T408 319T445 263T457 194Q457 156 443 121T403 58T338 12T250 -9V-103H225V-10Q168 -10 129 -2T65 21T29 55T18
98ZM373 144Q373 195 343 227T250 290V12Q308 17 340 54T373 144ZM108 558Q108 512 138 482T226 424V677Q170 672 139 638T108 558Z" />
<glyph unicode="%" glyph-name="percent" horiz-adv-x="666" d="M562 714H593L90 -50H58L562 714ZM182 357Q154 357 126 367T76 397T40 448T26 523Q26 569 40 603T77 659T128 691T184 702Q212 702 240 692T290 662T326 609T340 533Q340 488 326 455T288 400T237
368T182 357ZM182 376Q220 376 236 410T252 522Q252 608 236 645T182 683Q146 683 130 649T114 534Q114 450 130 413T182 376ZM481 -12Q452 -12 425 -3T375 27T340 78T326 153Q326 200 340 234T377 290T428 322T483 333Q512 333 540 323T590 292T625 239T639 163Q639
118 625 85T588 31T537 -1T481 -12ZM482 6Q520 6 536 40T552 153Q552 238 536 276T482 314Q446 314 430 280T414 164Q414 81 430 44T482 6Z" />
<glyph unicode="&amp;" glyph-name="ampersand" horiz-adv-x="643" d="M460 581Q460 551 447 528T411 485T355 448T284 412Q302 385 324 352T372 283T423 214T473 149Q501 194 512 230T524 293Q524 317 514 328T474 348L455 353V364H639V353L617 344Q591 336 579
316T550 264Q539 236 526 206T485 134Q502 111 522 88T562 45Q573 33 581 27T608 16L626 12V0H456Q445 12 432 27T410 55Q376 25 332 7T234 -11Q128 -11 70 35T12 171Q12 208 24 239T59 296T111 343T177 381Q154 422 142 458T129 529Q129 565 142 597T180 652T237
689T310 703Q383 703 421 669T460 581ZM397 70Q369 104 340 142T284 219T231 296T186 367Q151 341 136 299T120 215Q120 121 163 72T276 23Q319 23 348 38T397 70ZM220 575Q220 540 234 504T276 425Q376 486 376 581Q376 626 359 654T305 682Q264 682 242 653T220
575Z" />
<glyph unicode="&apos;" glyph-name="quotesingle" horiz-adv-x="154" d="M30 629Q19 667 34 686T77 705Q103 705 119 686T124 629L83 479H72L30 629Z" />
<glyph unicode="(" glyph-name="parenleft" horiz-adv-x="293" d="M274 -141Q235 -108 195 -67T121 28T66 149T45 301Q45 378 66 445T120 568T194 668T274 746L283 737Q249 701 219 655T167 556T132 443T119 322Q119 241 132 174T167 50T219 -51T283 -133L274 -141V-141Z" />
<glyph unicode=")" glyph-name="parenright" horiz-adv-x="293" d="M19 746Q58 713 98 671T172 574T227 452T248 302Q248 223 227 157T173 35T99 -64T19 -141L10 -133Q44 -94 74 -48T126 51T161 165T174 292Q174 369 161 435T126 557T74 658T10 738L19 746V746Z" />
<glyph unicode="*" glyph-name="asterisk" horiz-adv-x="302" d="M67 446Q50 457 51 476T71 506L147 561L61 559Q32 558 23 574T19 605Q25 622 41 628T79 616L148 564L118 653Q110 675 120 689T151 703Q171 703 181 689T183 653L153 564L222 617Q243 636 260 630T283
606Q287 590 279 574T240 559L154 561L230 506Q240 500 245 492T250 476T246 460T234 447Q222 437 204 440T179 469L150 558L124 469Q120 456 113 449T98 440T82 440T67 446Z" />
<glyph unicode="+" glyph-name="plus" horiz-adv-x="444" d="M208 328H38V354H208V547H236V354H407V328H236V136H208V328Z" />
<glyph unicode="," glyph-name="comma" horiz-adv-x="186" d="M18 -97Q59 -79 84 -49T112 23Q98 6 74 6Q52 6 39 20T25 58Q25 82 43 99T88 116Q121 116 140 95T160 37Q160 11 150 -12T120 -54T76 -86T22 -106L18 -97Z" />
<glyph unicode="-" glyph-name="hyphen" horiz-adv-x="250" d="M25 323H231L225 250H19L25 323Z" />
<glyph unicode="." glyph-name="period" horiz-adv-x="182" d="M29 57Q29 83 47 100T91 118Q116 118 134 101T153 57Q153 31 135 13T91 -5Q65 -5 47 13T29 57Z" />
<glyph unicode="/" glyph-name="slash" horiz-adv-x="357" d="M33 -130H4L320 734H350L33 -130Z" />
<glyph unicode="0" glyph-name="zero" horiz-adv-x="610" d="M303 -10Q251 -10 202 9T114 69T52 176T28 335Q28 434 53 504T118 618T208 683T309 703Q360 703 409 684T496 623T558 515T582 354Q582 256 558 187T494 74T404 10T303 -10ZM307 12Q385 12 424 90T464
335Q464 513 425 597T307 681Q229 681 188 603T147 354Q147 179 187 96T307 12Z" />
<glyph unicode="1" glyph-name="one" horiz-adv-x="338" d="M21 11L70 19Q98 23 105 34T112 78V589L26 599V609Q96 621 140 641T217 700L227 698V78Q227 46 233 35T266 19L315 11V0H21V11Z" />
<glyph unicode="2" glyph-name="two" horiz-adv-x="486" d="M5 61Q40 88 67 110T118 153T161 191T200 229Q234 263 259 296T300 366T325 443T334 530Q334 570 325 598T300 645T261 672T212 681Q193 681 181 678T163 669T153 652T148 625Q143 583 129 568T85 553Q61
553 48 566T34 602Q34 644 82 673T222 703Q334 703 393 652T453 511Q453 454 427 403T351 302T232 200T75 93V89H348Q369 89 382 91T405 101T424 126T446 174H457L442 0H5V61Z" />
<glyph unicode="3" glyph-name="three" horiz-adv-x="499" d="M203 -10Q19 -10 19 83Q19 107 33 120T74 134Q101 134 114 118T133 63Q138 31 152 22T203 12Q239 12 266 26T311 64T338 123T347 197Q347 273 316 312T209 351H154V375H201Q270 375 300 414T330 533Q330
610 303 645T219 681Q200 681 189 679T172 670T162 655T157 631Q152 590 139 575T97 559Q71 559 58 572T45 607Q45 649 93 676T229 703Q282 703 322 691T389 656T429 604T443 539Q443 509 434 482T405 433T354 394T279 369V366Q368 360 417 316T467 194Q467 151
450 114T400 50T317 6T203 -10Z" />
<glyph unicode="4" glyph-name="four" horiz-adv-x="528" d="M217 11L253 19Q279 24 286 35T294 79V206H7V242L344 693H401V258H513L508 206H401V79Q401 47 408 35T439 19L480 11V0H217V11ZM294 258V580H291L52 261V258H294Z" />
<glyph unicode="5" glyph-name="five" horiz-adv-x="479" d="M182 -10Q104 -10 62 13T20 78Q20 101 34 114T74 128Q99 128 113 114T134 61Q137 46 140 36T150 21T166 13T192 11Q263 11 306 57T349 183Q349 260 308 300T184 340Q142 340 112 334T63 319L55 325L95
693H369Q379 693 385 694T398 701T409 716T423 743H434L416 603H111L91 415Q114 423 147 427T218 432Q327 432 388 380T449 226Q449 178 430 136T376 61T291 9T182 -10Z" />
<glyph unicode="6" glyph-name="six" horiz-adv-x="545" d="M284 -10Q226 -10 180 9T100 68T49 165T31 300Q31 407 62 483T142 608T249 680T361 703Q436 703 475 681T514 618Q514 595 500 581T460 566Q432 566 419 580T400 628Q395 660 385 670T349 681Q316 681
283 665T221 611T174 512T150 362Q176 380 218 399T320 418Q418 418 468 366T519 213Q519 165 502 124T455 53T381 7T284 -10ZM283 12Q317 12 340 26T376 65T396 125T402 202Q402 298 371 339T269 381Q254 381 237 378T204 370T174 357T149 343Q148 332 148 325T148
303Q148 253 151 201T167 107T208 39T283 12Z" />
<glyph unicode="7" glyph-name="seven" horiz-adv-x="475" d="M111 0Q132 99 164 183T237 341T324 478T419 600H94Q81 600 73 597T58 586T45 564T29 526H18L34 693H467V642Q418 569 381 497T316 348T268 186T235 0H111V0Z" />
<glyph unicode="8" glyph-name="eight" horiz-adv-x="521" d="M257 -10Q203 -10 159 2T85 35T38 88T21 159Q21 221 64 264T185 342V344Q115 383 86 425T56 521Q56 560 73 593T119 651T187 689T270 703Q309 703 345 693T411 664T457 616T475 551Q475 523 464 500T432
456T385 420T327 389V388Q368 367 399 346T452 301T484 249T495 184Q495 146 478 111T429 49T354 6T257 -10ZM261 12Q324 12 363 47T402 143Q402 176 389 200T351 246T288 287T201 333Q187 322 172 307T145 271T124 225T116 168Q116 95 154 54T261 12ZM310 397Q341
423 362 459T384 552Q384 615 354 648T264 682Q208 682 177 650T145 564Q145 535 155 514T187 473T239 436T310 397Z" />
<glyph unicode="9" glyph-name="nine" horiz-adv-x="547" d="M265 704Q319 704 364 685T443 626T496 528T515 390Q515 286 488 211T415 87T309 14T182 -10Q110 -10 74 13T38 75Q38 96 51 110T91 125Q119 125 132 111T151 65Q157 33 165 23T203 12Q239 12 271 30T330
86T373 186T395 333Q369 312 327 294T231 276Q137 276 81 327T25 479Q25 525 41 565T88 637T163 686T265 704ZM263 682Q198 682 170 628T141 484Q141 392 177 354T277 315Q344 315 395 351Q396 362 396 370T396 392Q396 442 393 493T376 587T336 655T263 682Z"
/>
<glyph unicode=":" glyph-name="colon" horiz-adv-x="182" d="M29 57Q29 83 47 100T91 118Q116 118 134 101T153 57Q153 31 135 13T91 -5Q65 -5 47 13T29 57ZM29 343Q29 369 47 386T91 404Q116 404 134 387T153 343Q153 317 135 299T91 281Q65 281 47 299T29 343Z" />
<glyph unicode=";" glyph-name="semicolon" horiz-adv-x="186" d="M20 -97Q61 -79 86 -49T114 23Q101 6 76 6Q54 6 41 20T28 58Q28 83 46 99T90 116Q123 116 143 95T163 38Q163 12 152 -11T123 -54T79 -86T25 -106L20 -97ZM29 343Q29 369 47 386T91 404Q116 404
134 387T153 343Q153 317 135 299T91 281Q65 281 47 299T29 343Z" />
<glyph unicode="&lt;" glyph-name="less" horiz-adv-x="446" d="M32 312V333L393 508V478L71 323L393 166V137L32 312Z" />
<glyph unicode="=" glyph-name="equal" horiz-adv-x="482" d="M42 415H441V389H42V415ZM42 269H441V242H42V269Z" />
<glyph unicode="&gt;" glyph-name="greater" horiz-adv-x="446" d="M54 137V166L375 323L54 478V508L414 333V312L54 137Z" />
<glyph unicode="?" glyph-name="question" horiz-adv-x="403" d="M133 383Q163 393 192 408T244 444T281 494T295 561Q295 618 263 649T172 681Q151 681 144 671T133 638Q128 603 114 589T72 574Q48 574 36 588T24 622Q24 642 35 657T67 682T114 698T173 703Q267
703 320 655T373 522Q373 438 320 382T163 293V195H133V383ZM89 57Q89 83 107 100T151 118Q177 118 195 101T213 57Q213 31 195 13T151 -5Q125 -5 107 13T89 57Z" />
<glyph unicode="@" glyph-name="at" horiz-adv-x="838" d="M603 63Q625 63 651 77T701 125T740 212T756 344Q756 400 742 451T695 542T610 605T483 629Q397 629 325 598T200 513T118 386T88 227Q88 152 106 91T164 -13T264 -79T409 -102Q481 -102 536 -88T639
-48V-60Q603 -84 538 -105T382 -127Q302 -127 237 -105T125 -40T52 63T26 201Q26 296 64 378T166 520T314 615T490 650Q567 650 627 626T728 562T791 469T813 358Q813 280 792 221T737 121T658 61T567 41Q510 41 489 73T472 161H470Q438 110 399 76T312 41Q274
41 248 70T221 162Q221 231 244 290T305 394T387 463T475 488Q507 488 531 477T571 449H575L616 486L624 483Q619 471 615 455Q611 441 607 421T598 374L564 183Q554 129 561 96T603 63ZM359 95Q388 95 415 121T469 186L519 433Q514 448 501 457T469 467Q441 467
414 441T366 371T332 274T319 163Q319 132 329 114T359 95Z" />
<glyph unicode="A" glyph-name="A" horiz-adv-x="620" d="M-10 11L7 16Q20 20 28 25T44 42T60 74T81 130L286 693H340L539 118Q549 89 557 71T572 41T588 24T607 16L628 11V0H363V11L386 16Q411 22 418 32T426 57Q426 68 422 85T413 115L369 251H155L116 137Q106
108 103 91T99 61Q99 43 108 33T141 17L168 11V0H-10V11ZM164 275H361L267 563H264L164 275Z" />
<glyph unicode="B" glyph-name="B" horiz-adv-x="585" d="M12 11L49 18Q62 21 70 23T82 32T88 50T89 80V613Q89 632 88 643T83 660T70 669T49 675L12 682V693H287Q343 693 388 684T464 656T513 605T530 530Q530 461 488 421T365 367V365Q465 357 515 316T566 195Q566
99 497 50T309 0H12V11ZM306 23Q445 23 445 188Q445 272 410 309T290 347H203V99Q203 74 206 59T221 36T252 26T306 23ZM277 371Q343 371 379 407T416 522Q416 603 384 636T277 670Q256 670 236 668T203 662V371H277Z" />
<glyph unicode="C" glyph-name="C" horiz-adv-x="596" d="M333 -10Q266 -10 210 10T112 72T48 181T25 341Q25 441 53 510T129 622T238 684T367 703Q425 703 469 696T546 680L559 493H547Q532 525 520 551T490 606Q477 629 464 643T436 666T402 678T357 681Q311
681 272 663T205 606T162 506T146 360Q146 268 158 202T195 94T256 32T339 12Q373 12 397 15T440 28T471 52T498 92Q512 118 525 149T552 212H564L552 27Q516 12 462 1T333 -10Z" />
<glyph unicode="D" glyph-name="D" horiz-adv-x="677" d="M12 11L49 18Q62 21 70 23T82 32T88 50T89 80V613Q89 632 88 643T83 660T70 669T49 675L12 682V693H318Q388 693 449 676T555 619T626 514T652 354Q652 266 627 200T557 90T449 23T311 0H12V11ZM304 22Q370
22 413 45T483 109T520 208T531 334Q531 422 519 485T479 590T408 650T302 670Q270 670 246 669T204 662V98Q204 74 207 60T220 37T251 25T304 22Z" />
<glyph unicode="E" glyph-name="E" horiz-adv-x="564" d="M408 240H397Q392 262 386 281T373 314Q368 325 362 332T344 342T313 347T262 348H204V103Q204 74 206 58T221 35T258 25T327 23Q363 23 385 25T422 33T447 49T468 74Q485 100 500 136T529 210H541L527
0H12V11L49 18Q62 21 70 24T82 33T87 50T89 80V613Q89 632 88 643T83 660T70 669T49 675L12 682V693H507L518 518H507Q493 550 481 576T458 620Q447 636 437 646T411 661T373 668T316 670Q278 670 252 668T204 661V371H262Q293 371 312 372T343 377T361 388T373
406Q381 420 386 438T397 480H408V240Z" />
<glyph unicode="F" glyph-name="F" horiz-adv-x="529" d="M204 337V80Q204 61 205 50T210 32T223 23T245 18L293 11V0H12V11L49 18Q62 21 70 23T82 32T87 50T89 80V613Q89 632 88 643T83 660T70 669T49 675L12 682V693H500L510 503H497Q483 539 472 565T450 612Q440
631 431 642T407 660T370 669T311 671Q271 671 248 669T204 662V360H254Q285 360 305 361T337 366T355 377T366 395Q374 412 379 432T390 476H401V220H390Q384 243 379 261T367 295Q362 308 356 316T339 329T307 335T254 337H204Z" />
<glyph unicode="G" glyph-name="G" horiz-adv-x="643" d="M360 -10Q199 -10 112 76T25 340Q25 446 56 516T136 627T249 686T375 703Q490 703 564 679L574 495H563Q547 532 535 559T501 616Q488 634 475 646T447 666T411 677T365 681Q315 681 274 664T204 609T160
511T144 364Q144 277 155 211T192 101T258 34T356 12Q398 12 428 20T476 40V200Q476 219 475 230T470 247T458 256T436 262L398 269V280H650V269L614 262Q596 259 592 249T587 208V28Q555 16 496 3T360 -10Z" />
<glyph unicode="H" glyph-name="H" horiz-adv-x="707" d="M12 11L49 18Q62 21 70 23T82 32T88 50T89 80V613Q89 632 88 643T83 660T70 669T49 675L12 682V693H280V682L245 675Q231 672 223 669T210 660T205 643T204 613V366H504V613Q504 632 503 643T498 660T485
669T463 675L427 682V693H696V682L658 675Q645 672 637 670T625 661T620 643T619 613V80Q619 61 620 50T625 33T637 24T658 18L696 11V0H427V11L463 18Q477 21 485 24T497 33T503 50T504 80V342H204V80Q204 61 205 50T210 33T222 24T245 18L280 11V0H12V11Z" />
<glyph unicode="I" glyph-name="I" horiz-adv-x="294" d="M12 11L50 18Q63 21 71 23T83 32T89 50T90 80V613Q90 632 89 643T84 660T71 669T50 675L12 682V693H282V682L245 675Q231 672 223 670T211 661T205 643T204 613V80Q204 61 205 50T210 33T223 24T245 18L282
11V0H12V11Z" />
<glyph unicode="J" glyph-name="J" horiz-adv-x="397" d="M116 -10Q59 -10 30 11T1 64Q1 89 15 103T56 117Q85 117 99 101T119 40Q121 26 126 20T142 13Q155 13 166 20T184 45T196 91T200 163V613Q200 632 199 643T194 661T182 670T161 675L123 682V693H392V682L355
675Q341 672 334 670T322 661T316 643T315 613V216Q315 168 304 127T268 55T206 7T116 -10Z" />
<glyph unicode="K" glyph-name="K" horiz-adv-x="623" d="M468 0Q438 34 407 74T345 159T286 250T234 343V351L437 592Q462 620 462 643Q462 654 454 661T425 673L392 682V693H605V682L583 676Q569 672 558 667T535 654T510 632T480 600L317 409Q343 362 375 311T440
212T505 122T564 51Q578 36 588 29T616 16L634 11V0H468ZM12 11L49 18Q62 21 70 23T82 32T88 50T89 80V613Q89 632 88 643T83 660T70 669T49 675L12 682V693H280V682L245 675Q231 672 223 670T211 661T205 643T204 613V80Q204 61 205 50T210 33T222 24T245 18L280
11V0H12V11Z" />
<glyph unicode="L" glyph-name="L" horiz-adv-x="538" d="M12 11L49 18Q62 21 70 23T82 32T87 50T89 80V613Q89 632 88 643T83 660T70 669T49 675L12 682V693H282V682L245 675Q231 673 223 670T211 661T205 644T204 613V90Q204 69 206 56T219 35T250 25T309 22Q345
22 367 24T405 32T431 50T452 80Q467 107 482 142T511 218H524L510 0H12V11Z" />
<glyph unicode="M" glyph-name="M" horiz-adv-x="808" d="M12 11L50 20Q62 23 70 27T82 40T87 62T89 98V613Q89 631 88 642T82 659T69 669T49 675L14 682V693H211L406 188H409L600 693H797V682L760 675Q746 672 738 669T726 660T720 643T719 613V80Q719 61 720
50T725 33T738 24T760 18L797 11V0H527V11L565 18Q578 21 586 23T598 32T603 50T604 80V614H601L377 20H350L124 614H120V99Q120 77 121 63T126 41T138 28T161 20L199 11V0H12V11Z" />
<glyph unicode="N" glyph-name="N" horiz-adv-x="653" d="M120 620H117V99Q117 76 118 63T123 41T136 28T159 20L198 11V0H12V11L50 20Q62 23 69 27T81 40T87 61T89 98V613Q89 647 81 658T49 675L14 682V693H206L536 187H539V594Q539 616 538 630T533 652T520
665T498 673L455 682V693H642V682L606 673Q594 670 586 665T574 652T569 631T567 596V-4H528L120 620Z" />
<glyph unicode="O" glyph-name="O" horiz-adv-x="681" d="M338 -10Q271 -10 214 11T115 76T49 184T25 337Q25 436 52 505T124 619T226 683T343 703Q410 703 467 682T566 616T632 506T656 351Q656 252 629 184T557 72T455 10T338 -10ZM340 12Q441 12 488 90T535
334Q535 416 524 480T489 589T429 657T341 681Q240 681 193 601T146 354Q146 183 195 98T340 12Z" />
<glyph unicode="P" glyph-name="P" horiz-adv-x="562" d="M12 11L49 18Q62 21 70 23T82 32T88 49T89 80V613Q89 632 88 643T83 660T70 669T49 675L12 682V693H297Q545 693 545 500Q545 454 530 415T484 348T407 305T296 289Q275 289 258 291T233 295V308Q285 306
321 315T381 346T415 404T426 491Q426 540 419 574T394 630T351 661T286 671Q241 671 204 663V80Q204 62 205 51T210 34T223 24T247 18L293 11V0H12V11Z" />
<glyph unicode="Q" glyph-name="Q" horiz-adv-x="681" d="M578 -163Q553 -163 532 -160T490 -151T449 -135T405 -111Q367 -88 337 -63T269 -5Q215 5 171 31T94 101T43 203T25 337Q25 436 52 505T123 619T225 683T344 703Q411 703 468 681T567 616T632 506T656
351Q656 270 638 211T589 110T514 43T419 5V2Q439 -14 463 -32T506 -61Q545 -84 582 -95T654 -106Q696 -106 727 -92V-102Q706 -125 668 -144T578 -163ZM340 11Q444 11 489 91T535 334Q535 414 524 478T490 587T430 656T341 681Q238 681 192 600T146 354Q146 186
194 99T340 11Z" />
<glyph unicode="R" glyph-name="R" horiz-adv-x="613" d="M12 11L49 18Q62 21 70 23T82 32T87 49T89 80V613Q89 632 88 643T82 660T70 669T49 675L12 682V693H306Q424 693 479 652T534 527Q534 457 496 415T387 350V348Q405 314 427 274T474 193T521 117T562 57Q581
32 591 25T615 15L633 11V0H465Q442 33 418 72T370 153T323 239T278 326Q263 326 244 326T204 328V80Q204 61 205 50T210 33T222 24T244 18L280 11V0H12V11ZM267 349Q341 349 379 386T417 511Q417 600 384 635T289 670Q262 670 242 668T204 662V354Q214 352 229
351T267 349Z" />
<glyph unicode="S" glyph-name="S" horiz-adv-x="475" d="M219 -10Q99 -10 29 24L16 200H29Q45 165 58 138T90 83Q113 47 144 30T227 12Q289 12 323 47T357 141Q357 169 349 190T323 230T276 267T203 307Q165 324 134 343T79 387T44 441T31 511Q31 551 45 586T88
647T156 688T247 703Q298 703 338 695T402 676L413 514H401Q386 547 373 572T345 620Q334 637 324 648T302 667T275 678T237 681Q179 681 147 652T114 567Q114 539 121 518T145 480T186 447T248 414Q302 388 340 366T402 318T437 264T449 194Q449 156 435 120T393
55T321 8T219 -10Z" />
<glyph unicode="T" glyph-name="T" horiz-adv-x="571" d="M343 671V80Q343 61 344 50T349 33T362 24T386 18L423 11V0H149V11L187 18Q201 21 209 23T222 32T228 50T229 80V671H196Q163 671 143 668T110 657T90 637T74 608Q62 584 49 553T22 487H10L21 693H551L561
487H549Q536 522 523 553T499 608Q491 625 483 637T463 656T430 667T377 671H343Z" />
<glyph unicode="U" glyph-name="U" horiz-adv-x="665" d="M342 -10Q281 -10 233 2T152 41T101 112T83 219V613Q83 632 82 643T77 660T64 669T43 675L5 682V693H274V682L238 675Q224 672 216 669T204 660T198 643T197 613V213Q197 118 241 76T378 33Q469 33 508
80T548 219V594Q548 615 547 629T542 651T530 665T507 673L461 682V693H660V682L621 673Q597 668 590 653T583 596V209Q583 163 570 123T529 54T454 7T342 -10Z" />
<glyph unicode="V" glyph-name="V" horiz-adv-x="614" d="M73 584Q64 610 57 627T42 654T27 668T8 676L-15 682V693H246V682L218 676Q197 671 189 663T181 641Q181 629 186 613T199 574L353 135H356L507 574Q514 594 518 610T522 639Q522 653 514 661T484 675L452
682V693H628V682L609 676Q595 671 587 666T571 650T557 621T539 574L336 0H284L73 584Z" />
<glyph unicode="W" glyph-name="W" horiz-adv-x="932" d="M823 573Q828 593 831 607T834 635Q834 653 825 661T794 675L764 682V693H944V682L927 676Q912 671 902 665T883 646T868 614T851 563L679 0H628L475 458H473L320 0H269L69 587Q60 612 54 628T41 654T26
668T6 676L-18 682V693H241V682L215 676Q195 671 187 664T178 642Q178 629 182 613T195 574L338 144H341L460 503L431 591Q423 614 418 629T405 653T390 667T370 676L347 682V693H605V682L575 676Q555 671 547 663T539 640Q539 628 543 613T554 574L694 146H697L823
573Z" />
<glyph unicode="X" glyph-name="X" horiz-adv-x="618" d="M346 399H348L451 589Q463 611 468 624T473 648Q473 658 466 665T442 676L416 682V693H590V682L576 678Q561 674 551 669T531 654T512 631T489 594L363 375L521 94Q535 70 544 56T562 35T578 23T599 16L617
11V0H351V11L381 16Q398 18 404 24T410 40Q410 51 405 64T387 100L270 307H268L148 104Q124 63 124 45Q124 23 153 17L182 11V0H1V11L17 15Q30 18 40 22T60 36T81 59T108 98L255 333L102 604Q90 624 82 637T67 657T53 669T35 677L17 682V693H282V682L243 674Q229
671 223 666T216 649Q216 640 220 627T238 591L346 399Z" />
<glyph unicode="Y" glyph-name="Y" horiz-adv-x="585" d="M166 11L206 18Q220 21 228 23T240 32T246 50T248 80V286L69 604Q57 625 50 637T36 657T23 669T6 676L-15 682V693H257V682L223 675Q198 670 191 663T184 642Q184 634 187 623T200 595L347 323H350L474
585Q481 600 485 614T489 639Q489 652 481 661T451 675L419 682V693H599V682L580 675Q568 671 559 666T542 651T525 623T500 575L363 288V80Q363 61 364 50T369 33T382 24T405 18L443 11V0H166V11Z" />
<glyph unicode="Z" glyph-name="Z" horiz-adv-x="560" d="M20 24L402 667V671H319Q261 671 227 668T173 658T144 641T126 616Q110 587 97 559T68 493H57L71 693H531V670L147 25V21H227Q296 21 335 23T397 31T431 49T457 82Q474 107 488 139T519 208H530L512 0H20V24Z" />
<glyph unicode="[" glyph-name="bracketleft" horiz-adv-x="280" d="M146 -43Q146 -63 147 -75T153 -95T166 -105T189 -110L270 -119V-130H74V734H270V723L189 714Q175 712 167 709T154 699T148 680T146 647V-43Z" />
<glyph unicode="\" glyph-name="backslash" horiz-adv-x="357" d="M7 734H37L353 -130H324L7 734Z" />
<glyph unicode="]" glyph-name="bracketright" horiz-adv-x="280" d="M134 647Q134 667 133 679T127 699T113 709T90 714L10 723V734H206V-130H10V-119L90 -110Q104 -109 113 -106T126 -95T132 -76T134 -43V647Z" />
<glyph unicode="^" glyph-name="asciicircum" horiz-adv-x="347" d="M18 483L158 704H188L328 483L318 475L170 595L27 475L18 483Z" />
<glyph unicode="_" glyph-name="underscore" horiz-adv-x="349" d="M-8 -141H357V-167H-8V-141Z" />
<glyph unicode="`" glyph-name="grave" horiz-adv-x="459" d="M318 574L162 614Q142 619 133 631T124 659Q124 679 137 692T169 706Q180 706 189 702T208 688L322 581L318 574Z" />
<glyph unicode="a" glyph-name="a" horiz-adv-x="478" d="M165 -13Q97 -13 58 19T19 110Q19 144 32 167T67 205T116 230T172 247L304 280V389Q304 417 302 438T291 475T265 498T217 506Q183 506 172 496T156 460Q152 421 139 406T99 391Q74 391 61 403T48 438Q48
462 64 478T107 506T167 522T235 527Q326 527 367 494T408 395V85Q408 62 413 51T428 33Q439 25 452 23T480 20V12Q469 4 446 -4T394 -12Q318 -12 309 51H306Q285 25 249 6T165 -13ZM210 33Q245 33 268 45T304 74V251L246 241Q216 236 194 228T156 207T133 175T125
128Q125 83 146 58T210 33Z" />
<glyph unicode="b" glyph-name="b" horiz-adv-x="549" d="M243 -10Q193 -10 142 1T55 34V656Q55 671 54 680T49 696T38 707T17 717L-14 731V739L158 755L164 753Q163 735 162 715Q161 698 161 676T160 630V550Q160 533 160 517T159 489V462H161Q190 486 234 506T327
527Q366 527 401 515T464 473T508 398T525 282Q525 211 505 157T448 65T359 9T243 -10ZM258 10Q295 10 324 24T374 69T405 149T416 267Q416 373 378 422T270 471Q231 471 204 462T160 444V47Q176 31 202 21T258 10Z" />
<glyph unicode="c" glyph-name="c" horiz-adv-x="451" d="M251 -12Q145 -12 84 54T22 240Q22 315 47 369T111 458T196 510T287 527Q359 527 396 503T434 438Q434 414 421 401T379 387Q352 387 341 401T324 448Q321 463 318 473T310 490T295 500T270 503Q243 503
218 489T173 447T142 377T130 277Q130 42 302 42Q372 42 431 76V64Q420 51 403 38T362 13T311 -5T251 -12Z" />
<glyph unicode="d" glyph-name="d" horiz-adv-x="564" d="M229 -10Q188 -10 151 2T86 42T41 118T24 234Q24 309 47 364T110 455T198 509T300 527Q335 527 354 523T388 513V656Q388 671 387 679T383 694T373 703T358 712L318 731V739L491 755L497 753Q496 738 495
720Q494 704 494 682T493 630V86Q493 71 494 62T499 47T511 37T532 29L559 20V11L396 -10L388 -6L390 50H387Q353 23 315 7T229 -10ZM283 41Q319 41 346 50T388 71V461Q374 481 350 493T293 505Q219 505 176 447T132 260Q132 148 171 95T283 41Z" />
<glyph unicode="e" glyph-name="e" horiz-adv-x="487" d="M270 -12Q205 -12 159 6T81 59T36 142T21 252Q21 314 40 364T93 451T170 507T264 527Q359 527 413 471T467 290H129V282Q129 218 141 173T175 100T231 58T307 44Q352 44 388 53T454 80V67Q427 37 380 13T270
-12ZM260 506Q205 506 170 460T129 309L360 318Q360 417 338 461T260 506Z" />
<glyph unicode="f" glyph-name="f" horiz-adv-x="299" d="M10 10L38 17Q51 20 58 23T69 31T74 45T75 68V475H9V483L75 511V559Q75 605 90 642T134 704T199 744T282 758Q330 758 356 741T383 695Q383 675 370 662T335 649Q311 649 299 661T281 706Q278 722 275
730T257 738Q242 738 228 731T203 707T186 666T179 604V510H284L279 475H179V68Q179 41 184 33T211 20L256 10V0H10V10Z" />
<glyph unicode="g" glyph-name="g" horiz-adv-x="483" d="M204 -195Q107 -195 53 -167T-1 -84Q-1 -45 26 -18T111 26V28Q74 36 57 56T40 106Q40 141 62 169T114 213V216Q76 235 53 269T29 350Q29 395 46 428T90 483T152 516T223 527Q254 527 284 520T338 498Q364
523 387 535T436 548Q459 548 474 537T489 500Q489 482 479 471T449 460Q433 460 426 466T413 486Q403 509 389 508T352 490V488Q384 468 401 436T419 360Q419 316 402 284T358 231T295 200T223 190Q168 190 131 207Q120 199 110 185T99 153Q99 134 113 125T159
116H325Q396 116 434 88T473 -6Q473 -38 458 -71T410 -132T326 -177T204 -195ZM221 -173Q258 -173 291 -166T348 -143T386 -106T400 -53Q400 -12 377 5T300 23H136Q112 12 99 -11T85 -69Q85 -124 120 -148T221 -173ZM223 208Q270 208 293 240T316 348Q316 433 293
469T223 506Q177 506 154 473T131 363Q131 279 154 244T223 208Z" />
<glyph unicode="h" glyph-name="h" horiz-adv-x="564" d="M364 527Q435 527 465 494T495 393V68Q495 53 496 45T500 31T511 23T532 17L561 10V0H326V10L354 16Q366 19 373 22T384 30T389 44T391 68V377Q391 429 373 449T312 470Q267 470 234 460T178 442V68Q178
53 179 44T184 30T195 22T215 16L243 10V0H9V10L37 17Q50 20 57 23T67 31T72 44T73 68V656Q73 671 72 680T67 696T56 706T35 717L4 731V739L176 755L182 753Q181 736 180 717Q179 700 179 678T178 630V461H180Q198 473 220 485T266 506T315 521T364 527Z" />
<glyph unicode="i" glyph-name="i" horiz-adv-x="253" d="M10 10L38 17Q51 20 58 23T69 31T74 44T75 68V422Q75 436 74 444T68 458T57 468T36 479L10 494V502L178 524L183 522Q182 509 181 482T179 406V68Q179 39 186 31T219 17L245 10V0H10V10ZM62 656Q62 682
79 698T123 715Q149 715 166 699T184 656Q184 630 167 614T123 597Q97 597 80 613T62 656Z" />
<glyph unicode="j" glyph-name="j" horiz-adv-x="234" d="M173 9Q173 -41 161 -80T126 -145T72 -184T4 -198Q-45 -198 -69 -180T-93 -132Q-93 -112 -80 -99T-43 -85Q-21 -85 -9 -98T9 -146Q11 -165 15 -171T29 -178Q46 -178 57 -159T69 -97V422Q69 436 68 444T62
459T51 469T30 480L4 494V502L172 524L177 522Q176 511 175 483T173 407V9ZM54 656Q54 682 71 698T115 715Q141 715 158 699T176 656Q176 630 159 614T115 597Q89 597 72 613T54 656Z" />
<glyph unicode="k" glyph-name="k" horiz-adv-x="518" d="M381 0Q325 61 282 121T194 253V257L308 384Q340 420 350 439T360 466Q360 484 326 495L311 500V510H494V499L475 493Q460 488 448 483T426 471T405 454T382 431L273 312Q294 278 319 241T370 168T422
100T472 42Q483 30 490 25T512 14L524 10V0H381ZM178 71Q178 54 179 45T184 30T195 22T215 16L242 10V0H9V10L37 17Q50 20 57 23T67 31T72 46T73 71V659Q73 673 72 682T67 697T56 707T35 717L4 731V739L176 755L182 753Q181 736 180 717Q179 700 179 678T178 630V71Z"
/>
<glyph unicode="l" glyph-name="l" horiz-adv-x="251" d="M178 71Q178 41 185 32T218 17L244 10V0H9V10L37 17Q62 23 68 32T74 71V656Q74 671 73 680T68 696T56 706T35 717L4 731V739L176 755L182 753Q181 736 180 717Q179 700 179 678T178 630V71Z" />
<glyph unicode="m" glyph-name="m" horiz-adv-x="851" d="M10 10L38 17Q51 20 58 23T69 31T74 45T75 69V421Q75 435 74 443T69 458T58 468T37 480L12 494V502L173 524L179 522L178 459H179Q197 472 219 484T266 505T315 521T363 527Q414 527 438 508T473 457H476Q517
483 565 505T662 527Q725 527 754 494T783 392V69Q783 54 783 46T788 32T799 24T820 17L848 10V0H616V10L643 16Q654 19 661 22T671 30T676 44T678 69V376Q678 425 664 447T608 469Q590 469 572 466T536 459T504 450T478 440Q480 432 480 419T481 390V69Q481 55
482 46T486 32T496 24T515 16L542 10V0H314V10L341 16Q353 19 360 22T370 30T375 44T377 69V376Q377 426 363 447T307 469Q274 469 238 460T179 442V69Q179 54 180 45T185 31T196 22T215 16L243 10V0H10V10Z" />
<glyph unicode="n" glyph-name="n" horiz-adv-x="565" d="M10 10L38 17Q51 20 58 23T69 31T74 44T75 68V423Q75 437 74 445T68 459T57 469T37 480L12 494V502L173 524L179 522L178 459H179Q197 471 219 483T266 505T315 521T365 527Q437 527 467 494T497 393V68Q497
53 498 45T502 31T513 23T534 17L562 10V0H328V10L356 16Q368 19 375 21T386 29T391 44T392 68V375Q392 428 375 448T314 469Q268 469 235 460T179 442V68Q179 53 180 44T185 30T196 22T216 16L245 10V0H10V10Z" />
<glyph unicode="o" glyph-name="o" horiz-adv-x="546" d="M273 -10Q220 -10 175 6T95 56T42 139T22 256Q22 322 43 373T99 458T180 509T273 527Q325 527 371 511T451 461T504 378T524 261Q524 195 503 145T447 60T366 8T273 -10ZM277 10Q346 10 379 67T412 248Q412
317 403 366T377 446T333 491T271 506Q204 506 169 450T134 267Q134 129 169 70T277 10Z" />
<glyph unicode="p" glyph-name="p" horiz-adv-x="566" d="M7 -187L35 -180Q48 -177 55 -174T66 -165T71 -151T72 -128V421Q72 435 71 443T65 458T54 469T34 480L9 494V502L170 524L177 522L174 464H178Q209 487 250 507T343 527Q433 527 487 467T542 282Q542 211
522 157T464 65T375 9T260 -10Q217 -10 175 2V-18Q175 -27 175 -38T176 -63V-128Q176 -143 177 -152T183 -166T195 -174T217 -180L255 -187V-197H7V-187ZM275 10Q350 10 391 69T433 266Q433 372 395 421T290 471Q248 471 221 462T176 444V46Q214 10 275 10Z" />
<glyph unicode="q" glyph-name="q" horiz-adv-x="551" d="M310 -187L348 -180Q361 -177 369 -174T381 -166T386 -152T388 -128V-22V27Q388 38 389 48H387Q353 22 314 6T226 -10Q187 -10 151 2T86 44T41 121T24 237Q24 310 47 364T110 455T198 509T300 527Q348
527 382 518T449 488H452L485 527L492 524V-128Q492 -142 493 -151T497 -165T508 -173T529 -180L557 -187V-197H310V-187ZM280 40Q318 40 345 49T388 70V463Q374 481 350 493T293 505Q220 505 176 446T132 260Q132 145 171 93T280 40Z" />
<glyph unicode="r" glyph-name="r" horiz-adv-x="391" d="M10 10L38 17Q63 23 69 31T75 69V422Q75 436 74 444T69 458T58 468T37 480L12 494V502L173 524L179 520L178 448H180Q195 461 211 475T246 501T284 519T322 527Q353 527 369 511T386 466Q386 440 371 425T333
410Q310 410 300 421T281 447Q276 460 272 464T258 469Q245 469 223 457T179 428V69Q179 43 184 33T213 18L256 10V0H10V10Z" />
<glyph unicode="s" glyph-name="s" horiz-adv-x="392" d="M179 -10Q131 -10 93 -4T24 13L21 159H32Q44 134 53 114T74 77Q94 41 119 26T188 10Q233 10 259 35T285 103Q285 123 279 138T258 167T222 191T167 216Q133 229 107 244T62 279T35 321T26 376Q26 409 39
437T76 485T133 516T208 527Q247 527 280 521T339 504L342 378H331Q318 403 308 422T287 457Q270 482 251 494T197 506Q150 506 125 482T100 421Q100 383 129 360T220 312Q254 298 282 284T329 250T359 208T370 152Q370 118 358 89T321 37T261 3T179 -10Z" />
<glyph unicode="t" glyph-name="t" horiz-adv-x="312" d="M178 -10Q124 -10 93 16T62 99V475H4V484Q55 504 92 541T150 630H166V510H300L296 475H166V103Q166 66 182 52T233 37Q256 37 274 41T307 51V40Q290 24 257 7T178 -10Z" />
<glyph unicode="u" glyph-name="u" horiz-adv-x="561" d="M384 418Q384 433 383 442T379 457T368 467T348 479L322 494V502L483 524L488 521V94Q488 77 489 67T495 51T506 40T526 31L553 21V12L391 -10L385 -8V57H382Q345 32 299 11T197 -10Q136 -10 102 23T67
120V419Q67 434 66 442T61 457T50 467T31 479L5 494V502L165 524L171 521V140Q171 92 193 70T257 47Q293 47 326 56T384 76V418Z" />
<glyph unicode="v" glyph-name="v" horiz-adv-x="488" d="M59 425Q52 443 47 455T35 474T23 486T7 493L-13 500V510H221V500L196 494Q178 489 172 481T166 461Q166 448 169 436T178 409L285 118H288L391 402Q399 424 402 437T406 462Q406 474 398 481T373 493L348
500V510H502V500L487 495Q475 491 467 486T452 473T439 450T425 415L270 0H225L59 425Z" />
<glyph unicode="w" glyph-name="w" horiz-adv-x="743" d="M537 0H495L378 336H375L255 0H214L59 425Q52 444 46 456T35 475T23 487T8 493L-13 500V510H212V500L190 495Q172 490 167 483T162 464Q162 452 166 439T175 409L271 120H274L365 376L347 425Q340 444
335 456T324 475T312 487T296 494L277 500V510H497V500L473 494Q454 489 449 481T443 460Q443 448 446 436T454 408L550 122H554L648 405Q655 426 658 438T661 462Q661 484 629 493L604 500V510H756V500L742 495Q730 491 722 486T707 473T694 451T681 415L537 0Z"
/>
<glyph unicode="x" glyph-name="x" horiz-adv-x="516" d="M429 89Q442 68 451 56T469 35T486 23T506 14L518 10V0H282V10L306 15Q317 17 325 22T333 38Q333 48 326 61T308 91L221 223H218L145 106Q129 80 124 67T118 43Q118 23 150 14L167 10V0H-3V10L23 18Q35
22 44 26T62 38T80 58T101 88L204 244L91 421Q77 442 68 455T50 477T35 488T19 495L4 500V510H236V500L214 494Q202 491 195 486T188 470Q188 454 210 422L288 295H291L363 420Q369 432 373 443T378 465Q378 475 373 481T352 493L327 500V510H490V500L466 492Q446
486 431 470T392 416L305 275L429 89V89Z" />
<glyph unicode="y" glyph-name="y" horiz-adv-x="481" d="M385 403Q393 425 395 439T398 462Q398 484 366 493L342 500V510H495V500L479 494Q468 491 461 486T447 471T434 449T419 414L242 -54Q212 -132 176 -168T83 -204Q49 -204 29 -188T8 -146Q8 -123 21 -110T58
-97Q98 -97 106 -140Q109 -153 111 -160T125 -167Q142 -167 166 -144T210 -67L230 -10L58 425Q51 444 45 456T33 475T21 487T6 493L-13 500V510H219V500L193 493Q176 488 170 481T164 461Q164 449 168 436T177 409L280 127H284L385 403Z" />
<glyph unicode="z" glyph-name="z" horiz-adv-x="462" d="M18 21L321 484V488H211Q183 488 166 487T138 480T119 466T101 440Q90 424 80 404T56 356H46L53 510H440V492L136 26V22H237Q276 22 299 24T337 33T360 49T377 75Q389 95 400 117T422 166H432L421 0H18V21Z" />
<glyph unicode="{" glyph-name="braceleft" horiz-adv-x="298" d="M19 310Q57 314 82 320T121 336T142 357T148 383Q148 400 139 432T120 501T100 573T91 632Q91 662 102 681T138 711T199 727T288 734V723Q249 718 226 713T190 698T174 677T170 646Q170 619 175
586T187 519T199 456T205 404Q205 366 176 342T73 303V301Q147 287 176 262T205 198Q205 177 200 148T188 85T176 19T170 -42Q170 -60 173 -73T189 -94T225 -109T288 -120V-131Q236 -130 199 -125T137 -108T102 -78T91 -29Q91 -6 100 29T119 101T139 170T148 220Q148
234 142 246T122 267T82 283T19 294V310Z" />
<glyph unicode="|" glyph-name="bar" horiz-adv-x="177" d="M75 734H102V-130H75V734Z" />
<glyph unicode="}" glyph-name="braceright" horiz-adv-x="299" d="M279 294Q241 290 216 284T177 268T156 246T150 220Q150 203 159 171T178 102T198 30T207 -29Q207 -59 196 -78T161 -108T100 -124T10 -131V-120Q49 -115 72 -109T108 -95T124 -73T128 -42Q128
-15 123 18T111 85T99 147T93 198Q93 237 122 262T225 301V303Q152 317 123 341T93 404Q93 425 98 455T110 519T122 585T128 646Q128 664 125 676T109 698T73 712T10 723V734Q62 732 99 727T160 711T195 681T207 632Q207 609 198 574T179 502T159 433T150 383Q150
369 156 357T176 336T216 321T279 310V294Z" />
<glyph unicode="~" glyph-name="asciitilde" horiz-adv-x="345" d="M19 221Q30 246 40 267T61 304T86 328T120 337Q135 337 153 334T189 327T224 320T256 316Q278 316 290 329T314 363L326 358Q315 332 305 311T284 275T260 252T228 244Q190 244 154 254T89 265Q68
264 56 252T32 218L19 221Z" />
<glyph unicode="&#xa0;" glyph-name="uni00A0" horiz-adv-x="193" />
<glyph unicode="&#xa1;" glyph-name="exclamdown" horiz-adv-x="239" d="M113 421H127L184 3Q192 -42 174 -65T120 -88Q83 -88 65 -65T55 3L113 421ZM58 558Q58 584 76 602T119 620Q145 620 163 602T181 558Q181 532 163 514T119 496Q94 496 76 514T58 558Z" />
<glyph unicode="&#xa2;" glyph-name="cent" horiz-adv-x="464" d="M246 -12Q135 -9 77 54T19 234Q19 301 38 352T90 438T163 493T246 521V596H271V524Q276 524 282 524T293 525Q366 525 403 502T440 439Q440 415 428 402T387 388Q361 388 349 401T332 447Q326
478 316 489T275 501H271V43Q279 42 287 42T305 41Q339 41 374 50T437 76V64Q417 39 373 16T271 -11V-103H246V-12ZM131 276Q131 180 157 123T246 48V498Q194 487 163 433T131 276Z" />
<glyph unicode="&#xa3;" glyph-name="sterling" horiz-adv-x="504" d="M40 372H98Q89 408 82 442T75 503Q75 554 95 591T149 653T229 690T325 703Q393 703 433 682T474 617Q474 595 461 583T424 570Q395 570 382 584T363 634Q357 664 348 673T311 682Q290 682
270 674T234 648T209 600T199 528Q199 496 201 455T207 372H373V349H209Q211 325 212 303T213 263Q213 231 207 207T186 163T148 127T93 95V92H371Q387 92 397 94T415 104T432 128T455 171H466L443 0H16V66Q44 80 65 94T100 126T121 166T128 217Q128 245 121 279T104
349H40V372Z" />
<glyph unicode="&#xa5;" glyph-name="yen" horiz-adv-x="568" d="M68 328H226L71 604Q59 625 52 638T37 658T24 669T7 676L-13 682V693H255V682L222 675Q197 670 190 663T183 642Q183 627 199 595L330 352H333L440 585Q447 600 451 614T455 639Q455 654 447 662T417
675L385 682V693H565V682L548 676Q535 671 527 666T510 651T491 621T465 570L349 328H508V305H346V228H508V205H346V80Q346 61 347 50T352 33T365 24T388 18L426 11V0H149V11L189 18Q203 21 211 23T223 32T229 50T231 80V205H68V228H231V305H68V328Z" />
<glyph unicode="&#xa6;" glyph-name="brokenbar" horiz-adv-x="177" d="M75 254H102V-130H75V254ZM75 734H102V328H75V734Z" />
<glyph unicode="&#xa7;" glyph-name="section" horiz-adv-x="515" d="M395 39Q404 23 409 5T415 -38Q415 -73 401 -103T361 -155T300 -191T222 -204Q153 -204 116 -183T79 -125Q79 -105 91 -92T128 -78Q155 -78 166 -92T183 -136Q190 -164 201 -173T239 -183Q282
-183 309 -159T336 -89Q336 -63 328 -43T301 -2T252 44T177 104Q130 141 100 168T51 218T25 262T17 311Q17 361 45 395T121 457Q111 474 106 493T100 536Q100 570 114 600T153 653T214 689T293 702Q362 702 398 680T435 623Q435 603 423 590T386 576Q359 576 347
590T330 634Q324 662 313 671T276 681Q231 681 205 656T178 586Q178 560 186 540T213 500T262 454T337 394Q386 356 417 329T466 278T491 233T498 185Q498 137 470 102T395 39ZM384 54Q404 72 414 91T424 134Q424 153 416 170T389 207T343 250T276 306Q229 344
192 376T131 443Q111 425 101 406T91 363Q91 343 99 326T126 290T171 247T237 193Q285 154 323 122T384 54Z" />
<glyph unicode="&#xa8;" glyph-name="dieresis" horiz-adv-x="459" d="M88 642Q88 668 105 684T146 700Q171 700 188 684T205 642Q205 617 188 601T146 585Q122 585 105 601T88 642ZM253 642Q253 668 270 684T311 700Q336 700 353 684T370 642Q370 617 353 601T311
585Q287 585 270 601T253 642Z" />
<glyph unicode="&#xa9;" glyph-name="copyright" horiz-adv-x="766" d="M384 137Q345 137 311 149T251 186T210 250T195 342Q195 400 212 441T258 507T324 544T401 556Q436 556 464 552T511 542L517 423H503Q494 446 486 465T469 499Q458 520 441 527T394 535Q337
535 311 493T285 355Q285 247 310 202T388 157Q423 157 442 167T473 194Q484 213 491 230T506 274H519L512 162Q493 153 460 145T384 137ZM28 343Q28 417 55 482T131 595T244 672T383 700Q458 700 522 672T635 596T710 482T738 343Q738 269 711 204T635 91T523
15T383 -13Q309 -13 244 15T131 91T56 204T28 343ZM56 343Q56 275 81 215T151 110T255 39T383 12Q452 12 511 38T615 110T685 215T711 343Q711 411 686 471T616 577T512 648T383 674Q315 674 255 648T151 577T82 472T56 343Z" />
<glyph unicode="&#xaa;" glyph-name="ordfeminine" horiz-adv-x="389" d="M124 271Q73 271 45 297T17 369Q17 421 49 445T135 481L241 505V588Q241 610 239 627T229 656T209 674T174 680Q149 680 140 671T128 642Q126 613 115 599T79 585Q58 585 48 596T37 624Q37
656 75 677T187 699Q256 699 293 674T330 593V351Q330 334 333 325T347 310Q361 303 387 303V294Q377 286 356 279T309 272Q276 272 261 286T244 321H240Q225 301 195 286T124 271ZM165 310Q188 310 209 319T241 346V479L193 474Q150 469 128 449T106 386Q106 348
121 329T165 310Z" />
<glyph unicode="&#xab;" glyph-name="guillemotleft" horiz-adv-x="384" d="M32 245V260L201 449H217L116 253L217 56H201L32 245ZM180 245V260L348 449H364L263 253L364 56H348L180 245Z" />
<glyph unicode="&#xae;" glyph-name="registered" horiz-adv-x="372" d="M7 520Q7 557 20 590T58 647T114 686T185 700Q222 700 255 686T313 648T352 590T366 520Q366 482 352 450T313 393T255 354T185 340Q147 340 115 354T58 392T21 449T7 520ZM28 520Q28 487
40 458T73 407T123 373T185 360Q218 360 247 372T297 406T331 457T344 520Q344 553 332 582T298 633T247 668T185 681Q152 681 124 668T74 634T40 583T28 520ZM96 437L110 439Q115 441 116 444T118 457V589Q118 600 117 602T110 607L97 610V618H185Q225 618 243
606T261 568Q261 531 221 520V518Q230 500 241 482T264 449Q267 446 269 443T277 438L287 437V428H230Q216 446 205 468T185 509H161V457Q161 447 162 444T170 439L183 437V428H96V437ZM179 522Q201 522 210 533T219 565Q219 605 182 605Q181 605 178 605T171 604H161V522H179Z"
/>
<glyph unicode="&#xaf;" glyph-name="macron" horiz-adv-x="459" d="M117 650H343V605H117V650Z" />
<glyph unicode="&#xb0;" glyph-name="degree" horiz-adv-x="269" d="M15 583Q15 608 24 629T49 667T87 692T134 702Q159 702 181 693T219 667T244 630T253 583Q253 558 244 537T219 499T181 474T134 465Q109 465 87 474T49 499T24 536T15 583ZM41 583Q41 543 67
516T134 489Q175 489 201 516T228 583Q228 624 202 651T134 679Q93 679 67 652T41 583Z" />
<glyph unicode="&#xb2;" glyph-name="twosuperior" horiz-adv-x="271" d="M4 377Q18 388 30 397T53 417T75 438T101 463Q141 505 155 538T170 607Q170 681 120 681Q100 681 94 673T85 650Q81 604 44 604Q27 604 19 613T10 637Q10 663 41 681T124 700Q186 700 219
673T253 599Q253 571 240 547T202 499T140 451T56 400V397H199Q217 397 225 406T244 444H254L245 338H4V377Z" />
<glyph unicode="&#xb3;" glyph-name="threesuperior" horiz-adv-x="270" d="M108 332Q59 332 31 348T3 391Q3 405 12 413T36 422Q66 422 73 384Q77 365 83 358T111 351Q138 351 155 373T172 432Q172 469 157 490T97 511H79V532H100Q135 532 150 553T165 612Q165
651 152 666T117 681Q99 681 93 675T84 654Q80 631 72 621T46 610Q31 610 23 618T14 640Q14 665 41 682T120 700Q174 700 207 677T241 613Q241 579 217 556T149 527V524Q253 515 253 436Q253 417 245 399T219 365T174 341T108 332Z" />
<glyph unicode="&#xb4;" glyph-name="acute" horiz-adv-x="459" d="M129 581L242 688Q253 697 262 701T282 706Q301 706 314 693T327 659Q327 644 318 632T289 614L133 574L129 581Z" />
<glyph unicode="&#xb6;" glyph-name="paragraph" horiz-adv-x="482" d="M248 345Q241 344 235 344T218 343Q113 343 63 392T13 522Q13 600 64 646T213 693H468V681L434 674Q420 671 412 669T399 660T393 642T392 610V-100H360V665H280V-100H248V345Z" />
<glyph unicode="&#xb7;" glyph-name="periodcentered" horiz-adv-x="182" d="M27 337Q27 365 45 383T91 401Q117 401 136 383T155 337Q155 311 136 292T91 273Q64 273 46 292T27 337Z" />
<glyph unicode="&#xb8;" glyph-name="cedilla" horiz-adv-x="459" d="M146 -189Q193 -175 214 -160T235 -124Q235 -111 223 -102T185 -91L182 -87L223 0H249L223 -48Q258 -52 280 -66T302 -110Q302 -146 260 -169T146 -199V-189Z" />
<glyph unicode="&#xb9;" glyph-name="onesuperior" horiz-adv-x="193" d="M7 348L32 354Q47 358 51 364T56 391V618L7 626V635Q47 642 78 658T129 697L138 694V391Q138 370 143 364T162 354L185 348V338H7V348Z" />
<glyph unicode="&#xba;" glyph-name="ordmasculine" horiz-adv-x="420" d="M210 274Q169 274 134 286T72 325T30 392T14 486Q14 540 30 580T74 646T136 686T210 699Q251 699 286 687T348 649T390 584T406 490Q406 437 390 397T346 329T283 288T210 274ZM212 294Q263
294 287 337T311 481Q311 592 286 636T207 681Q156 681 133 639T109 498Q109 387 133 341T212 294Z" />
<glyph unicode="&#xbb;" glyph-name="guillemotright" horiz-adv-x="384" d="M183 56H167L268 253L167 449H183L352 260V245L183 56ZM36 56H20L121 253L20 449H36L204 260V245L36 56Z" />
<glyph unicode="&#xbc;" glyph-name="onequarter" horiz-adv-x="610" d="M422 10L447 16Q463 19 467 25T471 53V102H323V123L503 355H552V132H607L603 102H552V53Q552 32 555 26T575 16L600 10V0H422V10ZM471 132V282H470L355 132H471ZM7 348L32 354Q47 358 51
364T56 391V618L7 626V635Q47 642 78 658T129 697L138 694V391Q138 370 143 364T162 354L185 348V338H7V348ZM537 714H568L64 -50H33L537 714Z" />
<glyph unicode="&#xbd;" glyph-name="onehalf" horiz-adv-x="615" d="M348 39Q362 50 374 59T397 79T419 100T445 125Q485 167 499 200T514 269Q514 343 464 343Q444 343 438 335T429 312Q425 266 388 266Q371 266 363 275T354 299Q354 325 385 343T468 362Q530
362 563 335T597 261Q597 233 584 209T546 161T484 113T400 62V59H543Q561 59 569 68T588 106H598L589 0H348V39ZM7 348L32 354Q47 358 51 364T56 391V618L7 626V635Q47 642 78 658T129 697L138 694V391Q138 370 143 364T162 354L185 348V338H7V348ZM516 714H547L43
-50H12L516 714Z" />
<glyph unicode="&#xbe;" glyph-name="threequarters" horiz-adv-x="615" d="M426 10L451 16Q467 19 471 25T475 53V102H327V123L507 355H556V132H611L607 102H556V53Q556 32 559 26T579 16L604 10V0H426V10ZM475 132V282H474L359 132H475ZM552 714H583L79 -50H48L552
714ZM108 332Q59 332 31 348T3 391Q3 405 12 413T36 422Q66 422 73 384Q77 365 83 358T111 351Q138 351 155 373T172 432Q172 469 157 490T97 511H79V532H100Q135 532 150 553T165 612Q165 651 152 666T117 681Q99 681 93 675T84 654Q80 631 72 621T46 610Q31 610
23 618T14 640Q14 665 41 682T120 700Q174 700 207 677T241 613Q241 579 217 556T149 527V524Q253 515 253 436Q253 417 245 399T219 365T174 341T108 332Z" />
<glyph unicode="&#xbf;" glyph-name="questiondown" horiz-adv-x="405" d="M268 234Q238 224 210 209T158 173T121 122T107 56Q107 -1 139 -32T229 -64Q251 -64 258 -54T268 -21Q273 14 287 28T329 42Q354 42 365 29T377 -5Q377 -45 335 -65T229 -86Q135 -86 82
-38T29 95Q29 179 82 235T239 324V421H268V234ZM312 560Q312 534 294 517T250 499Q225 499 207 516T189 560Q189 586 207 604T250 622Q276 622 294 604T312 560Z" />
<glyph unicode="&#xc0;" glyph-name="Agrave" horiz-adv-x="620" d="M-10 11L7 16Q20 20 28 25T44 42T60 74T81 130L286 693H340L539 118Q549 89 557 71T572 41T588 24T607 16L628 11V0H363V11L386 16Q411 22 418 32T426 57Q426 68 422 85T413 115L369 251H155L116
137Q106 108 103 91T99 61Q99 43 108 33T141 17L168 11V0H-10V11ZM164 275H361L267 563H264L164 275ZM402 723L236 761Q195 770 195 806Q195 824 207 838T239 852Q258 852 277 835L405 731L402 723Z" />
<glyph unicode="&#xc1;" glyph-name="Aacute" horiz-adv-x="620" d="M-10 11L7 16Q20 20 28 25T44 42T60 74T81 130L286 693H340L539 118Q549 89 557 71T572 41T588 24T607 16L628 11V0H363V11L386 16Q411 22 418 32T426 57Q426 68 422 85T413 115L369 251H155L116
137Q106 108 103 91T99 61Q99 43 108 33T141 17L168 11V0H-10V11ZM164 275H361L267 563H264L164 275ZM220 735L348 840Q357 848 367 852T386 856Q406 856 418 842T430 810Q430 774 389 766L223 728L220 735Z" />
<glyph unicode="&#xc2;" glyph-name="Acircumflex" horiz-adv-x="620" d="M-10 11L7 16Q20 20 28 25T44 42T60 74T81 130L286 693H340L539 118Q549 89 557 71T572 41T588 24T607 16L628 11V0H363V11L386 16Q411 22 418 32T426 57Q426 68 422 85T413 115L369 251H155L116
137Q106 108 103 91T99 61Q99 43 108 33T141 17L168 11V0H-10V11ZM164 275H361L267 563H264L164 275ZM175 730L293 854H330L447 730L442 723L312 776L181 723L175 730Z" />
<glyph unicode="&#xc3;" glyph-name="Atilde" horiz-adv-x="620" d="M-10 11L7 16Q20 20 28 25T44 42T60 74T81 130L286 693H340L539 118Q549 89 557 71T572 41T588 24T607 16L628 11V0H363V11L386 16Q411 22 418 32T426 57Q426 68 422 85T413 115L369 251H155L116
137Q106 108 103 91T99 61Q99 43 108 33T141 17L168 11V0H-10V11ZM164 275H361L267 563H264L164 275ZM385 747Q368 747 350 750T312 758T275 767T240 771Q220 771 209 763T184 731L174 736Q191 784 209 813T263 842Q279 842 297 838T334 830T371 822T404 818Q424
818 437 827T465 859L475 854Q459 806 441 777T385 747Z" />
<glyph unicode="&#xc4;" glyph-name="Adieresis" horiz-adv-x="620" d="M-10 11L7 16Q20 20 28 25T44 42T60 74T81 130L286 693H340L539 118Q549 89 557 71T572 41T588 24T607 16L628 11V0H363V11L386 16Q411 22 418 32T426 57Q426 68 422 85T413 115L369 251H155L116
137Q106 108 103 91T99 61Q99 43 108 33T141 17L168 11V0H-10V11ZM164 275H361L267 563H264L164 275ZM224 730Q200 730 184 746T167 788Q167 812 183 828T224 844Q250 844 266 828T282 788Q282 762 266 746T224 730ZM401 730Q376 730 360 746T343 788Q343 812 359
828T401 844Q426 844 442 828T459 788Q459 762 443 746T401 730Z" />
<glyph unicode="&#xc5;" glyph-name="Aring" horiz-adv-x="620" d="M-10 11L7 16Q20 20 28 25T44 42T60 74T81 130L286 693H340L539 118Q549 89 557 71T572 41T588 24T607 16L628 11V0H363V11L386 16Q411 22 418 32T426 57Q426 68 422 85T413 115L369 251H155L116
137Q106 108 103 91T99 61Q99 43 108 33T141 17L168 11V0H-10V11ZM164 275H361L267 563H264L164 275ZM230 800Q230 835 254 857T314 880Q349 880 373 858T398 800Q398 766 374 744T314 721Q279 721 255 743T230 800ZM257 800Q257 776 272 759T314 742Q340 742 355
759T371 800Q371 824 356 841T314 859Q288 859 273 842T257 800Z" />
<glyph unicode="&#xc6;" glyph-name="AE" horiz-adv-x="876" d="M839 0H326V11L364 18Q377 21 385 24T397 33T402 50T403 80V243H200L136 122Q123 97 116 80T109 52Q109 38 119 31T152 17L177 11V0H-18V11L2 17Q20 23 32 29T54 47T76 78T105 127L394 658Q389 664
381 667T358 674L321 682V693H819L830 518H819Q805 550 793 576T770 620Q759 636 749 646T723 661T685 668T628 670Q591 670 565 668T517 661V371H574Q605 371 624 372T656 377T674 388T686 406Q693 420 698 438T710 480H721V240H710Q705 262 699 281T686 314Q681
325 675 332T656 342T625 347T574 348H517V103Q517 74 519 58T534 35T570 25T639 23Q676 23 698 25T735 33T759 49T780 74Q798 100 812 136T841 210H853L839 0ZM212 267H403V614V623H401L212 267Z" />
<glyph unicode="&#xc7;" glyph-name="Ccedilla" horiz-adv-x="596" d="M333 -10Q266 -10 210 10T112 72T48 181T25 341Q25 441 53 510T129 622T238 684T367 703Q425 703 469 696T546 680L559 493H547Q532 525 520 551T490 606Q477 629 464 643T436 666T402 678T357
681Q311 681 272 663T205 606T162 506T146 360Q146 268 158 202T195 94T256 32T339 12Q373 12 397 15T440 28T471 52T498 92Q512 118 525 149T552 212H564L552 27Q516 12 462 1T333 -10ZM206 -189Q253 -175 274 -160T295 -124Q295 -111 283 -102T245 -91L242 -87L283
0H309L283 -48Q318 -52 340 -66T362 -110Q362 -146 320 -169T206 -199V-189Z" />
<glyph unicode="&#xc8;" glyph-name="Egrave" horiz-adv-x="564" d="M380 723L214 761Q173 770 173 806Q173 824 185 838T217 852Q236 852 255 835L383 731L380 723ZM408 240H397Q392 262 386 281T373 314Q368 325 362 332T344 342T313 347T262 348H204V103Q204
74 206 58T221 35T258 25T327 23Q363 23 385 25T422 33T447 49T468 74Q485 100 500 136T529 210H541L527 0H12V11L49 18Q62 21 70 24T82 33T87 50T89 80V613Q89 632 88 643T83 660T70 669T49 675L12 682V693H507L518 518H507Q493 550 481 576T458 620Q447 636 437
646T411 661T373 668T316 670Q278 670 252 668T204 661V371H262Q293 371 312 372T343 377T361 388T373 406Q381 420 386 438T397 480H408V240Z" />
<glyph unicode="&#xc9;" glyph-name="Eacute" horiz-adv-x="564" d="M207 735L335 840Q344 848 354 852T373 856Q393 856 405 842T417 810Q417 774 376 766L210 728L207 735ZM408 240H397Q392 262 386 281T373 314Q368 325 362 332T344 342T313 347T262 348H204V103Q204
74 206 58T221 35T258 25T327 23Q363 23 385 25T422 33T447 49T468 74Q485 100 500 136T529 210H541L527 0H12V11L49 18Q62 21 70 24T82 33T87 50T89 80V613Q89 632 88 643T83 660T70 669T49 675L12 682V693H507L518 518H507Q493 550 481 576T458 620Q447 636 437
646T411 661T373 668T316 670Q278 670 252 668T204 661V371H262Q293 371 312 372T343 377T361 388T373 406Q381 420 386 438T397 480H408V240Z" />
<glyph unicode="&#xca;" glyph-name="Ecircumflex" horiz-adv-x="564" d="M161 730L279 854H316L433 730L428 723L298 776L167 723L161 730ZM408 240H397Q392 262 386 281T373 314Q368 325 362 332T344 342T313 347T262 348H204V103Q204 74 206 58T221 35T258
25T327 23Q363 23 385 25T422 33T447 49T468 74Q485 100 500 136T529 210H541L527 0H12V11L49 18Q62 21 70 24T82 33T87 50T89 80V613Q89 632 88 643T83 660T70 669T49 675L12 682V693H507L518 518H507Q493 550 481 576T458 620Q447 636 437 646T411 661T373 668T316
670Q278 670 252 668T204 661V371H262Q293 371 312 372T343 377T361 388T373 406Q381 420 386 438T397 480H408V240Z" />
<glyph unicode="&#xcb;" glyph-name="Edieresis" horiz-adv-x="564" d="M408 240H397Q392 262 386 281T373 314Q368 325 362 332T344 342T313 347T262 348H204V103Q204 74 206 58T221 35T258 25T327 23Q363 23 385 25T422 33T447 49T468 74Q485 100 500 136T529
210H541L527 0H12V11L49 18Q62 21 70 24T82 33T87 50T89 80V613Q89 632 88 643T83 660T70 669T49 675L12 682V693H507L518 518H507Q493 550 481 576T458 620Q447 636 437 646T411 661T373 668T316 670Q278 670 252 668T204 661V371H262Q293 371 312 372T343 377T361
388T373 406Q381 420 386 438T397 480H408V240ZM205 730Q181 730 165 746T148 788Q148 812 164 828T205 844Q231 844 247 828T263 788Q263 762 247 746T205 730ZM382 730Q357 730 341 746T324 788Q324 812 340 828T382 844Q407 844 423 828T440 788Q440 762 424
746T382 730Z" />
<glyph unicode="&#xcc;" glyph-name="Igrave" horiz-adv-x="294" d="M12 11L50 18Q63 21 71 23T83 32T89 50T90 80V613Q90 632 89 643T84 660T71 669T50 675L12 682V693H282V682L245 675Q231 672 223 670T211 661T205 643T204 613V80Q204 61 205 50T210 33T223
24T245 18L282 11V0H12V11ZM494 723L328 761Q287 770 287 806Q287 824 299 838T331 852Q350 852 369 835L497 731L494 723Z" />
<glyph unicode="&#xcd;" glyph-name="Iacute" horiz-adv-x="294" d="M12 11L50 18Q63 21 71 23T83 32T89 50T90 80V613Q90 632 89 643T84 660T71 669T50 675L12 682V693H282V682L245 675Q231 672 223 670T211 661T205 643T204 613V80Q204 61 205 50T210 33T223
24T245 18L282 11V0H12V11ZM311 735L439 840Q448 848 458 852T477 856Q497 856 509 842T521 810Q521 774 480 766L314 728L311 735Z" />
<glyph unicode="&#xce;" glyph-name="Icircumflex" horiz-adv-x="294" d="M12 11L50 18Q63 21 71 23T83 32T89 50T90 80V613Q90 632 89 643T84 660T71 669T50 675L12 682V693H282V682L245 675Q231 672 223 670T211 661T205 643T204 613V80Q204 61 205 50T210 33T223
24T245 18L282 11V0H12V11ZM268 730L386 854H423L540 730L535 723L405 776L274 723L268 730Z" />
<glyph unicode="&#xcf;" glyph-name="Idieresis" horiz-adv-x="294" d="M12 11L50 18Q63 21 71 23T83 32T89 50T90 80V613Q90 632 89 643T84 660T71 669T50 675L12 682V693H282V682L245 675Q231 672 223 670T211 661T205 643T204 613V80Q204 61 205 50T210 33T223
24T245 18L282 11V0H12V11ZM314 730Q290 730 274 746T257 788Q257 812 273 828T314 844Q340 844 356 828T372 788Q372 762 356 746T314 730ZM491 730Q466 730 450 746T433 788Q433 812 449 828T491 844Q516 844 532 828T549 788Q549 762 533 746T491 730Z" />
<glyph unicode="&#xd0;" glyph-name="Eth" horiz-adv-x="677" d="M17 364H89V613Q89 632 88 643T83 660T70 669T49 675L12 682V693H318Q388 693 449 676T555 619T626 514T652 354Q652 266 627 200T557 90T449 23T311 0H12V11L49 18Q62 21 70 23T82 32T88 50T89
80V340H17V364ZM304 23Q370 23 413 46T483 110T520 208T531 334Q531 422 519 485T479 590T408 650T302 670Q238 670 204 661V364H383V340H204V99Q204 75 207 61T220 38T251 26T304 23Z" />
<glyph unicode="&#xd1;" glyph-name="Ntilde" horiz-adv-x="653" d="M416 747Q399 747 381 750T343 758T306 767T271 771Q251 771 240 763T215 731L205 736Q222 784 240 813T294 842Q310 842 328 838T365 830T402 822T435 818Q455 818 468 827T496 859L506 854Q490
806 472 777T416 747ZM120 620H117V99Q117 76 118 63T123 41T136 28T159 20L198 11V0H12V11L50 20Q62 23 69 27T81 40T87 61T89 98V613Q89 647 81 658T49 675L14 682V693H206L536 187H539V594Q539 616 538 630T533 652T520 665T498 673L455 682V693H642V682L606
673Q594 670 586 665T574 652T569 631T567 596V-4H528L120 620Z" />
<glyph unicode="&#xd2;" glyph-name="Ograve" horiz-adv-x="681" d="M435 723L269 761Q228 770 228 806Q228 824 240 838T272 852Q291 852 310 835L438 731L435 723ZM338 -10Q271 -10 214 11T115 76T49 184T25 337Q25 436 52 505T124 619T226 683T343 703Q410
703 467 682T566 616T632 506T656 351Q656 252 629 184T557 72T455 10T338 -10ZM340 12Q441 12 488 90T535 334Q535 416 524 480T489 589T429 657T341 681Q240 681 193 601T146 354Q146 183 195 98T340 12Z" />
<glyph unicode="&#xd3;" glyph-name="Oacute" horiz-adv-x="681" d="M249 735L377 840Q386 848 396 852T415 856Q435 856 447 842T459 810Q459 774 418 766L252 728L249 735ZM338 -10Q271 -10 214 11T115 76T49 184T25 337Q25 436 52 505T124 619T226 683T343
703Q410 703 467 682T566 616T632 506T656 351Q656 252 629 184T557 72T455 10T338 -10ZM340 12Q441 12 488 90T535 334Q535 416 524 480T489 589T429 657T341 681Q240 681 193 601T146 354Q146 183 195 98T340 12Z" />
<glyph unicode="&#xd4;" glyph-name="Ocircumflex" horiz-adv-x="681" d="M204 730L322 854H359L476 730L471 723L341 776L210 723L204 730ZM338 -10Q271 -10 214 11T115 76T49 184T25 337Q25 436 52 505T124 619T226 683T343 703Q410 703 467 682T566 616T632
506T656 351Q656 252 629 184T557 72T455 10T338 -10ZM340 12Q441 12 488 90T535 334Q535 416 524 480T489 589T429 657T341 681Q240 681 193 601T146 354Q146 183 195 98T340 12Z" />
<glyph unicode="&#xd5;" glyph-name="Otilde" horiz-adv-x="681" d="M410 747Q393 747 375 750T337 758T300 767T265 771Q245 771 234 763T209 731L199 736Q216 784 234 813T288 842Q304 842 322 838T359 830T396 822T429 818Q449 818 462 827T490 859L500 854Q484
806 466 777T410 747ZM338 -10Q271 -10 214 11T115 76T49 184T25 337Q25 436 52 505T124 619T226 683T343 703Q410 703 467 682T566 616T632 506T656 351Q656 252 629 184T557 72T455 10T338 -10ZM340 12Q441 12 488 90T535 334Q535 416 524 480T489 589T429 657T341
681Q240 681 193 601T146 354Q146 183 195 98T340 12Z" />
<glyph unicode="&#xd6;" glyph-name="Odieresis" horiz-adv-x="681" d="M251 730Q227 730 211 746T194 788Q194 812 210 828T251 844Q277 844 293 828T309 788Q309 762 293 746T251 730ZM428 730Q403 730 387 746T370 788Q370 812 386 828T428 844Q453 844 469
828T486 788Q486 762 470 746T428 730ZM338 -10Q271 -10 214 11T115 76T49 184T25 337Q25 436 52 505T124 619T226 683T343 703Q410 703 467 682T566 616T632 506T656 351Q656 252 629 184T557 72T455 10T338 -10ZM340 12Q441 12 488 90T535 334Q535 416 524 480T489
589T429 657T341 681Q240 681 193 601T146 354Q146 183 195 98T340 12Z" />
<glyph unicode="&#xd7;" glyph-name="multiply" horiz-adv-x="425" d="M379 490L231 334L378 179L359 159L213 314L67 159L47 179L193 334L47 490L66 509L213 354L360 509L379 490Z" />
<glyph unicode="&#xd8;" glyph-name="Oslash" horiz-adv-x="681" d="M338 -10Q288 -10 244 1T162 37L102 -57H73L142 51Q88 93 57 164T25 337Q25 436 52 505T124 619T226 683T343 703Q396 703 443 690T528 649L580 730H609L547 634Q598 590 627 520T656 351Q656
252 629 184T557 72T455 10T338 -10ZM145 354Q145 200 185 117L489 589Q465 634 429 657T341 681Q240 681 193 601T145 354ZM340 12Q441 12 488 90T536 334Q536 405 528 462T501 563L198 92Q248 12 340 12Z" />
<glyph unicode="&#xd9;" glyph-name="Ugrave" horiz-adv-x="665" d="M448 723L282 761Q241 770 241 806Q241 824 253 838T285 852Q304 852 323 835L451 731L448 723ZM342 -10Q281 -10 233 2T152 41T101 112T83 219V613Q83 632 82 643T77 660T64 669T43 675L5 682V693H274V682L238
675Q224 672 216 669T204 660T198 643T197 613V213Q197 118 241 76T378 33Q469 33 508 80T548 219V594Q548 615 547 629T542 651T530 665T507 673L461 682V693H660V682L621 673Q597 668 590 653T583 596V209Q583 163 570 123T529 54T454 7T342 -10Z" />
<glyph unicode="&#xda;" glyph-name="Uacute" horiz-adv-x="665" d="M273 735L401 840Q410 848 420 852T439 856Q459 856 471 842T483 810Q483 774 442 766L276 728L273 735ZM342 -10Q281 -10 233 2T152 41T101 112T83 219V613Q83 632 82 643T77 660T64 669T43
675L5 682V693H274V682L238 675Q224 672 216 669T204 660T198 643T197 613V213Q197 118 241 76T378 33Q469 33 508 80T548 219V594Q548 615 547 629T542 651T530 665T507 673L461 682V693H660V682L621 673Q597 668 590 653T583 596V209Q583 163 570 123T529 54T454
7T342 -10Z" />
<glyph unicode="&#xdb;" glyph-name="Ucircumflex" horiz-adv-x="665" d="M221 730L339 854H376L493 730L488 723L358 776L227 723L221 730ZM342 -10Q281 -10 233 2T152 41T101 112T83 219V613Q83 632 82 643T77 660T64 669T43 675L5 682V693H274V682L238 675Q224
672 216 669T204 660T198 643T197 613V213Q197 118 241 76T378 33Q469 33 508 80T548 219V594Q548 615 547 629T542 651T530 665T507 673L461 682V693H660V682L621 673Q597 668 590 653T583 596V209Q583 163 570 123T529 54T454 7T342 -10Z" />
<glyph unicode="&#xdc;" glyph-name="Udieresis" horiz-adv-x="665" d="M342 -10Q281 -10 233 2T152 41T101 112T83 219V613Q83 632 82 643T77 660T64 669T43 675L5 682V693H274V682L238 675Q224 672 216 669T204 660T198 643T197 613V213Q197 118 241 76T378
33Q469 33 508 80T548 219V594Q548 615 547 629T542 651T530 665T507 673L461 682V693H660V682L621 673Q597 668 590 653T583 596V209Q583 163 570 123T529 54T454 7T342 -10ZM267 730Q243 730 227 746T210 788Q210 812 226 828T267 844Q293 844 309 828T325 788Q325
762 309 746T267 730ZM444 730Q419 730 403 746T386 788Q386 812 402 828T444 844Q469 844 485 828T502 788Q502 762 486 746T444 730Z" />
<glyph unicode="&#xdd;" glyph-name="Yacute" horiz-adv-x="585" d="M166 11L206 18Q220 21 228 23T240 32T246 50T248 80V286L69 604Q57 625 50 637T36 657T23 669T6 676L-15 682V693H257V682L223 675Q198 670 191 663T184 642Q184 634 187 623T200 595L347 323H350L474
585Q481 600 485 614T489 639Q489 652 481 661T451 675L419 682V693H599V682L580 675Q568 671 559 666T542 651T525 623T500 575L363 288V80Q363 61 364 50T369 33T382 24T405 18L443 11V0H166V11ZM237 735L365 840Q374 848 384 852T403 856Q423 856 435 842T447
810Q447 774 406 766L240 728L237 735Z" />
<glyph unicode="&#xde;" glyph-name="Thorn" horiz-adv-x="555" d="M282 693V682L245 675Q230 672 222 669T210 660T205 642T204 613V553H296Q421 553 483 509T546 373Q546 329 531 292T486 228T411 186T306 171Q284 171 264 173T233 180V191Q284 190 320 198T380
227T414 281T425 362Q425 455 393 492T287 529Q258 529 239 527T204 521V80Q204 62 205 51T210 34T223 24T246 19L291 11V0H12V11L49 18Q62 21 70 23T82 32T87 49T89 80V613Q89 632 88 643T82 661T70 669T49 675L12 682V693H282Z" />
<glyph unicode="&#xdf;" glyph-name="germandbls" horiz-adv-x="569" d="M384 -8Q318 -8 283 13T248 66Q248 86 259 98T293 110Q317 110 327 97T344 52Q347 36 355 24T389 11Q427 11 449 34T472 97Q472 133 448 160T376 219Q345 239 325 255T293 287T277 317T272
352Q272 383 289 413T327 475T365 543T382 626Q382 675 362 705T291 735Q234 735 207 698T179 593V66Q179 51 180 42T184 28T194 21T212 16L235 10V0H10V10L38 17Q51 20 58 23T69 31T74 45T75 68V475H9V483L75 511V530Q75 595 96 638T150 708T224 746T307 757Q388
757 431 723T474 635Q474 596 450 564T397 504T344 452T320 406Q320 396 323 388T338 369T370 344T423 308Q456 287 480 269T521 231T546 190T554 141Q554 111 543 84T509 36T456 4T384 -8Z" />
<glyph unicode="&#xe0;" glyph-name="agrave" horiz-adv-x="478" d="M165 -13Q97 -13 58 19T19 110Q19 144 32 167T67 205T116 230T172 247L304 280V389Q304 417 302 438T291 475T265 498T217 506Q183 506 172 496T156 460Q152 421 139 406T99 391Q74 391 61 403T48
438Q48 462 64 478T107 506T167 522T235 527Q326 527 367 494T408 395V85Q408 62 413 51T428 33Q439 25 452 23T480 20V12Q469 4 446 -4T394 -12Q318 -12 309 51H306Q285 25 249 6T165 -13ZM210 33Q245 33 268 45T304 74V251L246 241Q216 236 194 228T156 207T133
175T125 128Q125 83 146 58T210 33ZM568 574L412 614Q392 619 383 631T374 659Q374 679 387 692T419 706Q430 706 439 702T458 688L572 581L568 574Z" />
<glyph unicode="&#xe1;" glyph-name="aacute" horiz-adv-x="478" d="M165 -13Q97 -13 58 19T19 110Q19 144 32 167T67 205T116 230T172 247L304 280V389Q304 417 302 438T291 475T265 498T217 506Q183 506 172 496T156 460Q152 421 139 406T99 391Q74 391 61 403T48
438Q48 462 64 478T107 506T167 522T235 527Q326 527 367 494T408 395V85Q408 62 413 51T428 33Q439 25 452 23T480 20V12Q469 4 446 -4T394 -12Q318 -12 309 51H306Q285 25 249 6T165 -13ZM210 33Q245 33 268 45T304 74V251L246 241Q216 236 194 228T156 207T133
175T125 128Q125 83 146 58T210 33ZM146 581L259 688Q270 697 279 701T299 706Q318 706 331 693T344 659Q344 644 335 632T306 614L150 574L146 581Z" />
<glyph unicode="&#xe2;" glyph-name="acircumflex" horiz-adv-x="478" d="M165 -13Q97 -13 58 19T19 110Q19 144 32 167T67 205T116 230T172 247L304 280V389Q304 417 302 438T291 475T265 498T217 506Q183 506 172 496T156 460Q152 421 139 406T99 391Q74 391
61 403T48 438Q48 462 64 478T107 506T167 522T235 527Q326 527 367 494T408 395V85Q408 62 413 51T428 33Q439 25 452 23T480 20V12Q469 4 446 -4T394 -12Q318 -12 309 51H306Q285 25 249 6T165 -13ZM210 33Q245 33 268 45T304 74V251L246 241Q216 236 194 228T156
207T133 175T125 128Q125 83 146 58T210 33ZM247 712L353 577L348 570L229 632L111 570L106 577L211 712H247Z" />
<glyph unicode="&#xe3;" glyph-name="atilde" horiz-adv-x="478" d="M165 -13Q97 -13 58 19T19 110Q19 144 32 167T67 205T116 230T172 247L304 280V389Q304 417 302 438T291 475T265 498T217 506Q183 506 172 496T156 460Q152 421 139 406T99 391Q74 391 61 403T48
438Q48 462 64 478T107 506T167 522T235 527Q326 527 367 494T408 395V85Q408 62 413 51T428 33Q439 25 452 23T480 20V12Q469 4 446 -4T394 -12Q318 -12 309 51H306Q285 25 249 6T165 -13ZM210 33Q245 33 268 45T304 74V251L246 241Q216 236 194 228T156 207T133
175T125 128Q125 83 146 58T210 33ZM105 581Q114 605 122 624T139 658T161 679T190 687Q203 687 219 684T252 678T283 672T310 669Q333 669 344 678T368 708L378 704Q369 680 362 661T344 628T322 607T290 599Q262 599 229 607T170 616Q148 616 137 607T115 577L105
581Z" />
<glyph unicode="&#xe4;" glyph-name="adieresis" horiz-adv-x="478" d="M165 -13Q97 -13 58 19T19 110Q19 144 32 167T67 205T116 230T172 247L304 280V389Q304 417 302 438T291 475T265 498T217 506Q183 506 172 496T156 460Q152 421 139 406T99 391Q74 391 61
403T48 438Q48 462 64 478T107 506T167 522T235 527Q326 527 367 494T408 395V85Q408 62 413 51T428 33Q439 25 452 23T480 20V12Q469 4 446 -4T394 -12Q318 -12 309 51H306Q285 25 249 6T165 -13ZM210 33Q245 33 268 45T304 74V251L246 241Q216 236 194 228T156
207T133 175T125 128Q125 83 146 58T210 33ZM342 642Q342 668 359 684T400 700Q425 700 442 684T459 642Q459 617 442 601T400 585Q376 585 359 601T342 642ZM507 642Q507 668 524 684T565 700Q590 700 607 684T624 642Q624 617 607 601T565 585Q541 585 524 601T507
642Z" />
<glyph unicode="&#xe5;" glyph-name="aring" horiz-adv-x="478" d="M165 -13Q97 -13 58 19T19 110Q19 144 32 167T67 205T116 230T172 247L304 280V389Q304 417 302 438T291 475T265 498T217 506Q183 506 172 496T156 460Q152 421 139 406T99 391Q74 391 61 403T48
438Q48 462 64 478T107 506T167 522T235 527Q326 527 367 494T408 395V85Q408 62 413 51T428 33Q439 25 452 23T480 20V12Q469 4 446 -4T394 -12Q318 -12 309 51H306Q285 25 249 6T165 -13ZM210 33Q245 33 268 45T304 74V251L246 241Q216 236 194 228T156 207T133
175T125 128Q125 83 146 58T210 33ZM401 909Q401 944 425 967T485 990Q520 990 544 967T569 909Q569 875 545 853T485 830Q450 830 426 852T401 909ZM428 909Q428 885 443 868T485 851Q511 851 526 868T542 909Q542 934 527 951T485 969Q459 969 444 952T428 909Z"
/>
<glyph unicode="&#xe6;" glyph-name="ae" horiz-adv-x="756" d="M341 83Q309 33 267 10T165 -13Q97 -13 58 20T19 111Q19 147 32 171T67 211T116 236T172 254L304 286V389Q304 417 302 438T291 475T265 498T217 506Q183 506 172 496T156 460Q152 421 139 406T99
391Q74 391 61 403T48 438Q48 462 64 478T107 506T165 522T230 527Q293 527 329 509T379 456Q408 490 447 508T534 527Q632 527 685 468T737 278H408Q409 153 451 99T574 44Q622 44 659 53T725 80V67Q698 37 651 13T534 -12Q463 -12 416 12T343 83H341ZM527 506Q501
506 480 495T443 459T418 394T408 297L627 307Q627 412 605 459T527 506ZM213 33Q257 33 286 53T333 102Q318 134 311 172T304 256L247 247Q181 237 153 211T125 130Q125 83 147 58T213 33Z" />
<glyph unicode="&#xe7;" glyph-name="ccedilla" horiz-adv-x="451" d="M251 -12Q145 -12 84 54T22 240Q22 315 47 369T111 458T196 510T287 527Q359 527 396 503T434 438Q434 414 421 401T379 387Q352 387 341 401T324 448Q321 463 318 473T310 490T295 500T270
503Q243 503 218 489T173 447T142 377T130 277Q130 42 302 42Q372 42 431 76V64Q420 51 403 38T362 13T311 -5T251 -12ZM383 -189Q430 -175 451 -160T472 -124Q472 -111 460 -102T422 -91L419 -87L460 0H486L460 -48Q495 -52 517 -66T539 -110Q539 -146 497 -169T383
-199V-189Z" />
<glyph unicode="&#xe8;" glyph-name="egrave" horiz-adv-x="487" d="M270 -12Q205 -12 159 6T81 59T36 142T21 252Q21 314 40 364T93 451T170 507T264 527Q359 527 413 471T467 290H129V282Q129 218 141 173T175 100T231 58T307 44Q352 44 388 53T454 80V67Q427
37 380 13T270 -12ZM260 506Q205 506 170 460T129 309L360 318Q360 417 338 461T260 506ZM341 574L185 614Q165 619 156 631T147 659Q147 679 160 692T192 706Q203 706 212 702T231 688L345 581L341 574Z" />
<glyph unicode="&#xe9;" glyph-name="eacute" horiz-adv-x="487" d="M177 581L290 688Q301 697 310 701T330 706Q349 706 362 693T375 659Q375 644 366 632T337 614L181 574L177 581ZM270 -12Q205 -12 159 6T81 59T36 142T21 252Q21 314 40 364T93 451T170 507T264
527Q359 527 413 471T467 290H129V282Q129 218 141 173T175 100T231 58T307 44Q352 44 388 53T454 80V67Q427 37 380 13T270 -12ZM260 506Q205 506 170 460T129 309L360 318Q360 417 338 461T260 506Z" />
<glyph unicode="&#xea;" glyph-name="ecircumflex" horiz-adv-x="487" d="M274 712L380 577L375 570L256 632L138 570L133 577L238 712H274ZM270 -12Q205 -12 159 6T81 59T36 142T21 252Q21 314 40 364T93 451T170 507T264 527Q359 527 413 471T467 290H129V282Q129
218 141 173T175 100T231 58T307 44Q352 44 388 53T454 80V67Q427 37 380 13T270 -12ZM260 506Q205 506 170 460T129 309L360 318Q360 417 338 461T260 506Z" />
<glyph unicode="&#xeb;" glyph-name="edieresis" horiz-adv-x="487" d="M119 642Q119 668 136 684T177 700Q202 700 219 684T236 642Q236 617 219 601T177 585Q153 585 136 601T119 642ZM284 642Q284 668 301 684T342 700Q367 700 384 684T401 642Q401 617 384
601T342 585Q318 585 301 601T284 642ZM270 -12Q205 -12 159 6T81 59T36 142T21 252Q21 314 40 364T93 451T170 507T264 527Q359 527 413 471T467 290H129V282Q129 218 141 173T175 100T231 58T307 44Q352 44 388 53T454 80V67Q427 37 380 13T270 -12ZM260 506Q205
506 170 460T129 309L360 318Q360 417 338 461T260 506Z" />
<glyph unicode="&#xec;" glyph-name="igrave" horiz-adv-x="253" d="M10 10L38 17Q51 20 58 23T69 31T74 44T75 68V422Q75 436 74 444T68 458T57 468T36 479L10 494V502L178 524L183 522Q182 509 181 482T179 406V68Q179 39 186 31T219 17L245 10V0H10V10ZM463
574L307 614Q287 619 278 631T269 659Q269 679 282 692T314 706Q325 706 334 702T353 688L467 581L463 574Z" />
<glyph unicode="&#xed;" glyph-name="iacute" horiz-adv-x="253" d="M288 581L401 688Q412 697 421 701T441 706Q460 706 473 693T486 659Q486 644 477 632T448 614L292 574L288 581ZM10 10L38 17Q51 20 58 23T69 31T74 44T75 68V422Q75 436 74 444T68 458T57
468T36 479L10 494V502L178 524L183 522Q182 509 181 482T179 406V68Q179 39 186 31T219 17L245 10V0H10V10Z" />
<glyph unicode="&#xee;" glyph-name="icircumflex" horiz-adv-x="253" d="M397 712L503 577L498 570L379 632L261 570L256 577L361 712H397ZM10 10L38 17Q51 20 58 23T69 31T74 44T75 68V422Q75 436 74 444T68 458T57 468T36 479L10 494V502L178 524L183 522Q182
509 181 482T179 406V68Q179 39 186 31T219 17L245 10V0H10V10Z" />
<glyph unicode="&#xef;" glyph-name="idieresis" horiz-adv-x="253" d="M241 642Q241 668 258 684T299 700Q324 700 341 684T358 642Q358 617 341 601T299 585Q275 585 258 601T241 642ZM406 642Q406 668 423 684T464 700Q489 700 506 684T523 642Q523 617 506
601T464 585Q440 585 423 601T406 642ZM10 10L38 17Q51 20 58 23T69 31T74 44T75 68V422Q75 436 74 444T68 458T57 468T36 479L10 494V502L178 524L183 522Q182 509 181 482T179 406V68Q179 39 186 31T219 17L245 10V0H10V10Z" />
<glyph unicode="&#xf0;" glyph-name="eth" horiz-adv-x="544" d="M128 610L247 665Q218 689 185 711T115 750L119 762Q215 729 289 684L410 740L418 720L311 671Q411 605 466 512T521 293Q521 207 500 149T443 56T364 5T273 -10Q220 -10 174 6T95 56T42 140T22
257Q22 323 43 373T100 458T179 509T271 527Q302 527 329 517T373 490Q364 525 336 567T264 649L137 591L128 610ZM276 10Q343 10 375 67T408 249Q408 386 374 446T271 506Q204 506 170 449T136 266Q136 129 171 70T276 10Z" />
<glyph unicode="&#xf1;" glyph-name="ntilde" horiz-adv-x="565" d="M10 10L38 17Q51 20 58 23T69 31T74 44T75 68V423Q75 437 74 445T68 459T57 469T37 480L12 494V502L173 524L179 522L178 459H179Q197 471 219 483T266 505T315 521T365 527Q437 527 467 494T497
393V68Q497 53 498 45T502 31T513 23T534 17L562 10V0H328V10L356 16Q368 19 375 21T386 29T391 44T392 68V375Q392 428 375 448T314 469Q268 469 235 460T179 442V68Q179 53 180 44T185 30T196 22T216 16L245 10V0H10V10ZM162 581Q171 605 179 624T196 658T218
679T247 687Q260 687 276 684T309 678T340 672T367 669Q390 669 401 678T425 708L435 704Q426 680 419 661T401 628T379 607T347 599Q319 599 286 607T227 616Q205 616 194 607T172 577L162 581Z" />
<glyph unicode="&#xf2;" glyph-name="ograve" horiz-adv-x="546" d="M273 -10Q220 -10 175 6T95 56T42 139T22 256Q22 322 43 373T99 458T180 509T273 527Q325 527 371 511T451 461T504 378T524 261Q524 195 503 145T447 60T366 8T273 -10ZM277 10Q346 10 379
67T412 248Q412 317 403 366T377 446T333 491T271 506Q204 506 169 450T134 267Q134 129 169 70T277 10ZM351 574L195 614Q175 619 166 631T157 659Q157 679 170 692T202 706Q213 706 222 702T241 688L355 581L351 574Z" />
<glyph unicode="&#xf3;" glyph-name="oacute" horiz-adv-x="546" d="M186 581L299 688Q310 697 319 701T339 706Q358 706 371 693T384 659Q384 644 375 632T346 614L190 574L186 581ZM273 -10Q220 -10 175 6T95 56T42 139T22 256Q22 322 43 373T99 458T180 509T273
527Q325 527 371 511T451 461T504 378T524 261Q524 195 503 145T447 60T366 8T273 -10ZM277 10Q346 10 379 67T412 248Q412 317 403 366T377 446T333 491T271 506Q204 506 169 450T134 267Q134 129 169 70T277 10Z" />
<glyph unicode="&#xf4;" glyph-name="ocircumflex" horiz-adv-x="546" d="M289 712L395 577L390 570L271 632L153 570L148 577L253 712H289ZM273 -10Q220 -10 175 6T95 56T42 139T22 256Q22 322 43 373T99 458T180 509T273 527Q325 527 371 511T451 461T504 378T524
261Q524 195 503 145T447 60T366 8T273 -10ZM277 10Q346 10 379 67T412 248Q412 317 403 366T377 446T333 491T271 506Q204 506 169 450T134 267Q134 129 169 70T277 10Z" />
<glyph unicode="&#xf5;" glyph-name="otilde" horiz-adv-x="546" d="M273 -10Q220 -10 175 6T95 56T42 139T22 256Q22 322 43 373T99 458T180 509T273 527Q325 527 371 511T451 461T504 378T524 261Q524 195 503 145T447 60T366 8T273 -10ZM277 10Q346 10 379
67T412 248Q412 317 403 366T377 446T333 491T271 506Q204 506 169 450T134 267Q134 129 169 70T277 10ZM141 581Q150 605 158 624T175 658T197 679T226 687Q239 687 255 684T288 678T319 672T346 669Q369 669 380 678T404 708L414 704Q405 680 398 661T380 628T358
607T326 599Q298 599 265 607T206 616Q184 616 173 607T151 577L141 581Z" />
<glyph unicode="&#xf6;" glyph-name="odieresis" horiz-adv-x="546" d="M132 642Q132 668 149 684T190 700Q215 700 232 684T249 642Q249 617 232 601T190 585Q166 585 149 601T132 642ZM297 642Q297 668 314 684T355 700Q380 700 397 684T414 642Q414 617 397
601T355 585Q331 585 314 601T297 642ZM273 -10Q220 -10 175 6T95 56T42 139T22 256Q22 322 43 373T99 458T180 509T273 527Q325 527 371 511T451 461T504 378T524 261Q524 195 503 145T447 60T366 8T273 -10ZM277 10Q346 10 379 67T412 248Q412 317 403 366T377
446T333 491T271 506Q204 506 169 450T134 267Q134 129 169 70T277 10Z" />
<glyph unicode="&#xf7;" glyph-name="divide" horiz-adv-x="439" d="M35 354H405V328H35V354ZM218 126Q195 126 179 143T162 184Q162 209 178 225T218 241Q241 241 258 225T275 184Q275 161 258 144T218 126ZM218 440Q195 440 179 457T162 498Q162 523 178 539T218
555Q241 555 258 539T275 498Q275 475 258 458T218 440Z" />
<glyph unicode="&#xf8;" glyph-name="oslash" horiz-adv-x="546" d="M273 -10Q197 -10 139 23L93 -53H65L119 36Q74 68 48 123T22 256Q22 322 43 373T99 458T180 509T273 527Q345 527 401 497L439 559H466L421 485Q468 453 496 398T524 261Q524 195 503 145T447
60T366 8T273 -10ZM277 10Q346 10 379 67T413 248Q413 308 406 352T386 428L168 70Q186 38 213 24T277 10ZM133 267Q133 210 138 168T156 96L374 452Q339 506 271 506Q204 506 169 450T133 267Z" />
<glyph unicode="&#xf9;" glyph-name="ugrave" horiz-adv-x="561" d="M387 418Q387 433 386 442T382 457T371 467T351 479L325 494V502L486 524L491 521V94Q491 77 492 67T498 51T509 40T529 31L556 21V12L394 -10L388 -8V57H385Q348 32 302 11T200 -10Q139 -10
105 23T70 120V419Q70 434 69 442T64 457T53 467T34 479L8 494V502L168 524L174 521V140Q174 92 196 70T260 47Q296 47 329 56T387 76V418ZM360 574L204 614Q184 619 175 631T166 659Q166 679 179 692T211 706Q222 706 231 702T250 688L364 581L360 574Z" />
<glyph unicode="&#xfa;" glyph-name="uacute" horiz-adv-x="561" d="M190 581L303 688Q314 697 323 701T343 706Q362 706 375 693T388 659Q388 644 379 632T350 614L194 574L190 581ZM387 418Q387 433 386 442T382 457T371 467T351 479L325 494V502L486 524L491
521V94Q491 77 492 67T498 51T509 40T529 31L556 21V12L394 -10L388 -8V57H385Q348 32 302 11T200 -10Q139 -10 105 23T70 120V419Q70 434 69 442T64 457T53 467T34 479L8 494V502L168 524L174 521V140Q174 92 196 70T260 47Q296 47 329 56T387 76V418Z" />
<glyph unicode="&#xfb;" glyph-name="ucircumflex" horiz-adv-x="561" d="M292 712L398 577L393 570L274 632L156 570L151 577L256 712H292ZM387 418Q387 433 386 442T382 457T371 467T351 479L325 494V502L486 524L491 521V94Q491 77 492 67T498 51T509 40T529
31L556 21V12L394 -10L388 -8V57H385Q348 32 302 11T200 -10Q139 -10 105 23T70 120V419Q70 434 69 442T64 457T53 467T34 479L8 494V502L168 524L174 521V140Q174 92 196 70T260 47Q296 47 329 56T387 76V418Z" />
<glyph unicode="&#xfc;" glyph-name="udieresis" horiz-adv-x="561" d="M130 642Q130 668 147 684T188 700Q213 700 230 684T247 642Q247 617 230 601T188 585Q164 585 147 601T130 642ZM295 642Q295 668 312 684T353 700Q378 700 395 684T412 642Q412 617 395
601T353 585Q329 585 312 601T295 642ZM387 418Q387 433 386 442T382 457T371 467T351 479L325 494V502L486 524L491 521V94Q491 77 492 67T498 51T509 40T529 31L556 21V12L394 -10L388 -8V57H385Q348 32 302 11T200 -10Q139 -10 105 23T70 120V419Q70 434 69
442T64 457T53 467T34 479L8 494V502L168 524L174 521V140Q174 92 196 70T260 47Q296 47 329 56T387 76V418Z" />
<glyph unicode="&#xfd;" glyph-name="yacute" horiz-adv-x="481" d="M385 403Q393 425 395 439T398 462Q398 484 366 493L342 500V510H495V500L479 494Q468 491 461 486T447 471T434 449T419 414L242 -54Q212 -132 176 -168T83 -204Q49 -204 29 -188T8 -146Q8
-123 21 -110T58 -97Q98 -97 106 -140Q109 -153 111 -160T125 -167Q142 -167 166 -144T210 -67L230 -10L58 425Q51 444 45 456T33 475T21 487T6 493L-13 500V510H219V500L193 493Q176 488 170 481T164 461Q164 449 168 436T177 409L280 127H284L385 403ZM183 581L296
688Q307 697 316 701T336 706Q355 706 368 693T381 659Q381 644 372 632T343 614L187 574L183 581Z" />
<glyph unicode="&#xfe;" glyph-name="thorn" horiz-adv-x="560" d="M270 10Q345 10 386 69T428 266Q428 372 390 421T285 471Q242 471 216 462T171 444V46Q209 10 270 10ZM171 531Q171 523 171 512T170 490V464H173Q204 487 245 507T338 527Q428 527 482 467T537
282Q537 211 517 157T459 65T370 9T255 -10Q212 -10 170 2V-18Q170 -27 170 -38T171 -63V-128Q171 -143 172 -152T178 -166T190 -174T212 -180L250 -187V-197H2V-187L30 -180Q43 -177 50 -174T61 -165T66 -151T67 -128V656Q67 671 66 680T61 696T50 707T29 717L-3
731V739L169 755L175 753Q174 736 173 717Q172 700 172 678T171 630V531Z" />
<glyph unicode="&#xff;" glyph-name="ydieresis" horiz-adv-x="481" d="M385 403Q393 425 395 439T398 462Q398 484 366 493L342 500V510H495V500L479 494Q468 491 461 486T447 471T434 449T419 414L242 -54Q212 -132 176 -168T83 -204Q49 -204 29 -188T8 -146Q8
-123 21 -110T58 -97Q98 -97 106 -140Q109 -153 111 -160T125 -167Q142 -167 166 -144T210 -67L230 -10L58 425Q51 444 45 456T33 475T21 487T6 493L-13 500V510H219V500L193 493Q176 488 170 481T164 461Q164 449 168 436T177 409L280 127H284L385 403ZM120 642Q120
668 137 684T178 700Q203 700 220 684T237 642Q237 617 220 601T178 585Q154 585 137 601T120 642ZM285 642Q285 668 302 684T343 700Q368 700 385 684T402 642Q402 617 385 601T343 585Q319 585 302 601T285 642Z" />
<glyph unicode="&#x100;" glyph-name="Amacron" horiz-adv-x="620" d="M-10 11L7 16Q20 20 28 25T44 42T60 74T81 130L286 693H340L539 118Q549 89 557 71T572 41T588 24T607 16L628 11V0H363V11L386 16Q411 22 418 32T426 57Q426 68 422 85T413 115L369 251H155L116
137Q106 108 103 91T99 61Q99 43 108 33T141 17L168 11V0H-10V11ZM164 275H361L267 563H264L164 275ZM187 800H430V754H187V800Z" />
<glyph unicode="&#x101;" glyph-name="amacron" horiz-adv-x="478" d="M165 -13Q97 -13 58 19T19 110Q19 144 32 167T67 205T116 230T172 247L304 280V389Q304 417 302 438T291 475T265 498T217 506Q183 506 172 496T156 460Q152 421 139 406T99 391Q74 391 61
403T48 438Q48 462 64 478T107 506T167 522T235 527Q326 527 367 494T408 395V85Q408 62 413 51T428 33Q439 25 452 23T480 20V12Q469 4 446 -4T394 -12Q318 -12 309 51H306Q285 25 249 6T165 -13ZM210 33Q245 33 268 45T304 74V251L246 241Q216 236 194 228T156
207T133 175T125 128Q125 83 146 58T210 33ZM117 650H343V605H117V650Z" />
<glyph unicode="&#x102;" glyph-name="Abreve" horiz-adv-x="620" d="M-10 11L7 16Q20 20 28 25T44 42T60 74T81 130L286 693H340L539 118Q549 89 557 71T572 41T588 24T607 16L628 11V0H363V11L386 16Q411 22 418 32T426 57Q426 68 422 85T413 115L369 251H155L116
137Q106 108 103 91T99 61Q99 43 108 33T141 17L168 11V0H-10V11ZM164 275H361L267 563H264L164 275ZM310 730Q280 730 259 740T224 768T203 808T194 854L202 856Q216 827 239 812T309 797Q356 797 378 813T414 856L421 854Q419 830 413 808T393 769T359 741T310
730Z" />
<glyph unicode="&#x103;" glyph-name="abreve" horiz-adv-x="478" d="M165 -13Q97 -13 58 19T19 110Q19 144 32 167T67 205T116 230T172 247L304 280V389Q304 417 302 438T291 475T265 498T217 506Q183 506 172 496T156 460Q152 421 139 406T99 391Q74 391 61
403T48 438Q48 462 64 478T107 506T167 522T235 527Q326 527 367 494T408 395V85Q408 62 413 51T428 33Q439 25 452 23T480 20V12Q469 4 446 -4T394 -12Q318 -12 309 51H306Q285 25 249 6T165 -13ZM210 33Q245 33 268 45T304 74V251L246 241Q216 236 194 228T156
207T133 175T125 128Q125 83 146 58T210 33ZM232 579Q203 579 183 588T150 614T129 654T121 703L129 705Q140 676 166 661T231 645Q268 645 293 661T330 705L338 703Q336 650 310 615T232 579Z" />
<glyph unicode="&#x104;" glyph-name="Aogonek" horiz-adv-x="620" d="M541 0Q500 0 473 -9T428 -35T403 -72T395 -117Q395 -144 410 -156T450 -168Q471 -168 487 -161V-171Q476 -184 454 -193T408 -203Q362 -203 339 -184T315 -130Q315 -95 346 -59T451 0L369
251H156L116 137Q106 108 103 91T99 61Q99 43 108 33T141 17L168 11V0H-10V11L7 16Q20 20 28 25T44 42T60 74T81 130L286 693H340L539 118Q549 89 557 71T572 41T588 24T607 16L628 11V0H541ZM264 563L164 275H361L267 563H264Z" />
<glyph unicode="&#x105;" glyph-name="aogonek" horiz-adv-x="478" d="M305 -131Q305 -98 333 -67T423 -8Q415 -10 408 -11T393 -12Q318 -12 309 51H306Q285 25 249 6T165 -13Q97 -13 58 19T19 110Q19 144 32 167T67 205T116 230T172 247L304 280V389Q304 417
302 438T291 475T265 498T217 506Q183 506 172 496T156 460Q152 421 139 406T99 391Q74 391 61 403T48 438Q48 462 64 478T107 506T167 522T235 527Q326 527 367 494T408 395V85Q408 62 413 51T428 33Q439 25 452 23T480 20V13Q425 -22 405 -54T385 -117Q385 -145
400 -156T440 -168Q461 -168 477 -161V-171Q466 -184 445 -193T399 -203Q354 -203 330 -184T305 -131ZM210 33Q245 33 268 45T304 74V251L246 242Q184 233 155 209T125 129Q125 83 146 58T210 33Z" />
<glyph unicode="&#x106;" glyph-name="Cacute" horiz-adv-x="596" d="M333 -10Q266 -10 210 10T112 72T48 181T25 341Q25 441 53 510T129 622T238 684T367 703Q425 703 469 696T546 680L559 493H547Q532 525 520 551T490 606Q477 629 464 643T436 666T402 678T357
681Q311 681 272 663T205 606T162 506T146 360Q146 268 158 202T195 94T256 32T339 12Q373 12 397 15T440 28T471 52T498 92Q512 118 525 149T552 212H564L552 27Q516 12 462 1T333 -10ZM246 735L374 840Q383 848 393 852T412 856Q432 856 444 842T456 810Q456
774 415 766L249 728L246 735Z" />
<glyph unicode="&#x107;" glyph-name="cacute" horiz-adv-x="451" d="M179 581L292 688Q303 697 312 701T332 706Q351 706 364 693T377 659Q377 644 368 632T339 614L183 574L179 581ZM251 -12Q145 -12 84 54T22 240Q22 315 47 369T111 458T196 510T287 527Q359
527 396 503T434 438Q434 414 421 401T379 387Q352 387 341 401T324 448Q321 463 318 473T310 490T295 500T270 503Q243 503 218 489T173 447T142 377T130 277Q130 42 302 42Q372 42 431 76V64Q420 51 403 38T362 13T311 -5T251 -12Z" />
<glyph unicode="&#x108;" glyph-name="Ccircumflex" horiz-adv-x="596" d="M199 730L317 854H354L471 730L466 723L336 776L205 723L199 730ZM333 -10Q266 -10 210 10T112 72T48 181T25 341Q25 441 53 510T129 622T238 684T367 703Q425 703 469 696T546 680L559
493H547Q532 525 520 551T490 606Q477 629 464 643T436 666T402 678T357 681Q311 681 272 663T205 606T162 506T146 360Q146 268 158 202T195 94T256 32T339 12Q373 12 397 15T440 28T471 52T498 92Q512 118 525 149T552 212H564L552 27Q516 12 462 1T333 -10Z"
/>
<glyph unicode="&#x109;" glyph-name="ccircumflex" horiz-adv-x="451" d="M276 712L382 577L377 570L258 632L140 570L135 577L240 712H276ZM251 -12Q145 -12 84 54T22 240Q22 315 47 369T111 458T196 510T287 527Q359 527 396 503T434 438Q434 414 421 401T379
387Q352 387 341 401T324 448Q321 463 318 473T310 490T295 500T270 503Q243 503 218 489T173 447T142 377T130 277Q130 42 302 42Q372 42 431 76V64Q420 51 403 38T362 13T311 -5T251 -12Z" />
<glyph unicode="&#x10a;" glyph-name="Cdotaccent" horiz-adv-x="596" d="M333 -10Q266 -10 210 10T112 72T48 181T25 341Q25 441 53 510T129 622T238 684T367 703Q425 703 469 696T546 680L559 493H547Q532 525 520 551T490 606Q477 629 464 643T436 666T402
678T357 681Q311 681 272 663T205 606T162 506T146 360Q146 268 158 202T195 94T256 32T339 12Q373 12 397 15T440 28T471 52T498 92Q512 118 525 149T552 212H564L552 27Q516 12 462 1T333 -10ZM344 732Q318 732 299 749T280 792Q280 818 299 835T344 852Q370
852 387 835T405 792Q405 767 388 750T344 732Z" />
<glyph unicode="&#x10b;" glyph-name="cdotaccent" horiz-adv-x="451" d="M251 -12Q145 -12 84 54T22 240Q22 315 47 369T111 458T196 510T287 527Q359 527 396 503T434 438Q434 414 421 401T379 387Q352 387 341 401T324 448Q321 463 318 473T310 490T295 500T270
503Q243 503 218 489T173 447T142 377T130 277Q130 42 302 42Q372 42 431 76V64Q420 51 403 38T362 13T311 -5T251 -12ZM200 639Q200 665 218 682T263 700Q289 700 307 683T326 639Q326 613 308 596T263 578Q237 578 219 595T200 639Z" />
<glyph unicode="&#x10c;" glyph-name="Ccaron" horiz-adv-x="596" d="M212 859L343 806L473 859L478 852L361 728H324L206 852L212 859ZM333 -10Q266 -10 210 10T112 72T48 181T25 341Q25 441 53 510T129 622T238 684T367 703Q425 703 469 696T546 680L559 493H547Q532
525 520 551T490 606Q477 629 464 643T436 666T402 678T357 681Q311 681 272 663T205 606T162 506T146 360Q146 268 158 202T195 94T256 32T339 12Q373 12 397 15T440 28T471 52T498 92Q512 118 525 149T552 212H564L552 27Q516 12 462 1T333 -10Z" />
<glyph unicode="&#x10d;" glyph-name="ccaron" horiz-adv-x="451" d="M243 576L138 711L143 718L261 657L380 718L385 711L279 576H243ZM251 -12Q145 -12 84 54T22 240Q22 315 47 369T111 458T196 510T287 527Q359 527 396 503T434 438Q434 414 421 401T379 387Q352
387 341 401T324 448Q321 463 318 473T310 490T295 500T270 503Q243 503 218 489T173 447T142 377T130 277Q130 42 302 42Q372 42 431 76V64Q420 51 403 38T362 13T311 -5T251 -12Z" />
<glyph unicode="&#x10e;" glyph-name="Dcaron" horiz-adv-x="677" d="M193 859L324 806L454 859L459 852L342 728H305L187 852L193 859ZM12 11L49 18Q62 21 70 23T82 32T88 50T89 80V613Q89 632 88 643T83 660T70 669T49 675L12 682V693H318Q388 693 449 676T555
619T626 514T652 354Q652 266 627 200T557 90T449 23T311 0H12V11ZM304 22Q370 22 413 45T483 109T520 208T531 334Q531 422 519 485T479 590T408 650T302 670Q270 670 246 669T204 662V98Q204 74 207 60T220 37T251 25T304 22Z" />
<glyph unicode="&#x10f;" glyph-name="dcaron" horiz-adv-x="564" d="M534 587L538 716Q538 759 575 759Q595 759 606 749T619 722Q619 715 617 707T606 686L542 585L534 587ZM229 -10Q188 -10 151 2T86 42T41 118T24 234Q24 309 47 364T110 455T198 509T300 527Q335
527 354 523T388 513V656Q388 671 387 679T383 694T373 703T358 712L318 731V739L491 755L497 753Q496 738 495 720Q494 704 494 682T493 630V86Q493 71 494 62T499 47T511 37T532 29L559 20V11L396 -10L388 -6L390 50H387Q353 23 315 7T229 -10ZM283 41Q319 41
346 50T388 71V461Q374 481 350 493T293 505Q219 505 176 447T132 260Q132 148 171 95T283 41Z" />
<glyph unicode="&#x110;" glyph-name="Dcroat" horiz-adv-x="677" d="M19 364H89V613Q89 632 88 643T83 660T70 669T49 675L12 682V693H318Q388 693 449 676T555 619T626 514T652 354Q652 266 627 200T557 90T449 23T311 0H12V11L49 18Q62 21 70 23T82 32T88 50T89
80V339H19V364ZM304 22Q370 22 413 45T483 109T520 208T531 334Q531 422 519 485T479 590T408 650T302 670Q270 670 246 669T204 662V364H382V339H204V98Q204 74 207 60T220 37T251 25T304 22Z" />
<glyph unicode="&#x111;" glyph-name="dcroat" horiz-adv-x="564" d="M493 86Q493 71 494 62T499 47T511 37T532 29L559 20V11L396 -10L388 -6L390 50H387Q353 23 315 7T229 -10Q188 -10 151 2T86 42T41 118T24 234Q24 309 47 364T110 455T198 509T300 527Q335
527 354 523T388 513V608H222V633H388V658Q388 672 387 680T383 694T373 703T358 712L318 731V739L491 755L497 753Q495 739 494 721Q493 705 493 683T492 633H558V608H492L493 86ZM283 41Q319 41 346 50T388 71V461Q374 481 350 493T293 505Q219 505 176 447T132
260Q132 148 171 95T283 41Z" />
<glyph unicode="&#x112;" glyph-name="Emacron" horiz-adv-x="564" d="M408 240H397Q392 262 386 281T373 314Q368 325 362 332T344 342T313 347T262 348H204V103Q204 74 206 58T221 35T258 25T327 23Q363 23 385 25T422 33T447 49T468 74Q485 100 500 136T529
210H541L527 0H12V11L49 18Q62 21 70 24T82 33T87 50T89 80V613Q89 632 88 643T83 660T70 669T49 675L12 682V693H507L518 518H507Q493 550 481 576T458 620Q447 636 437 646T411 661T373 668T316 670Q278 670 252 668T204 661V371H262Q293 371 312 372T343 377T361
388T373 406Q381 420 386 438T397 480H408V240ZM178 800H421V754H178V800Z" />
<glyph unicode="&#x113;" glyph-name="emacron" horiz-adv-x="487" d="M270 -12Q205 -12 159 6T81 59T36 142T21 252Q21 314 40 364T93 451T170 507T264 527Q359 527 413 471T467 290H129V282Q129 218 141 173T175 100T231 58T307 44Q352 44 388 53T454 80V67Q427
37 380 13T270 -12ZM260 506Q205 506 170 460T129 309L360 318Q360 417 338 461T260 506ZM141 650H367V605H141V650Z" />
<glyph unicode="&#x114;" glyph-name="Ebreve" horiz-adv-x="564" d="M408 240H397Q392 262 386 281T373 314Q368 325 362 332T344 342T313 347T262 348H204V103Q204 74 206 58T221 35T258 25T327 23Q363 23 385 25T422 33T447 49T468 74Q485 100 500 136T529
210H541L527 0H12V11L49 18Q62 21 70 24T82 33T87 50T89 80V613Q89 632 88 643T83 660T70 669T49 675L12 682V693H507L518 518H507Q493 550 481 576T458 620Q447 636 437 646T411 661T373 668T316 670Q278 670 252 668T204 661V371H262Q293 371 312 372T343 377T361
388T373 406Q381 420 386 438T397 480H408V240ZM301 730Q271 730 250 740T215 768T194 808T185 854L193 856Q207 827 230 812T300 797Q347 797 369 813T405 856L412 854Q410 830 404 808T384 769T350 741T301 730Z" />
<glyph unicode="&#x115;" glyph-name="ebreve" horiz-adv-x="487" d="M270 -12Q205 -12 159 6T81 59T36 142T21 252Q21 314 40 364T93 451T170 507T264 527Q359 527 413 471T467 290H129V282Q129 218 141 173T175 100T231 58T307 44Q352 44 388 53T454 80V67Q427
37 380 13T270 -12ZM260 506Q205 506 170 460T129 309L360 318Q360 417 338 461T260 506ZM261 579Q232 579 212 588T179 614T158 654T150 703L158 705Q169 676 195 661T260 645Q297 645 322 661T359 705L367 703Q365 650 339 615T261 579Z" />
<glyph unicode="&#x116;" glyph-name="Edotaccent" horiz-adv-x="564" d="M296 732Q270 732 251 749T232 792Q232 818 251 835T296 852Q322 852 339 835T357 792Q357 767 340 750T296 732ZM408 240H397Q392 262 386 281T373 314Q368 325 362 332T344 342T313 347T262
348H204V103Q204 74 206 58T221 35T258 25T327 23Q363 23 385 25T422 33T447 49T468 74Q485 100 500 136T529 210H541L527 0H12V11L49 18Q62 21 70 24T82 33T87 50T89 80V613Q89 632 88 643T83 660T70 669T49 675L12 682V693H507L518 518H507Q493 550 481 576T458
620Q447 636 437 646T411 661T373 668T316 670Q278 670 252 668T204 661V371H262Q293 371 312 372T343 377T361 388T373 406Q381 420 386 438T397 480H408V240Z" />
<glyph unicode="&#x117;" glyph-name="edotaccent" horiz-adv-x="487" d="M270 -12Q205 -12 159 6T81 59T36 142T21 252Q21 314 40 364T93 451T170 507T264 527Q359 527 413 471T467 290H129V282Q129 218 141 173T175 100T231 58T307 44Q352 44 388 53T454 80V67Q427
37 380 13T270 -12ZM260 506Q205 506 170 460T129 309L360 318Q360 417 338 461T260 506ZM192 639Q192 665 210 682T255 700Q281 700 299 683T318 639Q318 613 300 596T255 578Q229 578 211 595T192 639Z" />
<glyph unicode="&#x118;" glyph-name="Eogonek" horiz-adv-x="564" d="M12 0V11L49 18Q62 21 70 24T82 33T87 50T89 80V613Q89 632 88 643T83 660T70 669T49 675L12 682V693H507L518 518H507Q493 550 481 576T458 620Q447 636 437 646T411 661T373 668T316 670Q278
670 252 668T204 661V371H262Q293 371 312 372T343 377T361 388T373 406Q381 420 386 438T397 480H408V240H397Q392 262 386 281T373 314Q368 325 362 332T344 342T313 347T262 348H204V103Q204 74 206 58T221 35T258 25T327 23Q363 23 385 25T422 33T447 49T468
74Q485 100 500 136T529 210H541L527 0H446Q419 -31 406 -59T392 -119Q392 -145 407 -156T445 -168Q467 -168 483 -161V-171Q472 -185 452 -194T405 -203Q359 -203 335 -183T311 -129Q311 -96 339 -64T430 0H12Z" />
<glyph unicode="&#x119;" glyph-name="eogonek" horiz-adv-x="487" d="M213 -132Q213 -94 247 -62T338 -4Q322 -8 304 -10T271 -12Q205 -12 158 7T81 61T36 146T21 257Q21 318 41 368T94 453T172 508T265 527Q360 527 414 471T467 290H129V278Q130 153 177 99T307
44Q352 44 389 53T455 80V67Q439 52 419 37T377 4Q351 -16 335 -32T309 -64T296 -92T292 -118Q292 -144 307 -156T347 -168Q359 -168 368 -166T384 -161V-171Q373 -185 352 -194T305 -203Q257 -203 235 -182T213 -132ZM261 506Q207 506 171 459T130 307L361 315Q361
416 338 461T261 506Z" />
<glyph unicode="&#x11a;" glyph-name="Ecaron" horiz-adv-x="564" d="M169 859L300 806L430 859L435 852L318 728H281L163 852L169 859ZM408 240H397Q392 262 386 281T373 314Q368 325 362 332T344 342T313 347T262 348H204V103Q204 74 206 58T221 35T258 25T327
23Q363 23 385 25T422 33T447 49T468 74Q485 100 500 136T529 210H541L527 0H12V11L49 18Q62 21 70 24T82 33T87 50T89 80V613Q89 632 88 643T83 660T70 669T49 675L12 682V693H507L518 518H507Q493 550 481 576T458 620Q447 636 437 646T411 661T373 668T316 670Q278
670 252 668T204 661V371H262Q293 371 312 372T343 377T361 388T373 406Q381 420 386 438T397 480H408V240Z" />
<glyph unicode="&#x11b;" glyph-name="ecaron" horiz-adv-x="487" d="M238 576L133 711L138 718L256 657L375 718L380 711L274 576H238ZM270 -12Q205 -12 159 6T81 59T36 142T21 252Q21 314 40 364T93 451T170 507T264 527Q359 527 413 471T467 290H129V282Q129
218 141 173T175 100T231 58T307 44Q352 44 388 53T454 80V67Q427 37 380 13T270 -12ZM260 506Q205 506 170 460T129 309L360 318Q360 417 338 461T260 506Z" />
<glyph unicode="&#x11c;" glyph-name="Gcircumflex" horiz-adv-x="643" d="M217 730L335 854H372L489 730L484 723L354 776L223 723L217 730ZM360 -10Q199 -10 112 76T25 340Q25 446 56 516T136 627T249 686T375 703Q490 703 564 679L574 495H563Q547 532 535
559T501 616Q488 634 475 646T447 666T411 677T365 681Q315 681 274 664T204 609T160 511T144 364Q144 277 155 211T192 101T258 34T356 12Q398 12 428 20T476 40V200Q476 219 475 230T470 247T458 256T436 262L398 269V280H650V269L614 262Q596 259 592 249T587
208V28Q555 16 496 3T360 -10Z" />
<glyph unicode="&#x11d;" glyph-name="gcircumflex" horiz-adv-x="483" d="M248 712L354 577L349 570L230 632L112 570L107 577L212 712H248ZM204 -195Q107 -195 53 -167T-1 -84Q-1 -45 26 -18T111 26V28Q74 36 57 56T40 106Q40 141 62 169T114 213V216Q76 235
53 269T29 350Q29 395 46 428T90 483T152 516T223 527Q254 527 284 520T338 498Q364 523 387 535T436 548Q459 548 474 537T489 500Q489 482 479 471T449 460Q433 460 426 466T413 486Q403 509 389 508T352 490V488Q384 468 401 436T419 360Q419 316 402 284T358
231T295 200T223 190Q168 190 131 207Q120 199 110 185T99 153Q99 134 113 125T159 116H325Q396 116 434 88T473 -6Q473 -38 458 -71T410 -132T326 -177T204 -195ZM221 -173Q258 -173 291 -166T348 -143T386 -106T400 -53Q400 -12 377 5T300 23H136Q112 12 99 -11T85
-69Q85 -124 120 -148T221 -173ZM223 208Q270 208 293 240T316 348Q316 433 293 469T223 506Q177 506 154 473T131 363Q131 279 154 244T223 208Z" />
<glyph unicode="&#x11e;" glyph-name="Gbreve" horiz-adv-x="643" d="M354 730Q324 730 303 740T268 768T247 808T238 854L246 856Q260 827 283 812T353 797Q400 797 422 813T458 856L465 854Q463 830 457 808T437 769T403 741T354 730ZM360 -10Q199 -10 112 76T25
340Q25 446 56 516T136 627T249 686T375 703Q490 703 564 679L574 495H563Q547 532 535 559T501 616Q488 634 475 646T447 666T411 677T365 681Q315 681 274 664T204 609T160 511T144 364Q144 277 155 211T192 101T258 34T356 12Q398 12 428 20T476 40V200Q476
219 475 230T470 247T458 256T436 262L398 269V280H650V269L614 262Q596 259 592 249T587 208V28Q555 16 496 3T360 -10Z" />
<glyph unicode="&#x11f;" glyph-name="gbreve" horiz-adv-x="483" d="M204 -195Q107 -195 53 -167T-1 -84Q-1 -45 26 -18T111 26V28Q74 36 57 56T40 106Q40 141 62 169T114 213V216Q76 235 53 269T29 350Q29 395 46 428T90 483T152 516T223 527Q254 527 284 520T338
498Q364 523 387 535T436 548Q459 548 474 537T489 500Q489 482 479 471T449 460Q433 460 426 466T413 486Q403 509 389 508T352 490V488Q384 468 401 436T419 360Q419 316 402 284T358 231T295 200T223 190Q168 190 131 207Q120 199 110 185T99 153Q99 134 113
125T159 116H325Q396 116 434 88T473 -6Q473 -38 458 -71T410 -132T326 -177T204 -195ZM221 -173Q258 -173 291 -166T348 -143T386 -106T400 -53Q400 -12 377 5T300 23H136Q112 12 99 -11T85 -69Q85 -124 120 -148T221 -173ZM223 208Q270 208 293 240T316 348Q316
433 293 469T223 506Q177 506 154 473T131 363Q131 279 154 244T223 208ZM236 579Q207 579 187 588T154 614T133 654T125 703L133 705Q144 676 170 661T235 645Q272 645 297 661T334 705L342 703Q340 650 314 615T236 579Z" />
<glyph unicode="&#x120;" glyph-name="Gdotaccent" horiz-adv-x="643" d="M355 732Q329 732 310 749T291 792Q291 818 310 835T355 852Q381 852 398 835T416 792Q416 767 399 750T355 732ZM360 -10Q199 -10 112 76T25 340Q25 446 56 516T136 627T249 686T375 703Q490
703 564 679L574 495H563Q547 532 535 559T501 616Q488 634 475 646T447 666T411 677T365 681Q315 681 274 664T204 609T160 511T144 364Q144 277 155 211T192 101T258 34T356 12Q398 12 428 20T476 40V200Q476 219 475 230T470 247T458 256T436 262L398 269V280H650V269L614
262Q596 259 592 249T587 208V28Q555 16 496 3T360 -10Z" />
<glyph unicode="&#x121;" glyph-name="gdotaccent" horiz-adv-x="483" d="M204 -195Q107 -195 53 -167T-1 -84Q-1 -45 26 -18T111 26V28Q74 36 57 56T40 106Q40 141 62 169T114 213V216Q76 235 53 269T29 350Q29 395 46 428T90 483T152 516T223 527Q254 527 284
520T338 498Q364 523 387 535T436 548Q459 548 474 537T489 500Q489 482 479 471T449 460Q433 460 426 466T413 486Q403 509 389 508T352 490V488Q384 468 401 436T419 360Q419 316 402 284T358 231T295 200T223 190Q168 190 131 207Q120 199 110 185T99 153Q99
134 113 125T159 116H325Q396 116 434 88T473 -6Q473 -38 458 -71T410 -132T326 -177T204 -195ZM221 -173Q258 -173 291 -166T348 -143T386 -106T400 -53Q400 -12 377 5T300 23H136Q112 12 99 -11T85 -69Q85 -124 120 -148T221 -173ZM223 208Q270 208 293 240T316
348Q316 433 293 469T223 506Q177 506 154 473T131 363Q131 279 154 244T223 208ZM161 639Q161 665 179 682T224 700Q250 700 268 683T287 639Q287 613 269 596T224 578Q198 578 180 595T161 639Z" />
<glyph unicode="&#x122;" glyph-name="Gcommaaccent" horiz-adv-x="643" d="M269 -213Q312 -195 329 -174T350 -126Q339 -137 318 -137Q298 -137 287 -125T276 -94Q276 -77 290 -62T330 -46Q357 -46 374 -63T392 -109Q392 -150 360 -181T272 -220L269 -213ZM360
-10Q199 -10 112 76T25 340Q25 446 56 516T136 627T249 686T375 703Q490 703 564 679L574 495H563Q547 532 535 559T501 616Q488 634 475 646T447 666T411 677T365 681Q315 681 274 664T204 609T160 511T144 364Q144 277 155 211T192 101T258 34T356 12Q398 12
428 20T476 40V200Q476 219 475 230T470 247T458 256T436 262L398 269V280H650V269L614 262Q596 259 592 249T587 208V28Q555 16 496 3T360 -10Z" />
<glyph unicode="&#x123;" glyph-name="gcommaaccent" horiz-adv-x="483" d="M547 741Q504 723 487 702T467 654Q476 665 498 665Q518 665 529 653T540 622Q540 604 526 589T486 573Q459 573 442 590T424 637Q424 677 456 708T544 748L547 741ZM204 -195Q107 -195
53 -167T-1 -84Q-1 -45 26 -18T111 26V28Q74 36 57 56T40 106Q40 141 62 169T114 213V216Q76 235 53 269T29 350Q29 395 46 428T90 483T152 516T223 527Q254 527 284 520T338 498Q364 523 387 535T436 548Q459 548 474 537T489 500Q489 482 479 471T449 460Q433
460 426 466T413 486Q403 509 389 508T352 490V488Q384 468 401 436T419 360Q419 316 402 284T358 231T295 200T223 190Q168 190 131 207Q120 199 110 185T99 153Q99 134 113 125T159 116H325Q396 116 434 88T473 -6Q473 -38 458 -71T410 -132T326 -177T204 -195ZM221
-173Q258 -173 291 -166T348 -143T386 -106T400 -53Q400 -12 377 5T300 23H136Q112 12 99 -11T85 -69Q85 -124 120 -148T221 -173ZM223 208Q270 208 293 240T316 348Q316 433 293 469T223 506Q177 506 154 473T131 363Q131 279 154 244T223 208Z" />
<glyph unicode="&#x124;" glyph-name="Hcircumflex" horiz-adv-x="707" d="M12 11L49 18Q62 21 70 23T82 32T88 50T89 80V613Q89 632 88 643T83 660T70 669T49 675L12 682V693H280V682L245 675Q231 672 223 669T210 660T205 643T204 613V366H504V613Q504 632 503
643T498 660T485 669T463 675L427 682V693H696V682L658 675Q645 672 637 670T625 661T620 643T619 613V80Q619 61 620 50T625 33T637 24T658 18L696 11V0H427V11L463 18Q477 21 485 24T497 33T503 50T504 80V342H204V80Q204 61 205 50T210 33T222 24T245 18L280
11V0H12V11ZM218 730L336 854H373L490 730L485 723L355 776L224 723L218 730Z" />
<glyph unicode="&#x125;" glyph-name="hcircumflex" horiz-adv-x="564" d="M364 527Q435 527 465 494T495 393V68Q495 53 496 45T500 31T511 23T532 17L561 10V0H326V10L354 16Q366 19 373 22T384 30T389 44T391 68V377Q391 429 373 449T312 470Q267 470 234 460T178
442V68Q178 53 179 44T184 30T195 22T215 16L243 10V0H9V10L37 17Q50 20 57 23T67 31T72 44T73 68V656Q73 671 72 680T67 696T56 706T35 717L4 731V739L176 755L182 753Q181 736 180 717Q179 700 179 678T178 630V461H180Q198 473 220 485T266 506T315 521T364
527ZM324 781L442 905H479L596 781L591 774L461 827L330 774L324 781Z" />
<glyph unicode="&#x126;" glyph-name="Hbar" horiz-adv-x="707" d="M13 524H697V503H13V524ZM12 11L49 18Q62 21 70 23T82 32T88 50T89 80V613Q89 632 88 643T83 660T70 669T49 675L12 682V693H280V682L245 675Q231 672 223 669T210 660T205 643T204 613V366H504V613Q504
632 503 643T498 660T485 669T463 675L427 682V693H696V682L658 675Q645 672 637 670T625 661T620 643T619 613V80Q619 61 620 50T625 33T637 24T658 18L696 11V0H427V11L463 18Q477 21 485 24T497 33T503 50T504 80V342H204V80Q204 61 205 50T210 33T222 24T245
18L280 11V0H12V11Z" />
<glyph unicode="&#x127;" glyph-name="hbar" horiz-adv-x="565" d="M3 634H332V610H3V634ZM366 527Q437 527 467 494T497 393V68Q497 53 498 45T502 31T513 23T534 17L563 10V0H328V10L356 16Q368 19 375 22T386 30T391 44T393 68V377Q393 429 375 449T314 470Q269
470 236 460T180 442V68Q180 53 181 44T186 30T197 22T217 16L245 10V0H11V10L39 17Q52 20 59 23T69 31T74 44T75 68V656Q75 671 74 680T69 696T58 706T37 717L6 731V739L178 755L184 753Q183 736 182 717Q181 700 181 678T180 630V461H182Q200 473 222 485T268
506T317 521T366 527Z" />
<glyph unicode="&#x128;" glyph-name="Itilde" horiz-adv-x="294" d="M12 11L50 18Q63 21 71 23T83 32T89 50T90 80V613Q90 632 89 643T84 660T71 669T50 675L12 682V693H282V682L245 675Q231 672 223 670T211 661T205 643T204 613V80Q204 61 205 50T210 33T223
24T245 18L282 11V0H12V11ZM472 747Q455 747 437 750T399 758T362 767T327 771Q307 771 296 763T271 731L261 736Q278 784 296 813T350 842Q366 842 384 838T421 830T458 822T491 818Q511 818 524 827T552 859L562 854Q546 806 528 777T472 747Z" />
<glyph unicode="&#x129;" glyph-name="itilde" horiz-adv-x="253" d="M10 10L38 17Q51 20 58 23T69 31T74 44T75 68V422Q75 436 74 444T68 458T57 468T36 479L10 494V502L178 524L183 522Q182 509 181 482T179 406V68Q179 39 186 31T219 17L245 10V0H10V10ZM249
581Q258 605 266 624T283 658T305 679T334 687Q347 687 363 684T396 678T427 672T454 669Q477 669 488 678T512 708L522 704Q513 680 506 661T488 628T466 607T434 599Q406 599 373 607T314 616Q292 616 281 607T259 577L249 581Z" />
<glyph unicode="&#x12a;" glyph-name="Imacron" horiz-adv-x="294" d="M12 11L50 18Q63 21 71 23T83 32T89 50T90 80V613Q90 632 89 643T84 660T71 669T50 675L12 682V693H282V682L245 675Q231 672 223 670T211 661T205 643T204 613V80Q204 61 205 50T210 33T223
24T245 18L282 11V0H12V11ZM282 800H525V754H282V800Z" />
<glyph unicode="&#x12b;" glyph-name="imacron" horiz-adv-x="253" d="M10 12L38 20Q51 23 58 27T69 37T74 53T75 80V416Q75 431 74 440T68 456T57 467T36 478L10 493V502L178 524L183 522Q183 516 181 487T179 406V80Q179 63 180 53T185 37T196 28T217 20L243
12V0H10V12ZM5 650H224V605H5V650Z" />
<glyph unicode="&#x12c;" glyph-name="Ibreve" horiz-adv-x="294" d="M12 11L50 18Q63 21 71 23T83 32T89 50T90 80V613Q90 632 89 643T84 660T71 669T50 675L12 682V693H282V682L245 675Q231 672 223 670T211 661T205 643T204 613V80Q204 61 205 50T210 33T223
24T245 18L282 11V0H12V11ZM405 730Q375 730 354 740T319 768T298 808T289 854L297 856Q311 827 334 812T404 797Q451 797 473 813T509 856L516 854Q514 830 508 808T488 769T454 741T405 730Z" />
<glyph unicode="&#x12d;" glyph-name="ibreve" horiz-adv-x="253" d="M10 10L38 17Q51 20 58 23T69 31T74 44T75 68V422Q75 436 74 444T68 458T57 468T36 479L10 494V502L178 524L183 522Q182 509 181 482T179 406V68Q179 39 186 31T219 17L245 10V0H10V10ZM387
579Q358 579 338 588T305 614T284 654T276 703L284 705Q295 676 321 661T386 645Q423 645 448 661T485 705L493 703Q491 650 465 615T387 579Z" />
<glyph unicode="&#x12e;" glyph-name="Iogonek" horiz-adv-x="294" d="M219 0Q192 -31 179 -59T165 -119Q165 -145 180 -156T218 -168Q240 -168 256 -161V-172Q245 -184 225 -193T178 -203Q132 -203 108 -184T84 -131Q84 -99 111 -66T203 0H12V11L50 18Q63 21
71 23T83 32T89 50T90 80V613Q90 632 89 643T84 660T71 669T50 675L12 682V693H282V682L245 675Q231 672 223 670T211 661T205 643T204 613V80Q204 61 205 50T210 33T223 24T245 18L282 11V0H219Z" />
<glyph unicode="&#x12f;" glyph-name="iogonek" horiz-adv-x="253" d="M62 656Q62 682 79 698T123 715Q149 715 166 699T184 656Q184 630 167 614T123 597Q97 597 80 613T62 656ZM10 0V10L38 17Q51 20 58 23T69 31T74 44T75 68V422Q75 436 74 444T68 458T57 468T36
479L10 494V502L178 524L183 522Q182 509 181 482T179 406V68Q179 39 186 31T219 17L245 10V0H172Q145 -31 132 -59T118 -119Q118 -145 133 -156T172 -168Q183 -168 192 -166T210 -161V-171Q199 -184 178 -193T132 -203Q85 -203 61 -183T37 -129Q37 -97 65 -65T156
0H10Z" />
<glyph unicode="&#x130;" glyph-name="Idotaccent" horiz-adv-x="294" d="M12 11L50 18Q63 21 71 23T83 32T89 50T90 80V613Q90 632 89 643T84 660T71 669T50 675L12 682V693H282V682L245 675Q231 672 223 670T211 661T205 643T204 613V80Q204 61 205 50T210 33T223
24T245 18L282 11V0H12V11ZM404 732Q378 732 359 749T340 792Q340 818 359 835T404 852Q430 852 447 835T465 792Q465 767 448 750T404 732Z" />
<glyph unicode="&#x131;" glyph-name="dotlessi" horiz-adv-x="253" d="M10 10L38 17Q51 20 58 23T69 31T74 44T75 68V422Q75 436 74 444T68 458T57 468T36 479L10 494V502L178 524L183 522Q182 509 181 482T179 406V68Q179 39 186 31T219 17L245 10V0H10V10Z" />
<glyph unicode="&#x132;" glyph-name="IJ" horiz-adv-x="689" d="M12 11L50 18Q63 21 71 23T83 32T89 50T90 80V613Q90 632 89 643T84 660T71 669T50 675L12 682V693H282V682L245 675Q231 672 223 670T211 661T205 643T204 613V80Q204 61 205 50T210 33T223 24T245
18L282 11V0H12V11ZM408 -10Q351 -10 322 10T292 64Q292 89 306 104T349 119Q379 119 393 102T412 40Q413 13 435 13Q448 13 458 20T476 45T488 91T492 163V613Q492 632 491 643T486 661T474 670T453 675L415 682V693H684V682L647 675Q633 672 626 670T614 661T608
643T607 613V216Q607 168 596 127T560 55T498 7T408 -10Z" />
<glyph unicode="&#x133;" glyph-name="ij" horiz-adv-x="484" d="M10 10L38 17Q51 20 58 23T69 31T74 44T75 68V422Q75 436 74 444T68 458T57 468T36 479L10 494V502L178 524L183 522Q182 509 181 482T179 406V68Q179 39 186 31T219 17L245 10V0H10V10ZM62 656Q62
682 79 698T123 715Q149 715 166 699T184 656Q184 630 167 614T123 597Q97 597 80 613T62 656ZM423 9Q423 -41 411 -80T376 -145T322 -184T254 -198Q205 -198 181 -180T157 -132Q157 -112 170 -99T207 -85Q229 -85 241 -98T259 -146Q261 -165 265 -171T279 -178Q296
-178 307 -159T319 -97V422Q319 436 318 444T312 459T301 469T280 480L254 494V502L422 524L427 522Q426 511 425 483T423 407V9ZM304 656Q304 682 321 698T365 715Q391 715 408 699T426 656Q426 630 409 614T365 597Q339 597 322 613T304 656Z" />
<glyph unicode="&#x134;" glyph-name="Jcircumflex" horiz-adv-x="397" d="M118 730L236 854H273L390 730L385 723L255 776L124 723L118 730ZM116 -10Q59 -10 30 11T1 64Q1 89 15 103T56 117Q85 117 99 101T119 40Q121 26 126 20T142 13Q155 13 166 20T184 45T196
91T200 163V613Q200 632 199 643T194 661T182 670T161 675L123 682V693H392V682L355 675Q341 672 334 670T322 661T316 643T315 613V216Q315 168 304 127T268 55T206 7T116 -10Z" />
<glyph unicode="&#x135;" glyph-name="jcircumflex" horiz-adv-x="234" d="M392 712L498 577L493 570L374 632L256 570L251 577L356 712H392ZM173 9Q173 -41 161 -80T126 -145T72 -184T4 -198Q-45 -198 -69 -180T-93 -132Q-93 -112 -80 -99T-43 -85Q-21 -85 -9
-98T9 -146Q11 -165 15 -171T29 -178Q46 -178 57 -159T69 -97V422Q69 436 68 444T62 459T51 469T30 480L4 494V502L172 524L177 522Q176 511 175 483T173 407V9Z" />
<glyph unicode="&#x136;" glyph-name="Kcommaaccent" horiz-adv-x="623" d="M468 0Q438 34 407 74T345 159T286 250T234 343V351L437 592Q462 620 462 643Q462 654 454 661T425 673L392 682V693H605V682L583 676Q569 672 558 667T535 654T510 632T480 600L317
409Q343 362 375 311T440 212T505 122T564 51Q578 36 588 29T616 16L634 11V0H468ZM12 11L49 18Q62 21 70 23T82 32T88 50T89 80V613Q89 632 88 643T83 660T70 669T49 675L12 682V693H280V682L245 675Q231 672 223 670T211 661T205 643T204 613V80Q204 61 205 50T210
33T222 24T245 18L280 11V0H12V11ZM251 -213Q294 -195 311 -174T332 -126Q321 -137 300 -137Q280 -137 269 -125T258 -94Q258 -77 272 -62T312 -46Q339 -46 356 -63T374 -109Q374 -150 342 -181T254 -220L251 -213Z" />
<glyph unicode="&#x137;" glyph-name="kcommaaccent" horiz-adv-x="518" d="M381 0Q325 61 282 121T194 253V257L308 384Q340 420 350 439T360 466Q360 484 326 495L311 500V510H494V499L475 493Q460 488 448 483T426 471T405 454T382 431L273 312Q294 278 319
241T370 168T422 100T472 42Q483 30 490 25T512 14L524 10V0H381ZM178 71Q178 54 179 45T184 30T195 22T215 16L242 10V0H9V10L37 17Q50 20 57 23T67 31T72 46T73 71V659Q73 673 72 682T67 697T56 707T35 717L4 731V739L176 755L182 753Q181 736 180 717Q179 700
179 678T178 630V71ZM206 -213Q249 -195 266 -174T287 -126Q276 -137 255 -137Q235 -137 224 -125T213 -94Q213 -77 227 -62T267 -46Q294 -46 311 -63T329 -109Q329 -150 297 -181T209 -220L206 -213Z" />
<glyph unicode="&#x139;" glyph-name="Lacute" horiz-adv-x="538" d="M313 735L441 840Q450 848 460 852T479 856Q499 856 511 842T523 810Q523 774 482 766L316 728L313 735ZM12 11L49 18Q62 21 70 23T82 32T87 50T89 80V613Q89 632 88 643T83 660T70 669T49
675L12 682V693H282V682L245 675Q231 673 223 670T211 661T205 644T204 613V90Q204 69 206 56T219 35T250 25T309 22Q345 22 367 24T405 32T431 50T452 80Q467 107 482 142T511 218H524L510 0H12V11Z" />
<glyph unicode="&#x13a;" glyph-name="lacute" horiz-adv-x="251" d="M286 788L414 893Q423 901 433 905T452 909Q472 909 484 895T496 863Q496 827 455 819L289 781L286 788ZM178 71Q178 41 185 32T218 17L244 10V0H9V10L37 17Q62 23 68 32T74 71V656Q74 671
73 680T68 696T56 706T35 717L4 731V739L176 755L182 753Q181 736 180 717Q179 700 179 678T178 630V71Z" />
<glyph unicode="&#x13b;" glyph-name="Lcommaaccent" horiz-adv-x="538" d="M225 -213Q268 -195 285 -174T306 -126Q295 -137 274 -137Q254 -137 243 -125T232 -94Q232 -77 246 -62T286 -46Q313 -46 330 -63T348 -109Q348 -150 316 -181T228 -220L225 -213ZM12
11L49 18Q62 21 70 23T82 32T87 50T89 80V613Q89 632 88 643T83 660T70 669T49 675L12 682V693H282V682L245 675Q231 673 223 670T211 661T205 644T204 613V90Q204 69 206 56T219 35T250 25T309 22Q345 22 367 24T405 32T431 50T452 80Q467 107 482 142T511 218H524L510
0H12V11Z" />
<glyph unicode="&#x13c;" glyph-name="lcommaaccent" horiz-adv-x="251" d="M315 -213Q358 -195 375 -174T396 -126Q385 -137 364 -137Q344 -137 333 -125T322 -94Q322 -77 336 -62T376 -46Q403 -46 420 -63T438 -109Q438 -150 406 -181T318 -220L315 -213ZM178
71Q178 41 185 32T218 17L244 10V0H9V10L37 17Q62 23 68 32T74 71V656Q74 671 73 680T68 696T56 706T35 717L4 731V739L176 755L182 753Q181 736 180 717Q179 700 179 678T178 630V71Z" />
<glyph unicode="&#x13d;" glyph-name="Lcaron" horiz-adv-x="538" d="M321 791L325 920Q325 963 362 963Q382 963 393 953T406 926Q406 919 404 911T393 890L329 789L321 791ZM12 11L49 18Q62 21 70 23T82 32T87 50T89 80V613Q89 632 88 643T83 660T70 669T49
675L12 682V693H282V682L245 675Q231 673 223 670T211 661T205 644T204 613V90Q204 69 206 56T219 35T250 25T309 22Q345 22 367 24T405 32T431 50T452 80Q467 107 482 142T511 218H524L510 0H12V11Z" />
<glyph unicode="&#x13e;" glyph-name="lcaron" horiz-adv-x="251" d="M220 587L224 716Q224 759 261 759Q281 759 292 749T305 722Q305 715 303 707T292 686L228 585L220 587ZM178 71Q178 41 185 32T218 17L244 10V0H9V10L37 17Q62 23 68 32T74 71V656Q74 671
73 680T68 696T56 706T35 717L4 731V739L176 755L182 753Q181 736 180 717Q179 700 179 678T178 630V71Z" />
<glyph unicode="&#x13f;" glyph-name="Ldot" horiz-adv-x="538" d="M12 11L49 18Q62 21 70 23T82 32T87 50T89 80V613Q89 632 88 643T83 660T70 669T49 675L12 682V693H282V682L245 675Q231 673 223 670T211 661T205 644T204 613V90Q204 69 206 56T219 35T250
25T309 22Q345 22 368 24T406 32T433 50T455 80Q470 107 483 138T511 207H523L510 0H12V11ZM432 314Q406 314 388 332T370 376Q370 403 388 420T432 438Q458 438 476 421T495 376Q495 350 477 332T432 314Z" />
<glyph unicode="&#x140;" glyph-name="ldot" horiz-adv-x="322" d="M178 71Q178 41 185 32T218 17L244 10V0H9V10L37 17Q62 23 68 32T74 71V656Q74 671 73 680T68 696T56 706T35 717L4 731V739L176 755L182 753Q181 736 180 717Q179 700 179 678T178 630V71ZM217
380Q217 406 234 423T277 440Q302 440 319 423T337 380Q337 356 320 338T277 320Q252 320 235 338T217 380Z" />
<glyph unicode="&#x141;" glyph-name="Lslash" horiz-adv-x="542" d="M12 285L93 318V613Q93 632 92 643T87 660T74 669T53 675L16 682V693H286V682L248 675Q234 673 226 670T214 661T209 644T207 613V365L396 444V420L207 341V91Q207 70 209 57T222 36T254 25T312
22Q348 22 371 24T409 32T435 50T456 80Q471 107 486 142T515 218H528L514 0H16V11L53 18Q66 21 74 23T86 32T91 50T93 80V294L12 261V285Z" />
<glyph unicode="&#x142;" glyph-name="lslash" horiz-adv-x="251" d="M179 460L254 502V475L179 433V71Q179 41 186 32T218 17L244 10V0H9V10L37 17Q62 23 68 32T74 71V374L1 333V360L74 401V656Q74 671 73 680T68 696T56 706T35 717L4 731V739L177 755L183 753Q182
736 181 717Q180 700 180 678T179 630V460Z" />
<glyph unicode="&#x143;" glyph-name="Nacute" horiz-adv-x="653" d="M252 735L380 840Q389 848 399 852T418 856Q438 856 450 842T462 810Q462 774 421 766L255 728L252 735ZM120 620H117V99Q117 76 118 63T123 41T136 28T159 20L198 11V0H12V11L50 20Q62 23
69 27T81 40T87 61T89 98V613Q89 647 81 658T49 675L14 682V693H206L536 187H539V594Q539 616 538 630T533 652T520 665T498 673L455 682V693H642V682L606 673Q594 670 586 665T574 652T569 631T567 596V-4H528L120 620Z" />
<glyph unicode="&#x144;" glyph-name="nacute" horiz-adv-x="565" d="M204 581L317 688Q328 697 337 701T357 706Q376 706 389 693T402 659Q402 644 393 632T364 614L208 574L204 581ZM10 10L38 17Q51 20 58 23T69 31T74 44T75 68V423Q75 437 74 445T68 459T57
469T37 480L12 494V502L173 524L179 522L178 459H179Q197 471 219 483T266 505T315 521T365 527Q437 527 467 494T497 393V68Q497 53 498 45T502 31T513 23T534 17L562 10V0H328V10L356 16Q368 19 375 21T386 29T391 44T392 68V375Q392 428 375 448T314 469Q268
469 235 460T179 442V68Q179 53 180 44T185 30T196 22T216 16L245 10V0H10V10Z" />
<glyph unicode="&#x145;" glyph-name="Ncommaaccent" horiz-adv-x="653" d="M259 -213Q302 -195 319 -174T340 -126Q329 -137 308 -137Q288 -137 277 -125T266 -94Q266 -77 280 -62T320 -46Q347 -46 364 -63T382 -109Q382 -150 350 -181T262 -220L259 -213ZM120
620H117V99Q117 76 118 63T123 41T136 28T159 20L198 11V0H12V11L50 20Q62 23 69 27T81 40T87 61T89 98V613Q89 647 81 658T49 675L14 682V693H206L536 187H539V594Q539 616 538 630T533 652T520 665T498 673L455 682V693H642V682L606 673Q594 670 586 665T574
652T569 631T567 596V-4H528L120 620Z" />
<glyph unicode="&#x146;" glyph-name="ncommaaccent" horiz-adv-x="565" d="M212 -213Q255 -195 272 -174T293 -126Q282 -137 261 -137Q241 -137 230 -125T219 -94Q219 -77 233 -62T273 -46Q300 -46 317 -63T335 -109Q335 -150 303 -181T215 -220L212 -213ZM10
10L38 17Q51 20 58 23T69 31T74 44T75 68V423Q75 437 74 445T68 459T57 469T37 480L12 494V502L173 524L179 522L178 459H179Q197 471 219 483T266 505T315 521T365 527Q437 527 467 494T497 393V68Q497 53 498 45T502 31T513 23T534 17L562 10V0H328V10L356 16Q368
19 375 21T386 29T391 44T392 68V375Q392 428 375 448T314 469Q268 469 235 460T179 442V68Q179 53 180 44T185 30T196 22T216 16L245 10V0H10V10Z" />
<glyph unicode="&#x147;" glyph-name="Ncaron" horiz-adv-x="653" d="M209 859L340 806L470 859L475 852L358 728H321L203 852L209 859ZM120 620H117V99Q117 76 118 63T123 41T136 28T159 20L198 11V0H12V11L50 20Q62 23 69 27T81 40T87 61T89 98V613Q89 647 81
658T49 675L14 682V693H206L536 187H539V594Q539 616 538 630T533 652T520 665T498 673L455 682V693H642V682L606 673Q594 670 586 665T574 652T569 631T567 596V-4H528L120 620Z" />
<glyph unicode="&#x148;" glyph-name="ncaron" horiz-adv-x="565" d="M259 576L154 711L159 718L277 657L396 718L401 711L295 576H259ZM10 10L38 17Q51 20 58 23T69 31T74 44T75 68V423Q75 437 74 445T68 459T57 469T37 480L12 494V502L173 524L179 522L178 459H179Q197
471 219 483T266 505T315 521T365 527Q437 527 467 494T497 393V68Q497 53 498 45T502 31T513 23T534 17L562 10V0H328V10L356 16Q368 19 375 21T386 29T391 44T392 68V375Q392 428 375 448T314 469Q268 469 235 460T179 442V68Q179 53 180 44T185 30T196 22T216
16L245 10V0H10V10Z" />
<glyph unicode="&#x149;" glyph-name="napostrophe" horiz-adv-x="579" d="M-46 526Q-1 547 15 570T33 621Q23 609 1 609Q-18 609 -30 622T-42 655Q-42 675 -27 690T14 706Q41 706 59 688T77 637Q77 595 46 563T-43 519L-46 526ZM24 10L52 17Q65 20 72 23T83 31T88
44T89 68V423Q89 437 88 445T82 459T71 469T51 480L26 494V502L187 524L193 522L192 459H193Q211 471 233 483T280 505T329 521T379 527Q451 527 481 494T511 393V68Q511 53 512 45T516 31T527 23T548 17L576 10V0H342V10L370 16Q382 19 389 21T400 29T405 44T406
68V375Q406 428 389 448T328 469Q282 469 249 460T193 442V68Q193 53 194 44T199 30T210 22T230 16L259 10V0H24V10Z" />
<glyph unicode="&#x14a;" glyph-name="Eng" horiz-adv-x="653" d="M120 620H117V99Q117 76 118 63T123 41T136 28T159 20L198 11V0H12V11L50 20Q62 23 69 27T81 39T87 61T89 98V613Q89 647 81 658T49 675L14 682V693H206L536 187H539V594Q539 616 538 630T533
652T520 665T498 673L455 682V693H642V682L606 673Q594 670 586 665T574 652T569 631T567 596V0Q567 -163 432 -163Q381 -163 358 -144T334 -95Q334 -76 347 -62T383 -48Q409 -48 421 -61T441 -109Q444 -125 449 -131T465 -137Q478 -137 490 -130T513 -107T530
-70T537 -17L120 620Z" />
<glyph unicode="&#x14b;" glyph-name="eng" horiz-adv-x="563" d="M392 375Q392 428 375 448T314 469Q268 469 235 460T179 442V68Q179 53 180 44T185 30T196 22T216 16L245 10V0H10V10L38 17Q51 20 58 23T69 31T74 44T75 68V423Q75 437 74 445T68 459T57 469T37
480L12 494V502L173 524L179 522L178 459H179Q197 471 219 483T266 505T315 521T365 527Q437 527 467 494T497 393V12Q497 -41 484 -80T447 -145T394 -185T328 -198Q280 -198 256 -181T231 -135Q231 -115 243 -103T279 -90Q299 -90 311 -103T328 -148Q331 -165
336 -171T349 -177Q366 -177 379 -159T392 -97V375V375Z" />
<glyph unicode="&#x14c;" glyph-name="Omacron" horiz-adv-x="681" d="M219 800H462V754H219V800ZM338 -10Q271 -10 214 11T115 76T49 184T25 337Q25 436 52 505T124 619T226 683T343 703Q410 703 467 682T566 616T632 506T656 351Q656 252 629 184T557 72T455
10T338 -10ZM340 12Q441 12 488 90T535 334Q535 416 524 480T489 589T429 657T341 681Q240 681 193 601T146 354Q146 183 195 98T340 12Z" />
<glyph unicode="&#x14d;" glyph-name="omacron" horiz-adv-x="546" d="M158 650H384V605H158V650ZM273 -10Q220 -10 175 6T95 56T42 139T22 256Q22 322 43 373T99 458T180 509T273 527Q325 527 371 511T451 461T504 378T524 261Q524 195 503 145T447 60T366 8T273
-10ZM277 10Q346 10 379 67T412 248Q412 317 403 366T377 446T333 491T271 506Q204 506 169 450T134 267Q134 129 169 70T277 10Z" />
<glyph unicode="&#x14e;" glyph-name="Obreve" horiz-adv-x="681" d="M340 730Q310 730 289 740T254 768T233 808T224 854L232 856Q246 827 269 812T339 797Q386 797 408 813T444 856L451 854Q449 830 443 808T423 769T389 741T340 730ZM338 -10Q271 -10 214 11T115
76T49 184T25 337Q25 436 52 505T124 619T226 683T343 703Q410 703 467 682T566 616T632 506T656 351Q656 252 629 184T557 72T455 10T338 -10ZM340 12Q441 12 488 90T535 334Q535 416 524 480T489 589T429 657T341 681Q240 681 193 601T146 354Q146 183 195 98T340
12Z" />
<glyph unicode="&#x14f;" glyph-name="obreve" horiz-adv-x="546" d="M273 -10Q220 -10 175 6T95 56T42 139T22 256Q22 322 43 373T99 458T180 509T273 527Q325 527 371 511T451 461T504 378T524 261Q524 195 503 145T447 60T366 8T273 -10ZM277 10Q346 10 379
67T412 248Q412 317 403 366T377 446T333 491T271 506Q204 506 169 450T134 267Q134 129 169 70T277 10ZM273 579Q244 579 224 588T191 614T170 654T162 703L170 705Q181 676 207 661T272 645Q309 645 334 661T371 705L379 703Q377 650 351 615T273 579Z" />
<glyph unicode="&#x150;" glyph-name="Ohungarumlaut" horiz-adv-x="681" d="M234 736L294 848Q311 883 338 883Q356 883 369 871T383 841Q383 828 376 817T349 794L241 730L234 736ZM397 736L457 848Q474 883 501 883Q519 883 532 871T546 841Q546 828 539 817T513
794L404 730L397 736ZM338 -10Q271 -10 214 11T115 76T49 184T25 337Q25 436 52 505T124 619T226 683T343 703Q410 703 467 682T566 616T632 506T656 351Q656 252 629 184T557 72T455 10T338 -10ZM340 12Q441 12 488 90T535 334Q535 416 524 480T489 589T429 657T341
681Q240 681 193 601T146 354Q146 183 195 98T340 12Z" />
<glyph unicode="&#x151;" glyph-name="ohungarumlaut" horiz-adv-x="546" d="M157 576L223 697Q240 729 267 729Q284 729 297 716T310 685Q310 674 303 662T278 638L163 569L157 576ZM309 576L375 697Q392 729 418 729Q435 729 448 716T462 685Q462 674 455 662T430
638L315 569L309 576ZM273 -10Q220 -10 175 6T95 56T42 139T22 256Q22 322 43 373T99 458T180 509T273 527Q325 527 371 511T451 461T504 378T524 261Q524 195 503 145T447 60T366 8T273 -10ZM277 10Q346 10 379 67T412 248Q412 317 403 366T377 446T333 491T271
506Q204 506 169 450T134 267Q134 129 169 70T277 10Z" />
<glyph unicode="&#x152;" glyph-name="OE" horiz-adv-x="940" d="M903 0H358Q285 0 224 17T119 74T50 179T25 340Q25 428 49 494T118 605T225 671T364 693H883L894 518H882Q869 550 857 576T834 620Q823 636 813 646T787 661T749 668T692 670Q654 670 628 668T580
661V371H638Q669 371 688 372T719 377T737 388T749 406Q757 420 762 438T773 480H784V240H773Q768 262 762 281T749 314Q744 325 738 332T720 342T689 347T638 348H580V103Q580 74 582 58T597 35T634 25T703 23Q739 23 761 25T798 33T822 49T843 74Q861 100 876
136T905 210H917L903 0ZM374 23Q397 23 414 26T442 40T459 68T465 116V597Q465 621 460 636T444 658T416 668T374 671Q311 671 268 646T197 578T157 479T144 359Q144 279 157 217T198 111T269 46T374 23Z" />
<glyph unicode="&#x153;" glyph-name="oe" horiz-adv-x="873" d="M273 -10Q220 -10 175 6T95 56T42 139T22 256Q22 322 43 373T100 458T180 509T274 527Q340 527 389 500T468 419Q499 470 547 498T653 527Q748 527 801 471T853 290H518V282Q518 218 530 173T564
100T620 58T695 44Q740 44 776 53T841 80V67Q814 37 768 13T659 -12Q581 -12 532 14T457 91Q426 41 378 16T273 -10ZM273 10Q339 10 371 67T404 248Q404 317 396 366T372 446T331 491T272 506Q241 506 216 493T173 450T146 376T136 267Q136 129 169 70T273 10ZM649
506Q594 506 558 459T518 306L743 315Q743 416 723 461T649 506Z" />
<glyph unicode="&#x154;" glyph-name="Racute" horiz-adv-x="613" d="M207 735L335 840Q344 848 354 852T373 856Q393 856 405 842T417 810Q417 774 376 766L210 728L207 735ZM12 11L49 18Q62 21 70 23T82 32T87 49T89 80V613Q89 632 88 643T82 660T70 669T49
675L12 682V693H306Q424 693 479 652T534 527Q534 457 496 415T387 350V348Q405 314 427 274T474 193T521 117T562 57Q581 32 591 25T615 15L633 11V0H465Q442 33 418 72T370 153T323 239T278 326Q263 326 244 326T204 328V80Q204 61 205 50T210 33T222 24T244
18L280 11V0H12V11ZM267 349Q341 349 379 386T417 511Q417 600 384 635T289 670Q262 670 242 668T204 662V354Q214 352 229 351T267 349Z" />
<glyph unicode="&#x155;" glyph-name="racute" horiz-adv-x="391" d="M135 581L248 688Q259 697 268 701T288 706Q307 706 320 693T333 659Q333 644 324 632T295 614L139 574L135 581ZM10 10L38 17Q63 23 69 31T75 69V422Q75 436 74 444T69 458T58 468T37 480L12
494V502L173 524L179 520L178 448H180Q195 461 211 475T246 501T284 519T322 527Q353 527 369 511T386 466Q386 440 371 425T333 410Q310 410 300 421T281 447Q276 460 272 464T258 469Q245 469 223 457T179 428V69Q179 43 184 33T213 18L256 10V0H10V10Z" />
<glyph unicode="&#x156;" glyph-name="Rcommaaccent" horiz-adv-x="613" d="M243 -213Q286 -195 303 -174T324 -126Q313 -137 292 -137Q272 -137 261 -125T250 -94Q250 -77 264 -62T304 -46Q331 -46 348 -63T366 -109Q366 -150 334 -181T246 -220L243 -213ZM12
11L49 18Q62 21 70 23T82 32T87 49T89 80V613Q89 632 88 643T82 660T70 669T49 675L12 682V693H306Q424 693 479 652T534 527Q534 457 496 415T387 350V348Q405 314 427 274T474 193T521 117T562 57Q581 32 591 25T615 15L633 11V0H465Q442 33 418 72T370 153T323
239T278 326Q263 326 244 326T204 328V80Q204 61 205 50T210 33T222 24T244 18L280 11V0H12V11ZM267 349Q341 349 379 386T417 511Q417 600 384 635T289 670Q262 670 242 668T204 662V354Q214 352 229 351T267 349Z" />
<glyph unicode="&#x157;" glyph-name="rcommaaccent" horiz-adv-x="391" d="M317 -213Q360 -195 377 -174T398 -126Q387 -137 366 -137Q346 -137 335 -125T324 -94Q324 -77 338 -62T378 -46Q405 -46 422 -63T440 -109Q440 -150 408 -181T320 -220L317 -213ZM10
10L38 17Q63 23 69 31T75 69V422Q75 436 74 444T69 458T58 468T37 480L12 494V502L173 524L179 520L178 448H180Q195 461 211 475T246 501T284 519T322 527Q353 527 369 511T386 466Q386 440 371 425T333 410Q310 410 300 421T281 447Q276 460 272 464T258 469Q245
469 223 457T179 428V69Q179 43 184 33T213 18L256 10V0H10V10Z" />
<glyph unicode="&#x158;" glyph-name="Rcaron" horiz-adv-x="613" d="M157 859L288 806L418 859L423 852L306 728H269L151 852L157 859ZM12 11L49 18Q62 21 70 23T82 32T87 49T89 80V613Q89 632 88 643T82 660T70 669T49 675L12 682V693H306Q424 693 479 652T534
527Q534 457 496 415T387 350V348Q405 314 427 274T474 193T521 117T562 57Q581 32 591 25T615 15L633 11V0H465Q442 33 418 72T370 153T323 239T278 326Q263 326 244 326T204 328V80Q204 61 205 50T210 33T222 24T244 18L280 11V0H12V11ZM267 349Q341 349 379
386T417 511Q417 600 384 635T289 670Q262 670 242 668T204 662V354Q214 352 229 351T267 349Z" />
<glyph unicode="&#x159;" glyph-name="rcaron" horiz-adv-x="391" d="M449 576L344 711L349 718L467 657L586 718L591 711L485 576H449ZM10 10L38 17Q63 23 69 31T75 69V422Q75 436 74 444T69 458T58 468T37 480L12 494V502L173 524L179 520L178 448H180Q195 461
211 475T246 501T284 519T322 527Q353 527 369 511T386 466Q386 440 371 425T333 410Q310 410 300 421T281 447Q276 460 272 464T258 469Q245 469 223 457T179 428V69Q179 43 184 33T213 18L256 10V0H10V10Z" />
<glyph unicode="&#x15a;" glyph-name="Sacute" horiz-adv-x="475" d="M219 -10Q99 -10 29 24L16 200H29Q45 165 58 138T90 83Q113 47 144 30T227 12Q289 12 323 47T357 141Q357 169 349 190T323 230T276 267T203 307Q165 324 134 343T79 387T44 441T31 511Q31
551 45 586T88 647T156 688T247 703Q298 703 338 695T402 676L413 514H401Q386 547 373 572T345 620Q334 637 324 648T302 667T275 678T237 681Q179 681 147 652T114 567Q114 539 121 518T145 480T186 447T248 414Q302 388 340 366T402 318T437 264T449 194Q449
156 435 120T393 55T321 8T219 -10ZM147 735L275 840Q284 848 294 852T313 856Q333 856 345 842T357 810Q357 774 316 766L150 728L147 735Z" />
<glyph unicode="&#x15b;" glyph-name="sacute" horiz-adv-x="392" d="M371 581L484 688Q495 697 504 701T524 706Q543 706 556 693T569 659Q569 644 560 632T531 614L375 574L371 581ZM179 -10Q131 -10 93 -4T24 13L21 159H32Q44 134 53 114T74 77Q94 41 119 26T188
10Q233 10 259 35T285 103Q285 123 279 138T258 167T222 191T167 216Q133 229 107 244T62 279T35 321T26 376Q26 409 39 437T76 485T133 516T208 527Q247 527 280 521T339 504L342 378H331Q318 403 308 422T287 457Q270 482 251 494T197 506Q150 506 125 482T100
421Q100 383 129 360T220 312Q254 298 282 284T329 250T359 208T370 152Q370 118 358 89T321 37T261 3T179 -10Z" />
<glyph unicode="&#x15c;" glyph-name="Scircumflex" horiz-adv-x="475" d="M100 730L218 854H255L372 730L367 723L237 776L106 723L100 730ZM219 -10Q99 -10 29 24L16 200H29Q45 165 58 138T90 83Q113 47 144 30T227 12Q289 12 323 47T357 141Q357 169 349 190T323
230T276 267T203 307Q165 324 134 343T79 387T44 441T31 511Q31 551 45 586T88 647T156 688T247 703Q298 703 338 695T402 676L413 514H401Q386 547 373 572T345 620Q334 637 324 648T302 667T275 678T237 681Q179 681 147 652T114 567Q114 539 121 518T145 480T186
447T248 414Q302 388 340 366T402 318T437 264T449 194Q449 156 435 120T393 55T321 8T219 -10Z" />
<glyph unicode="&#x15d;" glyph-name="scircumflex" horiz-adv-x="392" d="M471 712L577 577L572 570L453 632L335 570L330 577L435 712H471ZM179 -10Q131 -10 93 -4T24 13L21 159H32Q44 134 53 114T74 77Q94 41 119 26T188 10Q233 10 259 35T285 103Q285 123
279 138T258 167T222 191T167 216Q133 229 107 244T62 279T35 321T26 376Q26 409 39 437T76 485T133 516T208 527Q247 527 280 521T339 504L342 378H331Q318 403 308 422T287 457Q270 482 251 494T197 506Q150 506 125 482T100 421Q100 383 129 360T220 312Q254
298 282 284T329 250T359 208T370 152Q370 118 358 89T321 37T261 3T179 -10Z" />
<glyph unicode="&#x15e;" glyph-name="Scedilla" horiz-adv-x="475" d="M219 -10Q99 -10 29 24L16 200H29Q45 165 58 138T90 83Q113 47 144 30T227 12Q289 12 323 47T357 141Q357 169 349 190T323 230T276 267T203 307Q165 324 134 343T79 387T44 441T31 511Q31
551 45 586T88 647T156 688T247 703Q298 703 338 695T402 676L413 514H401Q386 547 373 572T345 620Q334 637 324 648T302 667T275 678T237 681Q179 681 147 652T114 567Q114 539 121 518T145 480T186 447T248 414Q302 388 340 366T402 318T437 264T449 194Q449
156 435 120T393 55T321 8T219 -10ZM387 -189Q434 -175 455 -160T476 -124Q476 -111 464 -102T426 -91L423 -87L464 0H490L464 -48Q499 -52 521 -66T543 -110Q543 -146 501 -169T387 -199V-189Z" />
<glyph unicode="&#x15f;" glyph-name="scedilla" horiz-adv-x="392" d="M179 -10Q131 -10 93 -4T24 13L21 159H32Q44 134 53 114T74 77Q94 41 119 26T188 10Q233 10 259 35T285 103Q285 123 279 138T258 167T222 191T167 216Q133 229 107 244T62 279T35 321T26
376Q26 409 39 437T76 485T133 516T208 527Q247 527 280 521T339 504L342 378H331Q318 403 308 422T287 457Q270 482 251 494T197 506Q150 506 125 482T100 421Q100 383 129 360T220 312Q254 298 282 284T329 250T359 208T370 152Q370 118 358 89T321 37T261 3T179
-10ZM336 -189Q383 -175 404 -160T425 -124Q425 -111 413 -102T375 -91L372 -87L413 0H439L413 -48Q448 -52 470 -66T492 -110Q492 -146 450 -169T336 -199V-189Z" />
<glyph unicode="&#x160;" glyph-name="Scaron" horiz-adv-x="475" d="M108 859L239 806L369 859L374 852L257 728H220L102 852L108 859ZM219 -10Q99 -10 29 24L16 200H29Q45 165 58 138T90 83Q113 47 144 30T227 12Q289 12 323 47T357 141Q357 169 349 190T323
230T276 267T203 307Q165 324 134 343T79 387T44 441T31 511Q31 551 45 586T88 647T156 688T247 703Q298 703 338 695T402 676L413 514H401Q386 547 373 572T345 620Q334 637 324 648T302 667T275 678T237 681Q179 681 147 652T114 567Q114 539 121 518T145 480T186
447T248 414Q302 388 340 366T402 318T437 264T449 194Q449 156 435 120T393 55T321 8T219 -10Z" />
<glyph unicode="&#x161;" glyph-name="scaron" horiz-adv-x="392" d="M437 576L332 711L337 718L455 657L574 718L579 711L473 576H437ZM179 -10Q131 -10 93 -4T24 13L21 159H32Q44 134 53 114T74 77Q94 41 119 26T188 10Q233 10 259 35T285 103Q285 123 279 138T258
167T222 191T167 216Q133 229 107 244T62 279T35 321T26 376Q26 409 39 437T76 485T133 516T208 527Q247 527 280 521T339 504L342 378H331Q318 403 308 422T287 457Q270 482 251 494T197 506Q150 506 125 482T100 421Q100 383 129 360T220 312Q254 298 282 284T329
250T359 208T370 152Q370 118 358 89T321 37T261 3T179 -10Z" />
<glyph unicode="&#x162;" glyph-name="Tcommaaccent" horiz-adv-x="569" d="M219 -213Q262 -195 279 -174T300 -126Q289 -137 268 -137Q248 -137 237 -125T226 -94Q226 -77 240 -62T280 -46Q307 -46 324 -63T342 -109Q342 -150 310 -181T222 -220L219 -213ZM598
671V80Q598 61 599 50T604 33T617 24T641 18L678 11V0H404V11L442 18Q456 21 464 23T477 32T483 50T484 80V671H451Q418 671 398 668T365 657T345 637T329 608Q317 584 304 553T277 487H265L276 693H806L816 487H804Q791 522 778 553T754 608Q746 625 738 637T718
656T685 667T632 671H598Z" />
<glyph unicode="&#x163;" glyph-name="tcommaaccent" horiz-adv-x="312" d="M360 -213Q403 -195 420 -174T441 -126Q430 -137 409 -137Q389 -137 378 -125T367 -94Q367 -77 381 -62T421 -46Q448 -46 465 -63T483 -109Q483 -150 451 -181T363 -220L360 -213ZM178
-10Q124 -10 93 16T62 99V475H4V484Q55 504 92 541T150 630H166V510H300L296 475H166V103Q166 66 182 52T233 37Q256 37 274 41T307 51V40Q290 24 257 7T178 -10Z" />
<glyph unicode="&#x164;" glyph-name="Tcaron" horiz-adv-x="571" d="M154 859L285 806L415 859L420 852L303 728H266L148 852L154 859ZM598 671V80Q598 61 599 50T604 33T617 24T641 18L678 11V0H404V11L442 18Q456 21 464 23T477 32T483 50T484 80V671H451Q418
671 398 668T365 657T345 637T329 608Q317 584 304 553T277 487H265L276 693H806L816 487H804Q791 522 778 553T754 608Q746 625 738 637T718 656T685 667T632 671H598Z" />
<glyph unicode="&#x165;" glyph-name="tcaron" horiz-adv-x="312" d="M214 587L218 716Q218 759 255 759Q275 759 286 749T299 722Q299 715 297 707T286 686L222 585L214 587ZM178 -10Q124 -10 93 16T62 99V475H4V484Q55 504 92 541T150 630H166V510H300L296 475H166V103Q166
66 182 52T233 37Q256 37 274 41T307 51V40Q290 24 257 7T178 -10Z" />
<glyph unicode="&#x166;" glyph-name="Tbar" horiz-adv-x="571" d="M84 393H228V671H195Q162 671 142 668T109 657T89 637T73 608Q62 584 49 553T21 487H10L20 693H550L560 487H548Q535 522 522 553T498 608Q490 625 482 637T462 656T429 667T376 671H342V393H487V368H342V80Q342
61 343 50T348 33T361 24T385 18L422 11V0H148V11L186 18Q200 21 208 23T221 32T227 50T228 80V368H84V393Z" />
<glyph unicode="&#x167;" glyph-name="tbar" horiz-adv-x="312" d="M4 356H297V332H4V356ZM180 -10Q126 -10 95 16T64 99V475H6V484Q57 504 94 541T152 630H168V510H302L298 475H168V103Q168 66 184 52T235 37Q258 37 276 41T309 51V40Q292 24 259 7T180 -10Z" />
<glyph unicode="&#x168;" glyph-name="Utilde" horiz-adv-x="665" d="M342 -10Q281 -10 233 2T152 41T101 112T83 219V613Q83 632 82 643T77 660T64 669T43 675L5 682V693H274V682L238 675Q224 672 216 669T204 660T198 643T197 613V213Q197 118 241 76T378 33Q469
33 508 80T548 219V594Q548 615 547 629T542 651T530 665T507 673L461 682V693H660V682L621 673Q597 668 590 653T583 596V209Q583 163 570 123T529 54T454 7T342 -10ZM435 747Q418 747 400 750T362 758T325 767T290 771Q270 771 259 763T234 731L224 736Q241 784
259 813T313 842Q329 842 347 838T384 830T421 822T454 818Q474 818 487 827T515 859L525 854Q509 806 491 777T435 747Z" />
<glyph unicode="&#x169;" glyph-name="utilde" horiz-adv-x="561" d="M387 418Q387 433 386 442T382 457T371 467T351 479L325 494V502L486 524L491 521V94Q491 77 492 67T498 51T509 40T529 31L556 21V12L394 -10L388 -8V57H385Q348 32 302 11T200 -10Q139 -10
105 23T70 120V419Q70 434 69 442T64 457T53 467T34 479L8 494V502L168 524L174 521V140Q174 92 196 70T260 47Q296 47 329 56T387 76V418ZM147 581Q156 605 164 624T181 658T203 679T232 687Q245 687 261 684T294 678T325 672T352 669Q375 669 386 678T410 708L420
704Q411 680 404 661T386 628T364 607T332 599Q304 599 271 607T212 616Q190 616 179 607T157 577L147 581Z" />
<glyph unicode="&#x16a;" glyph-name="Umacron" horiz-adv-x="665" d="M342 -10Q281 -10 233 2T152 41T101 112T83 219V613Q83 632 82 643T77 660T64 669T43 675L5 682V693H274V682L238 675Q224 672 216 669T204 660T198 643T197 613V213Q197 118 241 76T378 33Q469
33 508 80T548 219V594Q548 615 547 629T542 651T530 665T507 673L461 682V693H660V682L621 673Q597 668 590 653T583 596V209Q583 163 570 123T529 54T454 7T342 -10ZM238 800H481V754H238V800Z" />
<glyph unicode="&#x16b;" glyph-name="umacron" horiz-adv-x="561" d="M387 418Q387 433 386 442T382 457T371 467T351 479L325 494V502L486 524L491 521V94Q491 77 492 67T498 51T509 40T529 31L556 21V12L394 -10L388 -8V57H385Q348 32 302 11T200 -10Q139 -10
105 23T70 120V419Q70 434 69 442T64 457T53 467T34 479L8 494V502L168 524L174 521V140Q174 92 196 70T260 47Q296 47 329 56T387 76V418ZM159 650H385V605H159V650Z" />
<glyph unicode="&#x16c;" glyph-name="Ubreve" horiz-adv-x="665" d="M342 -10Q281 -10 233 2T152 41T101 112T83 219V613Q83 632 82 643T77 660T64 669T43 675L5 682V693H274V682L238 675Q224 672 216 669T204 660T198 643T197 613V213Q197 118 241 76T378 33Q469
33 508 80T548 219V594Q548 615 547 629T542 651T530 665T507 673L461 682V693H660V682L621 673Q597 668 590 653T583 596V209Q583 163 570 123T529 54T454 7T342 -10ZM363 730Q333 730 312 740T277 768T256 808T247 854L255 856Q269 827 292 812T362 797Q409 797
431 813T467 856L474 854Q472 830 466 808T446 769T412 741T363 730Z" />
<glyph unicode="&#x16d;" glyph-name="ubreve" horiz-adv-x="561" d="M387 418Q387 433 386 442T382 457T371 467T351 479L325 494V502L486 524L491 521V94Q491 77 492 67T498 51T509 40T529 31L556 21V12L394 -10L388 -8V57H385Q348 32 302 11T200 -10Q139 -10
105 23T70 120V419Q70 434 69 442T64 457T53 467T34 479L8 494V502L168 524L174 521V140Q174 92 196 70T260 47Q296 47 329 56T387 76V418ZM282 579Q253 579 233 588T200 614T179 654T171 703L179 705Q190 676 216 661T281 645Q318 645 343 661T380 705L388 703Q386
650 360 615T282 579Z" />
<glyph unicode="&#x16e;" glyph-name="Uring" horiz-adv-x="665" d="M342 -10Q281 -10 233 2T152 41T101 112T83 219V613Q83 632 82 643T77 660T64 669T43 675L5 682V693H274V682L238 675Q224 672 216 669T204 660T198 643T197 613V213Q197 118 241 76T378 33Q469
33 508 80T548 219V594Q548 615 547 629T542 651T530 665T507 673L461 682V693H660V682L621 673Q597 668 590 653T583 596V209Q583 163 570 123T529 54T454 7T342 -10ZM283 790Q283 825 307 847T367 870Q402 870 426 848T451 790Q451 756 427 734T367 711Q332 711
308 733T283 790ZM310 790Q310 766 325 749T367 732Q393 732 408 749T424 790Q424 814 409 831T367 849Q341 849 326 832T310 790Z" />
<glyph unicode="&#x16f;" glyph-name="uring" horiz-adv-x="561" d="M191 655Q191 690 215 713T275 736Q310 736 334 713T359 655Q359 621 335 599T275 576Q240 576 216 598T191 655ZM218 655Q218 631 233 614T275 597Q301 597 316 614T332 655Q332 680 317 697T275
715Q249 715 234 698T218 655ZM387 418Q387 433 386 442T382 457T371 467T351 479L325 494V502L486 524L491 521V94Q491 77 492 67T498 51T509 40T529 31L556 21V12L394 -10L388 -8V57H385Q348 32 302 11T200 -10Q139 -10 105 23T70 120V419Q70 434 69 442T64 457T53
467T34 479L8 494V502L168 524L174 521V140Q174 92 196 70T260 47Q296 47 329 56T387 76V418Z" />
<glyph unicode="&#x170;" glyph-name="Uhungarumlaut" horiz-adv-x="665" d="M247 736L307 848Q324 883 351 883Q369 883 382 871T396 841Q396 828 389 817T362 794L254 730L247 736ZM410 736L470 848Q487 883 514 883Q532 883 545 871T559 841Q559 828 552 817T526
794L417 730L410 736ZM342 -10Q281 -10 233 2T152 41T101 112T83 219V613Q83 632 82 643T77 660T64 669T43 675L5 682V693H274V682L238 675Q224 672 216 669T204 660T198 643T197 613V213Q197 118 241 76T378 33Q469 33 508 80T548 219V594Q548 615 547 629T542
651T530 665T507 673L461 682V693H660V682L621 673Q597 668 590 653T583 596V209Q583 163 570 123T529 54T454 7T342 -10Z" />
<glyph unicode="&#x171;" glyph-name="uhungarumlaut" horiz-adv-x="561" d="M387 418Q387 433 386 442T382 457T371 467T351 479L325 494V502L486 524L491 521V94Q491 77 492 67T498 51T509 40T529 31L556 21V12L394 -10L388 -8V57H385Q348 32 302 11T200 -10Q139
-10 105 23T70 120V419Q70 434 69 442T64 457T53 467T34 479L8 494V502L168 524L174 521V140Q174 92 196 70T260 47Q296 47 329 56T387 76V418ZM163 576L229 697Q246 729 273 729Q290 729 303 716T316 685Q316 674 309 662T284 638L169 569L163 576ZM315 576L381
697Q398 729 424 729Q441 729 454 716T468 685Q468 674 461 662T436 638L321 569L315 576Z" />
<glyph unicode="&#x172;" glyph-name="Uogonek" horiz-adv-x="665" d="M342 -10Q281 -10 233 2T152 41T101 112T83 219V613Q83 632 82 643T77 660T64 669T43 675L5 682V693H274V682L238 675Q224 672 216 669T204 660T198 643T197 613V213Q197 118 241 76T378 33Q469
33 508 80T548 219V594Q548 615 547 629T542 651T530 665T507 673L461 682V693H660V682L621 673Q597 668 590 653T583 596V209Q583 140 556 93T470 9Q441 -8 422 -23T391 -54T374 -85T369 -119Q369 -145 384 -156T422 -168Q444 -168 460 -161V-173Q447 -187 425
-195T379 -203Q334 -203 311 -184T288 -132Q288 -99 317 -67T421 -4Q403 -7 382 -8T342 -10Z" />
<glyph unicode="&#x173;" glyph-name="uogonek" horiz-adv-x="561" d="M386 57H382Q345 32 299 11T197 -10Q136 -10 102 23T67 120V418Q67 433 66 442T62 457T51 467T31 479L5 494V502L165 524L171 521V140Q171 92 193 70T257 47Q293 47 326 56T384 76V417Q384
432 383 441T379 456T368 467T348 479L322 494V502L483 524L488 521V94Q488 77 489 67T495 51T506 40T526 31L553 21V12L505 5Q464 -1 437 -12T394 -39T370 -74T363 -117Q363 -145 378 -156T419 -168Q431 -168 439 -166T456 -161V-172Q445 -186 424 -194T378 -203Q330
-203 307 -183T283 -129Q283 -95 307 -68T386 -13V57Z" />
<glyph unicode="&#x174;" glyph-name="Wcircumflex" horiz-adv-x="932" d="M341 730L459 854H496L613 730L608 723L478 776L347 723L341 730ZM823 573Q828 593 831 607T834 635Q834 653 825 661T794 675L764 682V693H944V682L927 676Q912 671 902 665T883 646T868
614T851 563L679 0H628L475 458H473L320 0H269L69 587Q60 612 54 628T41 654T26 668T6 676L-18 682V693H241V682L215 676Q195 671 187 664T178 642Q178 629 182 613T195 574L338 144H341L460 503L431 591Q423 614 418 629T405 653T390 667T370 676L347 682V693H605V682L575
676Q555 671 547 663T539 640Q539 628 543 613T554 574L694 146H697L823 573Z" />
<glyph unicode="&#x175;" glyph-name="wcircumflex" horiz-adv-x="743" d="M400 712L506 577L501 570L382 632L264 570L259 577L364 712H400ZM541 0H499L382 336H379L259 0H218L63 425Q56 444 50 456T39 475T27 487T12 493L-9 500V510H216V500L194 495Q176 490
171 483T166 464Q166 452 170 439T179 409L275 120H278L369 376L351 425Q344 444 339 456T328 475T316 487T300 494L281 500V510H501V500L477 494Q458 489 453 481T447 460Q447 448 450 436T458 408L554 122H558L652 405Q659 426 662 438T665 462Q665 484 633 493L608
500V510H760V500L746 495Q734 491 726 486T711 473T698 451T685 415L541 0Z" />
<glyph unicode="&#x176;" glyph-name="Ycircumflex" horiz-adv-x="585" d="M166 11L206 18Q220 21 228 23T240 32T246 50T248 80V286L69 604Q57 625 50 637T36 657T23 669T6 676L-15 682V693H257V682L223 675Q198 670 191 663T184 642Q184 634 187 623T200 595L347
323H350L474 585Q481 600 485 614T489 639Q489 652 481 661T451 675L419 682V693H599V682L580 675Q568 671 559 666T542 651T525 623T500 575L363 288V80Q363 61 364 50T369 33T382 24T405 18L443 11V0H166V11ZM191 730L309 854H346L463 730L458 723L328 776L197
723L191 730Z" />
<glyph unicode="&#x177;" glyph-name="ycircumflex" horiz-adv-x="481" d="M385 403Q393 425 395 439T398 462Q398 484 366 493L342 500V510H495V500L479 494Q468 491 461 486T447 471T434 449T419 414L242 -54Q212 -132 176 -168T83 -204Q49 -204 29 -188T8 -146Q8
-123 21 -110T58 -97Q98 -97 106 -140Q109 -153 111 -160T125 -167Q142 -167 166 -144T210 -67L230 -10L58 425Q51 444 45 456T33 475T21 487T6 493L-13 500V510H219V500L193 493Q176 488 170 481T164 461Q164 449 168 436T177 409L280 127H284L385 403ZM273 712L379
577L374 570L255 632L137 570L132 577L237 712H273Z" />
<glyph unicode="&#x178;" glyph-name="Ydieresis" horiz-adv-x="585" d="M166 11L206 18Q220 21 228 23T240 32T246 50T248 80V286L69 604Q57 625 50 637T36 657T23 669T6 676L-15 682V693H257V682L223 675Q198 670 191 663T184 642Q184 634 187 623T200 595L347
323H350L474 585Q481 600 485 614T489 639Q489 652 481 661T451 675L419 682V693H599V682L580 675Q568 671 559 666T542 651T525 623T500 575L363 288V80Q363 61 364 50T369 33T382 24T405 18L443 11V0H166V11ZM239 730Q215 730 199 746T182 788Q182 812 198 828T239
844Q265 844 281 828T297 788Q297 762 281 746T239 730ZM416 730Q391 730 375 746T358 788Q358 812 374 828T416 844Q441 844 457 828T474 788Q474 762 458 746T416 730Z" />
<glyph unicode="&#x179;" glyph-name="Zacute" horiz-adv-x="560" d="M214 735L342 840Q351 848 361 852T380 856Q400 856 412 842T424 810Q424 774 383 766L217 728L214 735ZM20 24L402 667V671H319Q261 671 227 668T173 658T144 641T126 616Q110 587 97 559T68
493H57L71 693H531V670L147 25V21H227Q296 21 335 23T397 31T431 49T457 82Q474 107 488 139T519 208H530L512 0H20V24Z" />
<glyph unicode="&#x17a;" glyph-name="zacute" horiz-adv-x="462" d="M163 581L276 688Q287 697 296 701T316 706Q335 706 348 693T361 659Q361 644 352 632T323 614L167 574L163 581ZM18 21L321 484V488H211Q183 488 166 487T138 480T119 466T101 440Q90 424
80 404T56 356H46L53 510H440V492L136 26V22H237Q276 22 299 24T337 33T360 49T377 75Q389 95 400 117T422 166H432L421 0H18V21Z" />
<glyph unicode="&#x17b;" glyph-name="Zdotaccent" horiz-adv-x="560" d="M20 24L402 667V671H319Q261 671 227 668T173 658T144 641T126 616Q110 587 97 559T68 493H57L71 693H531V670L147 25V21H227Q296 21 335 23T397 31T431 49T457 82Q474 107 488 139T519
208H530L512 0H20V24ZM300 732Q274 732 255 749T236 792Q236 818 255 835T300 852Q326 852 343 835T361 792Q361 767 344 750T300 732Z" />
<glyph unicode="&#x17c;" glyph-name="zdotaccent" horiz-adv-x="462" d="M18 21L321 484V488H211Q183 488 166 487T138 480T119 466T101 440Q90 424 80 404T56 356H46L53 510H440V492L136 26V22H237Q276 22 299 24T337 33T360 49T377 75Q389 95 400 117T422 166H432L421
0H18V21ZM180 639Q180 665 198 682T243 700Q269 700 287 683T306 639Q306 613 288 596T243 578Q217 578 199 595T180 639Z" />
<glyph unicode="&#x17d;" glyph-name="Zcaron" horiz-adv-x="560" d="M169 859L300 806L430 859L435 852L318 728H281L163 852L169 859ZM20 24L402 667V671H319Q261 671 227 668T173 658T144 641T126 616Q110 587 97 559T68 493H57L71 693H531V670L147 25V21H227Q296
21 335 23T397 31T431 49T457 82Q474 107 488 139T519 208H530L512 0H20V24Z" />
<glyph unicode="&#x17e;" glyph-name="zcaron" horiz-adv-x="462" d="M221 576L116 711L121 718L239 657L358 718L363 711L257 576H221ZM18 21L321 484V488H211Q183 488 166 487T138 480T119 466T101 440Q90 424 80 404T56 356H46L53 510H440V492L136 26V22H237Q276
22 299 24T337 33T360 49T377 75Q389 95 400 117T422 166H432L421 0H18V21Z" />
<glyph unicode="&#x192;" glyph-name="florin" horiz-adv-x="399" d="M28 389H109L123 492Q130 546 148 586T193 651T253 689T324 702Q379 702 408 681T437 630Q437 608 424 597T387 585Q362 585 349 598T333 642Q331 664 326 673T308 682Q296 682 286 677T268
659T253 622T241 561L218 389H322V365H215L170 26Q156 -87 107 -140T-11 -193Q-59 -193 -84 -175T-109 -131Q-109 -90 -65 -90Q-43 -90 -33 -100T-17 -137Q-11 -162 -7 -168T6 -174Q13 -174 19 -171T30 -158T39 -132T47 -89L106 365H28V389Z" />
<glyph unicode="&#x1fa;" glyph-name="Aringacute" horiz-adv-x="620" d="M-10 11L7 16Q20 20 28 25T44 42T60 74T81 130L286 693H340L539 118Q549 89 557 71T572 41T588 24T607 16L628 11V0H363V11L386 16Q411 22 418 32T426 57Q426 68 422 85T413 115L369 251H155L116
137Q106 108 103 91T99 61Q99 43 108 33T141 17L168 11V0H-10V11ZM164 275H361L267 563H264L164 275ZM218 904L346 1009Q355 1017 365 1021T384 1025Q404 1025 416 1011T428 979Q428 943 387 935L221 897L218 904ZM227 800Q227 835 251 857T311 880Q346 880 370
858T395 800Q395 766 371 744T311 721Q276 721 252 743T227 800ZM254 800Q254 776 269 759T311 742Q337 742 352 759T368 800Q368 824 353 841T311 859Q285 859 270 842T254 800Z" />
<glyph unicode="&#x1fb;" glyph-name="aringacute" horiz-adv-x="478" d="M165 -13Q97 -13 58 19T19 110Q19 144 32 167T67 205T116 230T172 247L304 280V389Q304 417 302 438T291 475T265 498T217 506Q183 506 172 496T156 460Q152 421 139 406T99 391Q74 391
61 403T48 438Q48 462 64 478T107 506T167 522T235 527Q326 527 367 494T408 395V85Q408 62 413 51T428 33Q439 25 452 23T480 20V12Q469 4 446 -4T394 -12Q318 -12 309 51H306Q285 25 249 6T165 -13ZM210 33Q245 33 268 45T304 74V251L246 241Q216 236 194 228T156
207T133 175T125 128Q125 83 146 58T210 33ZM399 899Q399 934 423 957T483 980Q518 980 542 957T567 899Q567 865 543 843T483 820Q448 820 424 842T399 899ZM426 899Q426 875 441 858T483 841Q509 841 524 858T540 899Q540 924 525 941T483 959Q457 959 442 942T426
899ZM379 748L507 853Q516 861 526 865T545 869Q565 869 577 855T589 823Q589 787 548 779L382 741L379 748Z" />
<glyph unicode="&#x1fc;" glyph-name="AEacute" horiz-adv-x="876" d="M511 735L639 840Q648 848 658 852T677 856Q697 856 709 842T721 810Q721 774 680 766L514 728L511 735ZM839 0H326V11L364 18Q377 21 385 24T397 33T402 50T403 80V243H200L136 122Q123 97
116 80T109 52Q109 38 119 31T152 17L177 11V0H-18V11L2 17Q20 23 32 29T54 47T76 78T105 127L394 658Q389 664 381 667T358 674L321 682V693H819L830 518H819Q805 550 793 576T770 620Q759 636 749 646T723 661T685 668T628 670Q591 670 565 668T517 661V371H574Q605
371 624 372T656 377T674 388T686 406Q693 420 698 438T710 480H721V240H710Q705 262 699 281T686 314Q681 325 675 332T656 342T625 347T574 348H517V103Q517 74 519 58T534 35T570 25T639 23Q676 23 698 25T735 33T759 49T780 74Q798 100 812 136T841 210H853L839
0ZM212 267H403V614V623H401L212 267Z" />
<glyph unicode="&#x1fd;" glyph-name="aeacute" horiz-adv-x="756" d="M324 581L437 688Q448 697 457 701T477 706Q496 706 509 693T522 659Q522 644 513 632T484 614L328 574L324 581ZM341 83Q309 33 267 10T165 -13Q97 -13 58 20T19 111Q19 147 32 171T67 211T116
236T172 254L304 286V389Q304 417 302 438T291 475T265 498T217 506Q183 506 172 496T156 460Q152 421 139 406T99 391Q74 391 61 403T48 438Q48 462 64 478T107 506T165 522T230 527Q293 527 329 509T379 456Q408 490 447 508T534 527Q632 527 685 468T737 278H408Q409
153 451 99T574 44Q622 44 659 53T725 80V67Q698 37 651 13T534 -12Q463 -12 416 12T343 83H341ZM527 506Q501 506 480 495T443 459T418 394T408 297L627 307Q627 412 605 459T527 506ZM213 33Q257 33 286 53T333 102Q318 134 311 172T304 256L247 247Q181 237
153 211T125 130Q125 83 147 58T213 33Z" />
<glyph unicode="&#x1fe;" glyph-name="Oslashacute" horiz-adv-x="681" d="M338 -10Q288 -10 244 1T162 37L102 -57H73L142 51Q88 93 57 164T25 337Q25 436 52 505T124 619T226 683T343 703Q396 703 443 690T528 649L580 730H609L547 634Q598 590 627 520T656
351Q656 252 629 184T557 72T455 10T338 -10ZM145 354Q145 200 185 117L489 589Q465 634 429 657T341 681Q240 681 193 601T145 354ZM340 12Q441 12 488 90T536 334Q536 405 528 462T501 563L198 92Q248 12 340 12ZM244 735L372 840Q381 848 391 852T410 856Q430
856 442 842T454 810Q454 774 413 766L247 728L244 735Z" />
<glyph unicode="&#x1ff;" glyph-name="oslashacute" horiz-adv-x="546" d="M273 -10Q197 -10 139 23L93 -53H65L119 36Q74 68 48 123T22 256Q22 322 43 373T99 458T180 509T273 527Q345 527 401 497L439 559H466L421 485Q468 453 496 398T524 261Q524 195 503
145T447 60T366 8T273 -10ZM277 10Q346 10 379 67T413 248Q413 308 406 352T386 428L168 70Q186 38 213 24T277 10ZM133 267Q133 210 138 168T156 96L374 452Q339 506 271 506Q204 506 169 450T133 267ZM188 581L301 688Q312 697 321 701T341 706Q360 706 373 693T386
659Q386 644 377 632T348 614L192 574L188 581Z" />
<glyph unicode="&#x218;" glyph-name="Scommaaccent" horiz-adv-x="475" d="M219 -10Q99 -10 29 24L16 200H29Q45 165 58 138T90 83Q113 47 144 30T227 12Q289 12 323 47T357 141Q357 169 349 190T323 230T276 267T203 307Q165 324 134 343T79 387T44 441T31 511Q31
551 45 586T88 647T156 688T247 703Q298 703 338 695T402 676L413 514H401Q386 547 373 572T345 620Q334 637 324 648T302 667T275 678T237 681Q179 681 147 652T114 567Q114 539 121 518T145 480T186 447T248 414Q302 388 340 366T402 318T437 264T449 194Q449
156 435 120T393 55T321 8T219 -10ZM410 -213Q453 -195 470 -174T491 -126Q480 -137 459 -137Q439 -137 428 -125T417 -94Q417 -77 431 -62T471 -46Q498 -46 515 -63T533 -109Q533 -150 501 -181T413 -220L410 -213Z" />
<glyph unicode="&#x219;" glyph-name="scommaaccent" horiz-adv-x="392" d="M179 -10Q131 -10 93 -4T24 13L21 159H32Q44 134 53 114T74 77Q94 41 119 26T188 10Q233 10 259 35T285 103Q285 123 279 138T258 167T222 191T167 216Q133 229 107 244T62 279T35 321T26
376Q26 409 39 437T76 485T133 516T208 527Q247 527 280 521T339 504L342 378H331Q318 403 308 422T287 457Q270 482 251 494T197 506Q150 506 125 482T100 421Q100 383 129 360T220 312Q254 298 282 284T329 250T359 208T370 152Q370 118 358 89T321 37T261 3T179
-10ZM369 -213Q412 -195 429 -174T450 -126Q439 -137 418 -137Q398 -137 387 -125T376 -94Q376 -77 390 -62T430 -46Q457 -46 474 -63T492 -109Q492 -150 460 -181T372 -220L369 -213Z" />
<glyph unicode="&#x21a;" glyph-name="uni021A" horiz-adv-x="569" d="M219 -213Q262 -195 279 -174T300 -126Q289 -137 268 -137Q248 -137 237 -125T226 -94Q226 -77 240 -62T280 -46Q307 -46 324 -63T342 -109Q342 -150 310 -181T222 -220L219 -213ZM598 671V80Q598
61 599 50T604 33T617 24T641 18L678 11V0H404V11L442 18Q456 21 464 23T477 32T483 50T484 80V671H451Q418 671 398 668T365 657T345 637T329 608Q317 584 304 553T277 487H265L276 693H806L816 487H804Q791 522 778 553T754 608Q746 625 738 637T718 656T685
667T632 671H598Z" />
<glyph unicode="&#x21b;" glyph-name="uni021B" horiz-adv-x="312" d="M360 -213Q403 -195 420 -174T441 -126Q430 -137 409 -137Q389 -137 378 -125T367 -94Q367 -77 381 -62T421 -46Q448 -46 465 -63T483 -109Q483 -150 451 -181T363 -220L360 -213ZM178 -10Q124
-10 93 16T62 99V475H4V484Q55 504 92 541T150 630H166V510H300L296 475H166V103Q166 66 182 52T233 37Q256 37 274 41T307 51V40Q290 24 257 7T178 -10Z" />
<glyph unicode="&#x237;" glyph-name="uni0237" horiz-adv-x="234" d="M173 9Q173 -41 161 -80T126 -145T72 -184T4 -198Q-45 -198 -69 -180T-93 -132Q-93 -112 -80 -99T-43 -85Q-21 -85 -9 -98T9 -146Q11 -165 15 -171T29 -178Q46 -178 57 -159T69 -97V422Q69
436 68 444T62 459T51 469T30 480L4 494V502L172 524L177 522Q176 511 175 483T173 407V9Z" />
<glyph unicode="&#x2c6;" glyph-name="circumflex" horiz-adv-x="459" d="M247 712L353 577L348 570L229 632L111 570L106 577L211 712H247Z" />
<glyph unicode="&#x2c7;" glyph-name="caron" horiz-adv-x="459" d="M211 576L106 711L111 718L229 657L348 718L353 711L247 576H211Z" />
<glyph unicode="&#x2d8;" glyph-name="breve" horiz-adv-x="459" d="M232 579Q203 579 183 588T150 614T129 654T121 703L129 705Q140 676 166 661T231 645Q268 645 293 661T330 705L338 703Q336 650 310 615T232 579Z" />
<glyph unicode="&#x2d9;" glyph-name="dotaccent" horiz-adv-x="415" d="M145 639Q145 665 163 682T208 700Q234 700 252 683T271 639Q271 613 253 596T208 578Q182 578 164 595T145 639Z" />
<glyph unicode="&#x2da;" glyph-name="ring" horiz-adv-x="459" d="M146 655Q146 690 170 713T230 736Q265 736 289 713T314 655Q314 621 290 599T230 576Q195 576 171 598T146 655ZM173 655Q173 631 188 614T230 597Q256 597 271 614T287 655Q287 680 272 697T230
715Q204 715 189 698T173 655Z" />
<glyph unicode="&#x2db;" glyph-name="ogonek" horiz-adv-x="422" d="M260 0Q233 -31 221 -59T209 -117Q209 -168 262 -168Q273 -168 283 -166T301 -161V-170Q289 -185 268 -194T220 -203Q175 -203 152 -184T129 -131Q129 -99 156 -66T246 0H260Z" />
<glyph unicode="&#x2dc;" glyph-name="tilde" horiz-adv-x="459" d="M93 581Q102 605 110 624T127 658T149 679T178 687Q191 687 207 684T240 678T271 672T298 669Q321 669 332 678T356 708L366 704Q357 680 350 661T332 628T310 607T278 599Q250 599 217 607T158
616Q136 616 125 607T103 577L93 581Z" />
<glyph unicode="&#x2dd;" glyph-name="hungarumlaut" horiz-adv-x="459" d="M89 576L155 697Q172 729 199 729Q216 729 229 716T242 685Q242 674 235 662T210 638L95 569L89 576ZM241 576L307 697Q324 729 350 729Q367 729 380 716T394 685Q394 674 387 662T362
638L247 569L241 576Z" />
</font>
</defs>
</svg>
